<svg width="23" height="24" viewBox="0 0 23 24" fill="none" xmlns="http://www.w3.org/2000/svg">
<g clip-path="url(#clip0_249_23)">
<path d="M3.07338 19.1802C3.13431 19.2525 3.19974 19.3197 3.26442 19.3898C3.32985 19.457 3.39827 19.525 3.46745 19.59C3.53663 19.655 3.60657 19.7171 3.67949 19.7799C3.75242 19.8428 3.82611 19.9027 3.90055 19.9596C3.975 20.0166 4.05243 20.0743 4.13062 20.129C4.20882 20.1838 4.28777 20.2356 4.36749 20.2845C4.4472 20.3334 4.5299 20.383 4.61336 20.4297C4.69682 20.4764 4.78104 20.5202 4.86526 20.5639C4.95024 20.6047 5.03523 20.6455 5.12395 20.6841C5.2097 20.722 5.29918 20.7577 5.38569 20.7926C5.47594 20.8253 5.5632 20.8572 5.65421 20.887C5.74522 20.9168 5.83401 20.9429 5.92578 20.9697C6.01831 20.9936 6.11084 21.0175 6.20115 21.0376C6.29444 21.0586 6.3885 21.0765 6.48033 21.0908C6.57514 21.1059 6.66697 21.1201 6.76254 21.1322C6.85812 21.1443 6.95147 21.1527 7.04558 21.1581C7.13595 21.1657 7.22707 21.1704 7.31896 21.1721C7.41085 21.1738 7.50274 21.1755 7.5924 21.1735C7.68505 21.1723 7.77548 21.1673 7.86666 21.1594C7.95785 21.1515 8.04903 21.1436 8.14098 21.1327C8.23292 21.1219 8.32265 21.1073 8.41237 21.0928C8.50209 21.0782 8.59257 21.0607 8.68083 21.0394C8.76909 21.0182 8.86034 20.9977 8.94637 20.9728C9.03539 20.9486 9.12143 20.9236 9.20898 20.8928C9.29578 20.8649 9.38333 20.8341 9.4679 20.8024C9.55248 20.7708 9.63781 20.7362 9.72092 20.698C9.80403 20.6597 9.88713 20.6214 9.96726 20.5823C10.0481 20.5403 10.129 20.4983 10.2107 20.4534C10.2923 20.4084 10.368 20.3619 10.4444 20.3125C10.5209 20.2631 10.5973 20.2136 10.6715 20.1605C10.7457 20.1073 10.8199 20.0542 10.8919 19.9973C10.9639 19.9404 11.0329 19.8828 11.1019 19.8251C11.7096 19.2963 12.2768 18.7038 12.8585 18.14L16.0827 15.0255L18.6189 12.6016C19.0557 12.1798 19.5638 11.7542 19.9225 11.2651C19.9879 11.172 20.0534 11.0788 20.1128 10.9841C20.1723 10.8894 20.2325 10.7918 20.2868 10.6926C20.341 10.5934 20.3923 10.4935 20.4413 10.3898C20.4896 10.2891 20.5357 10.1846 20.5787 10.0794C20.6218 9.97422 20.6589 9.86747 20.696 9.76072C20.7331 9.65397 20.7643 9.54568 20.7924 9.43661C20.8206 9.32755 20.8487 9.21849 20.8709 9.10789C20.8931 8.99728 20.9123 8.88591 20.9285 8.77377C21.0687 7.27725 20.7052 5.87205 19.7106 4.70359C18.7482 3.57138 17.2748 2.87668 15.7957 2.75901C15.7054 2.7514 15.6142 2.74675 15.5224 2.74504C15.4305 2.74333 15.3416 2.74239 15.2489 2.74362C15.1593 2.74563 15.0658 2.74982 14.9784 2.75554C14.888 2.7605 14.796 2.77135 14.7078 2.78003C14.6189 2.79165 14.5269 2.8025 14.4402 2.81784C14.3505 2.83241 14.263 2.85069 14.1725 2.86821C14.085 2.8865 13.996 2.91068 13.9077 2.93192C13.8187 2.9561 13.7327 2.98105 13.6459 3.00895C13.5591 3.03685 13.4753 3.06552 13.3899 3.10009C13.3053 3.13171 13.22 3.16628 13.1377 3.20161C13.0553 3.23695 12.9722 3.27523 12.8913 3.31724C12.8112 3.35629 12.7303 3.39829 12.6517 3.44401C12.5738 3.48679 12.4951 3.53251 12.4187 3.58195C12.3422 3.63138 12.2666 3.67788 12.1923 3.73103C12.1189 3.78124 12.0447 3.8344 11.9727 3.89127C11.9015 3.9452 11.8325 4.00284 11.7635 4.06049C10.7767 4.90964 9.86527 5.83799 8.92309 6.73639C7.69874 7.9015 6.45462 9.04579 5.23993 10.2228C4.4083 11.0271 3.34619 11.8474 2.67458 12.7842C2.16316 13.4951 1.94264 14.3248 1.79367 15.1733C1.6871 16.6433 2.09813 18.0481 3.07338 19.1802ZM8.22059 8.6279C8.25441 8.42284 12.1355 4.81109 12.5428 4.51695C13.6017 3.74614 14.8804 3.41909 16.1894 3.62807C16.2663 3.63848 16.3424 3.65185 16.4208 3.66894C16.4962 3.68525 16.5746 3.70233 16.6492 3.72159C16.7238 3.74086 16.8006 3.76384 16.8745 3.78604C16.9484 3.80825 17.0215 3.83341 17.0968 3.86228C17.1699 3.88744 17.2415 3.91849 17.3138 3.9466C17.3854 3.97765 17.457 4.0087 17.5278 4.0427C17.5986 4.0767 17.6657 4.11288 17.7357 4.14982C17.8058 4.18677 17.8721 4.22589 17.9384 4.26502C18.0047 4.30414 18.0703 4.34621 18.1351 4.39123C18.1999 4.43625 18.2617 4.4805 18.3257 4.52847C18.3867 4.57567 18.4478 4.62286 18.5081 4.67301C18.5684 4.72315 18.6249 4.77547 18.6814 4.82779C18.738 4.88011 18.7937 4.93538 18.8495 4.99065C18.9053 5.04592 18.9573 5.10337 19.0094 5.16081C19.0614 5.21826 19.1097 5.27788 19.158 5.33751C19.2062 5.39713 19.2538 5.4597 19.2983 5.5215C20.0497 6.57094 20.2624 7.73284 20.0511 8.98336C20.019 9.13229 19.981 9.27967 19.9347 9.42179C19.8877 9.56686 19.8355 9.70744 19.7736 9.84866C19.7124 9.98693 19.6453 10.1237 19.57 10.2551C19.4947 10.3866 19.4134 10.5165 19.3246 10.6382C18.8026 11.3779 18.0852 11.9975 17.43 12.6242L14.9034 15.0475C12.6417 13.0517 10.4966 10.888 8.31075 8.80774C8.25518 8.74058 8.20672 8.71864 8.22059 8.6279ZM3.49566 18.4089C3.44515 18.3455 3.39838 18.28 3.35536 18.2123C2.65544 17.173 2.48057 15.914 2.72756 14.7104C2.76104 14.5807 2.7975 14.4518 2.84291 14.3252C2.88833 14.1985 2.93597 14.0756 2.99333 13.9521C3.04992 13.8315 3.11249 13.7125 3.18026 13.5979C3.24803 13.4834 3.32178 13.3704 3.40073 13.2618C3.87306 12.6037 4.52815 12.0528 5.11133 11.4957C5.92487 10.7244 6.7335 9.94874 7.53953 9.16957C9.77587 11.3254 12.1044 13.4076 14.2687 15.6332C13.5007 16.4005 12.7117 17.1494 11.9311 17.9041C11.3201 18.4949 10.722 19.158 10.016 19.6363C9.03977 20.2964 7.67426 20.5036 6.52068 20.2844C6.44156 20.2703 6.3602 20.2524 6.2826 20.2324C6.20499 20.2124 6.1244 20.1916 6.04755 20.1686C5.9707 20.1456 5.89163 20.1189 5.81555 20.093C5.73946 20.0671 5.66414 20.0382 5.58957 20.0064C5.51501 19.9745 5.44045 19.9427 5.36588 19.9109C5.29208 19.8761 5.21827 19.8414 5.14822 19.8044C5.07517 19.7667 5.00588 19.7268 4.93658 19.6869C4.86729 19.647 4.79875 19.6042 4.73097 19.5584C4.6632 19.5126 4.59543 19.4668 4.53063 19.4218C4.46661 19.3738 4.39959 19.3251 4.33931 19.2749C4.27604 19.224 4.21277 19.1731 4.15401 19.1171C4.09449 19.064 4.03573 19.0079 3.97696 18.9519C3.9182 18.8958 3.86319 18.8376 3.80817 18.7794C3.75315 18.7212 3.6989 18.66 3.64839 18.5967C3.59369 18.5348 3.54318 18.4714 3.49566 18.4089Z" fill="#FDF9F3"/>
</g>
<defs>
<clipPath id="clip0_249_23">
<rect width="20.1875" height="17" fill="white" transform="translate(22.1201 4.30089) rotate(104.473)"/>
</clipPath>
</defs>
</svg>
