<svg width="31" height="21" viewBox="0 0 31 21" fill="none" xmlns="http://www.w3.org/2000/svg">
<g clip-path="url(#clip0_282_147)">
<path d="M4.86572 0.537308V1.76882H18.0319V9.28805H27.346L28.8852 11.2559V16.5124H26.5141C26.1846 14.6519 24.4097 13.4104 22.5492 13.7399C21.1348 13.9902 20.0271 15.0979 19.7768 16.5124H13.6829C13.3534 14.6519 11.5785 13.4104 9.71804 13.7399C8.30358 13.9902 7.19586 15.0979 6.94555 16.5124H4.86572V17.7439H6.93827C7.28597 19.6025 9.07544 20.8268 10.9341 20.4791C12.3231 20.2187 13.4089 19.1329 13.6693 17.7439H19.7722C20.1199 19.6025 21.9094 20.8268 23.768 20.4791C25.157 20.2187 26.2429 19.1329 26.5032 17.7439H30.1085V10.8463L28.1935 8.3833L25.2162 2.11106H19.2643V0.540038L4.86572 0.537308ZM10.2978 19.3076C9.08545 19.3076 8.10242 18.3246 8.10242 17.1122C8.10242 15.8998 9.08545 14.9168 10.2978 14.9168C11.5102 14.9168 12.4933 15.8998 12.4933 17.1122C12.4933 17.1131 12.4933 17.114 12.4933 17.1149C12.4914 18.3264 11.5084 19.3076 10.2978 19.3076ZM23.1345 19.3076C21.9221 19.3076 20.9391 18.3246 20.9391 17.1122C20.9391 15.8998 21.9221 14.9168 23.1345 14.9168C24.3469 14.9168 25.3299 15.8998 25.3299 17.1122C25.3299 17.1131 25.3299 17.114 25.3299 17.1149C25.3281 18.3246 24.3478 19.3058 23.1372 19.3076H23.1345ZM24.437 3.34257L26.6843 8.06018H19.2634V3.34257H24.437Z" fill="#6F5138"/>
<path d="M7.42159 11.7702H2.49463V13.0017H7.42159V11.7702Z" fill="#6F5138"/>
<path d="M9.57706 8.07474H0.955566V9.30625H9.57706V8.07474Z" fill="#6F5138"/>
<path d="M11.1161 4.3802H2.49463V5.61171H11.1161V4.3802Z" fill="#6F5138"/>
</g>
<defs>
<clipPath id="clip0_282_147">
<rect width="29.1531" height="20" fill="white" transform="translate(0.955566 0.537308)"/>
</clipPath>
</defs>
</svg>
