<svg width="37" height="25" viewBox="0 0 37 25" fill="none" xmlns="http://www.w3.org/2000/svg">
<g clip-path="url(#clip0_264_15)">
<path d="M4.8877 0V1.53939H21.3454V10.9384H32.9881L34.9121 13.3983V19.9688H31.9482C31.5363 17.6432 29.3177 16.0913 26.9921 16.5032C25.224 16.8161 23.8394 18.2007 23.5265 19.9688H15.9092C15.4973 17.6432 13.2787 16.0913 10.9531 16.5032C9.18502 16.8161 7.80036 18.2007 7.48748 19.9688H4.8877V21.5082H7.47838C7.913 23.8315 10.1498 25.3618 12.4731 24.9272C14.2094 24.6018 15.5667 23.2444 15.8921 21.5082H23.5208C23.9554 23.8315 26.1923 25.3618 28.5156 24.9272C30.2518 24.6018 31.6091 23.2444 31.9345 21.5082H36.4412V12.8863L34.0474 9.80749L30.3257 1.96719H22.8859V0.00341328L4.8877 0ZM11.6778 23.4629C10.1624 23.4629 8.93357 22.2341 8.93357 20.7186C8.93357 19.2031 10.1624 17.9743 11.6778 17.9743C13.1933 17.9743 14.4221 19.2031 14.4221 20.7186C14.4221 20.7197 14.4221 20.7209 14.4221 20.722C14.4199 22.2364 13.1911 23.4629 11.6778 23.4629ZM27.7237 23.4629C26.2082 23.4629 24.9794 22.2341 24.9794 20.7186C24.9794 19.2031 26.2082 17.9743 27.7237 17.9743C29.2392 17.9743 30.468 19.2031 30.468 20.7186C30.468 20.7197 30.468 20.7209 30.468 20.722C30.4657 22.2341 29.2403 23.4606 27.7271 23.4629H27.7237ZM29.3518 3.50658L32.1609 9.40359H22.8848V3.50658H29.3518Z" fill="#6F5138"/>
<path d="M8.08253 14.0411H1.92383V15.5805H8.08253V14.0411Z" fill="#6F5138"/>
<path d="M10.7769 9.42181H0V10.9612H10.7769V9.42181Z" fill="#6F5138"/>
<path d="M12.7007 4.80365H1.92383V6.34304H12.7007V4.80365Z" fill="#6F5138"/>
</g>
<defs>
<clipPath id="clip0_264_15">
<rect width="36.4413" height="25" fill="white"/>
</clipPath>
</defs>
</svg>
