<svg width="32" height="38" viewBox="0 0 32 38" fill="none" xmlns="http://www.w3.org/2000/svg">
<g clip-path="url(#clip0_146_689)">
<path d="M31.0206 37.2756C29.7439 36.8871 26.0894 37.1957 24.5016 37.1248C23.8226 35.3343 22.9688 33.9377 21.1363 33.1223C19.861 32.5551 18.5574 32.5836 17.1907 32.6035C17.1927 30.7841 17.1728 28.9621 17.2002 27.1431C21.719 26.3207 25.4823 24.285 28.1281 20.4448C29.6895 18.179 30.5253 15.5581 30.7825 12.8334C30.8319 12.3111 30.9188 11.6804 30.8134 11.1647C30.7745 10.9729 30.7475 10.9804 30.6172 10.8531C30.1658 10.886 29.7439 11.1007 29.306 11.2081C28.2644 11.4627 27.1749 11.4293 26.1154 11.3314C26.0919 8.69906 26.1349 6.04024 25.9921 3.41237C23.5699 2.94951 21.2037 2.55206 18.8644 1.73169C17.9117 1.39765 16.0303 0.0340336 15.2814 0.000579834C13.1079 1.66079 10.4106 2.47566 7.7443 2.94302C6.85403 3.0988 5.88437 3.15322 5.02156 3.40438C4.79437 5.98931 5.14938 8.65163 4.79487 11.2191C3.85767 11.3319 2.87702 11.4642 1.94431 11.247C1.55285 11.1557 0.980645 10.8176 0.630628 11.0254C0.109848 12.2756 1.26275 16.1952 1.79752 17.4999C3.44624 21.5238 6.37219 24.4338 10.3926 26.0995C11.556 26.5819 12.7614 26.8909 13.9942 27.1361C13.9512 28.9521 13.9367 30.7686 13.9497 32.5851C11.586 32.6714 9.14836 32.5731 7.40776 34.4939C6.71572 35.2574 6.32176 36.1591 6.01519 37.1283C4.73446 37.1308 1.21033 36.943 0.191236 37.2331C0.0254648 37.4214 0.00349517 37.4169 0 37.6641C0.215702 37.8383 0.407936 37.8738 0.676565 37.8962C2.2464 38.0256 3.95553 37.8962 5.54084 37.9037L16.7084 37.9302L26.3126 37.9372C27.7486 37.9397 29.336 38.0825 30.7485 37.9292C30.9817 37.9037 31.0291 37.8498 31.2049 37.7035C31.2099 37.4533 31.1899 37.4653 31.0206 37.2756ZM26.1129 12.1598C27.16 12.1618 28.202 12.1328 29.2426 12.0105C29.5027 11.9626 29.635 11.9191 29.8967 12.0015C30.004 12.2147 30.046 12.4059 30.0615 12.6421C30.2297 15.2355 28.1296 19.4372 26.4125 21.3481C25.2042 21.3915 23.8316 21.5508 22.6602 21.2233C22.2732 21.0046 21.8493 20.6955 21.6636 20.2836C21.7604 20.0169 22.0445 19.8676 22.2682 19.6959C24.7713 17.7705 25.6515 15.1641 26.1129 12.1598ZM5.7166 4.12688C9.14636 3.34346 12.3369 2.87161 15.3967 0.953264C16.4223 1.15499 17.7654 2.11516 18.799 2.5161C20.8717 3.32049 23.0646 3.71195 25.2461 4.08344L25.2741 8.78095C25.29 12.1243 25.2556 15.3863 22.8759 18.0217C21.0359 20.0599 18.5064 21.1034 15.7977 21.2377C12.9536 21.0865 10.527 20.0329 8.51473 17.9912C4.8463 14.2694 5.67066 8.8933 5.7166 4.12688ZM4.92569 21.2802C2.79014 18.542 1.61277 15.4897 1.31668 12.0315C1.4475 12.0409 1.57932 12.0479 1.71014 12.0589C2.75519 12.1468 3.79326 12.0859 4.83981 12.0464C5.23676 14.4471 6.2194 16.7215 7.91556 18.4945C8.41737 19.0188 9.10242 19.4462 9.49588 20.0519C9.57277 20.4069 9.45044 20.6396 9.32012 20.9606C9.29166 20.9926 9.26519 21.0265 9.23424 21.0565C8.70547 21.5728 5.70262 21.2927 4.92569 21.2802ZM5.68165 22.0601C6.76715 22.0341 8.2481 22.3183 9.25371 21.9358C9.93627 21.6766 10.113 21.1369 10.3911 20.5237C10.8909 20.7984 11.4487 21.0185 11.9769 21.2327C15.2659 22.5679 17.7654 21.8834 20.8981 20.5697C21.1178 20.9272 21.363 21.3002 21.6855 21.5743C22.7231 22.4571 24.2515 22.2184 25.5038 22.141C24.3538 23.564 22.794 24.4658 21.1767 25.2642C19.6304 25.8993 18.0186 26.3002 16.3424 26.3567C12.2116 26.496 8.65654 24.8443 5.68165 22.0601ZM16.3544 32.5906L14.7276 32.5995L14.7696 27.1905L16.3604 27.2345C16.3704 29.0195 16.3684 30.805 16.3544 32.5906ZM18.9104 37.1298L6.92343 37.1238C7.1611 36.3753 7.40477 35.7262 7.92704 35.1221C8.92616 33.9652 10.3412 33.5622 11.8027 33.4399C14.0246 33.3345 19.3887 33.0724 21.2391 34.0231C22.5673 34.7051 23.1775 35.7527 23.6209 37.1183L18.9104 37.1298Z" fill="#FF8C42"/>
<path d="M11.9919 15.1925C12.7509 15.9265 13.4954 16.7254 14.3272 17.3755C15.0742 16.9206 21.2751 10.8195 21.375 10.4201C21.4798 9.99967 21.1712 9.58574 20.9116 9.29964C20.4158 8.75339 19.916 8.04437 19.1316 7.97047C19.0207 7.95999 18.9962 7.96498 18.8979 7.97147C17.382 9.49636 15.8391 10.9933 14.2688 12.4628C13.5678 11.7672 12.3964 10.2738 11.3383 10.2723C10.8545 10.2713 10.469 10.5454 10.1545 10.8879C9.79796 11.2769 9.4809 11.7468 9.25222 12.2206C9.89033 13.412 11.0492 14.2463 11.9919 15.1925ZM10.3737 12.1272C10.4201 11.6439 10.9968 11.1845 11.3209 10.859C12.0528 11.2884 13.9238 13.3505 14.1425 13.397C15.4117 12.8353 17.8184 9.90879 19.2319 8.81181C19.7277 9.10191 20.1347 9.69858 20.4902 10.142C19.904 10.9474 19.0926 11.6604 18.3926 12.3709C17.0634 13.7205 15.7422 15.0737 14.3527 16.3614C13.3585 15.5545 12.4648 14.6308 11.554 13.733C11.1556 13.354 10.3152 12.7349 10.3737 12.1272Z" fill="#FF8C42"/>
</g>
<defs>
<clipPath id="clip0_146_689">
<rect width="31.2059" height="38" rx="8" fill="white"/>
</clipPath>
</defs>
</svg>
