<svg width="37" height="37" viewBox="0 0 37 37" fill="none" xmlns="http://www.w3.org/2000/svg">
<path d="M13.639 7.19737C13.8788 7.33568 14.1858 7.2535 14.3242 7.01403L17.4495 1.60737C17.6687 1.22818 18.0612 1.00173 18.4996 1.00173C18.938 1.00173 19.3305 1.22818 19.5497 1.60737L22.4102 6.55566C21.4929 7.21515 20.8362 8.1618 20.5397 9.26664C20.1997 10.5344 20.3741 11.8585 21.0313 12.995C21.5741 13.9339 23.3232 15.4435 26.2301 17.4819C28.3619 18.9767 30.3706 20.2292 30.3907 20.2416C30.4718 20.2921 30.5639 20.3175 30.656 20.3175C30.7426 20.3175 30.8291 20.2951 30.9068 20.2504C31.0673 20.1579 31.1635 19.9846 31.1573 19.7998C31.1566 19.7762 31.0749 17.4126 30.8444 14.8216C30.5303 11.2882 30.0956 9.02065 29.5529 8.08174C28.2812 5.88191 25.5513 5.03538 23.2791 6.05488L20.4187 1.10642C20.0182 0.413677 19.3007 0 18.4998 0C17.6988 0 16.9814 0.413677 16.5809 1.10642L13.4554 6.51307C13.317 6.75273 13.3991 7.05907 13.639 7.19737ZM28.6843 8.58251C29.5334 10.0512 29.9703 15.8357 30.1155 18.8813C27.547 17.2329 22.7493 13.9628 21.9003 12.4941C21.3771 11.5893 21.2381 10.5351 21.5089 9.52582C21.7359 8.67982 22.2283 7.9503 22.9153 7.42876L23.3355 8.15546L22.4288 11.5347C22.3571 11.802 22.5159 12.0767 22.7835 12.1481C22.827 12.1597 22.8707 12.1654 22.9137 12.1654C23.1352 12.1654 23.3378 12.0177 23.3979 11.7939L24.0449 9.38242L24.5301 10.2217L23.8947 12.5898C23.823 12.8571 23.9818 13.1317 24.2494 13.2032C24.2929 13.2148 24.3366 13.2204 24.3796 13.2204C24.6011 13.2204 24.8037 13.0728 24.8638 12.849L25.2394 11.4487L25.6924 12.2322L25.1753 14.1597C25.1036 14.4269 25.2623 14.7016 25.53 14.7731C25.5735 14.7847 25.6172 14.7903 25.6602 14.7903C25.8816 14.7903 26.0843 14.6427 26.1443 14.4189L26.4019 13.4587L27.726 15.7491C27.8189 15.9097 27.9875 15.9997 28.1608 15.9997C28.2459 15.9997 28.3321 15.978 28.4112 15.9324C28.6512 15.7941 28.7333 15.4878 28.5948 15.2481L27.2709 12.9581L28.232 13.2153C28.2755 13.2269 28.3192 13.2325 28.3622 13.2325C28.5837 13.2325 28.7863 13.0849 28.8464 12.8611C28.9181 12.5938 28.7594 12.3191 28.4917 12.2477L26.5612 11.7311L26.1084 10.9477L27.5109 11.3231C27.5544 11.3347 27.5981 11.3403 27.6411 11.3403C27.8625 11.3403 28.0652 11.1927 28.1252 10.9689C28.197 10.7016 28.0382 10.4269 27.7706 10.3555L25.3992 9.72096L24.9142 8.88164L27.3289 9.52776C27.3724 9.53937 27.4161 9.545 27.4591 9.545C27.6805 9.545 27.8832 9.39737 27.9432 9.17355C28.015 8.90627 27.8562 8.63161 27.5886 8.56017L24.2048 7.65469L23.7846 6.92816C25.5737 6.18139 27.6894 6.86165 28.6843 8.58251Z" fill="#FF8C42"/>
<path d="M36.6996 29.2686L33.5738 23.862C33.4353 23.6223 33.1284 23.5403 32.8886 23.6786C32.6486 23.8169 32.5665 24.1233 32.705 24.3629L35.8308 29.7696C36.05 30.1488 36.05 30.6015 35.8308 30.9805C35.6116 31.3597 35.219 31.586 34.7805 31.586H29.0594C28.8075 29.111 26.7085 27.1733 24.1648 27.1733C23.0793 27.1733 20.8956 27.9313 17.6745 29.4263C15.3125 30.5225 13.222 31.6337 13.201 31.6448C13.0375 31.7319 12.9353 31.9018 12.9353 32.0868C12.9353 32.2717 13.0375 32.4417 13.201 32.5288C13.2218 32.5399 15.3123 33.651 17.6745 34.7472C20.8956 36.2422 23.0793 37.0002 24.1648 37.0002C26.7083 37.0002 28.8073 35.0626 29.0594 32.5879H34.7805C35.5816 32.5879 36.2989 32.1742 36.6994 31.4815C37.1001 30.7885 37.1001 29.9614 36.6996 29.2686ZM24.165 35.9983C22.4669 35.9983 17.2323 33.484 14.5186 32.0868C17.2321 30.6895 22.4665 28.1752 24.165 28.1752C26.1549 28.1752 27.8028 29.6649 28.0498 31.586H27.2099L24.7327 29.112C24.5368 28.9164 24.2193 28.9164 24.0234 29.112C23.8274 29.3077 23.8274 29.6248 24.0234 29.8204L25.7913 31.586H24.8208L23.0848 29.8523C22.889 29.6566 22.5714 29.6566 22.3755 29.8523C22.1795 30.0479 22.1795 30.365 22.3755 30.5607L23.4021 31.586H22.4963L21.0831 30.1746C20.8872 29.979 20.5697 29.979 20.3737 30.1746C20.1778 30.3703 20.1778 30.6874 20.3737 30.883L21.0776 31.586H18.5001C18.2232 31.586 17.9985 31.8102 17.9985 32.0869C17.9985 32.3635 18.223 32.5879 18.5001 32.5879H21.0773L20.3737 33.2905C20.1778 33.4861 20.1778 33.8032 20.3737 33.9989C20.4717 34.0967 20.6002 34.1456 20.7284 34.1456C20.8567 34.1456 20.9851 34.0967 21.0831 33.9989L22.496 32.5879H23.4018L22.3753 33.613C22.1793 33.8087 22.1793 34.1258 22.3753 34.3214C22.4732 34.4193 22.6015 34.4682 22.7299 34.4682C22.8584 34.4682 22.9867 34.4193 23.0846 34.3214L24.8204 32.5879H25.7909L24.0234 34.3531C23.8274 34.5488 23.8274 34.8658 24.0234 35.0615C24.1213 35.1593 24.2496 35.2082 24.378 35.2082C24.5065 35.2082 24.6347 35.1593 24.7327 35.0615L27.2096 32.5879H28.0498C27.8028 34.5088 26.1549 35.9983 24.165 35.9983Z" fill="#FF8C42"/>
<path d="M11.6573 10.6256C11.4967 10.533 11.2984 10.5364 11.1412 10.6342C11.1211 10.6467 9.11236 11.8991 6.98063 13.3939C4.07366 15.4324 2.32462 16.9419 1.78177 17.8808C1.12476 19.0173 0.950152 20.3416 1.2902 21.6092C1.58673 22.7142 2.24339 23.661 3.16082 24.3204L0.300361 29.2683C-0.10012 29.9612 -0.10012 30.7884 0.300361 31.4811C0.700842 32.1739 1.41829 32.5875 2.21925 32.5875H8.4705C8.74747 32.5875 8.97211 32.3632 8.97211 32.0866C8.97211 31.81 8.74765 31.5856 8.4705 31.5856H2.21925C1.78089 31.5856 1.38816 31.3594 1.16898 30.9802C0.9498 30.601 0.9498 30.1484 1.16898 29.7692L4.02961 24.8211C4.66531 25.1072 5.34628 25.2529 6.03449 25.2529C6.46175 25.2529 6.89201 25.1968 7.31592 25.0833C8.58537 24.7437 9.64622 23.9306 10.3034 22.7941C10.8463 21.8552 11.2807 19.5876 11.5949 16.0542C11.8253 13.4632 11.9069 11.0996 11.9078 11.076C11.914 10.8914 11.8178 10.7181 11.6573 10.6256ZM9.43461 22.2935C8.70994 23.547 7.3908 24.2486 6.03607 24.2486C5.53093 24.2486 5.02068 24.1507 4.53475 23.9478L4.95444 23.2217L8.33853 22.3162C8.60616 22.2446 8.76491 21.9699 8.6932 21.7028C8.62149 21.4355 8.34646 21.277 8.079 21.3486L5.66431 21.9947L6.14954 21.1554L8.52071 20.5209C8.78834 20.4493 8.94709 20.1746 8.87538 19.9075C8.80367 19.6402 8.52864 19.4817 8.26118 19.5533L6.85888 19.9286L7.31187 19.1451L9.24204 18.6286C9.50967 18.557 9.66842 18.2824 9.59671 18.0153C9.525 17.748 9.24996 17.5894 8.98251 17.6611L8.02086 17.9183L9.86099 14.7356C9.99948 14.4959 9.91737 14.1896 9.6774 14.0513C9.43743 13.913 9.13068 13.995 8.9922 14.2346L7.15189 17.4167L6.8943 16.4568C6.82259 16.1895 6.54755 16.031 6.2801 16.1026C6.01246 16.1742 5.85371 16.4489 5.92542 16.716L6.44272 18.6438L5.98973 19.4273L5.61392 18.0267C5.54221 17.7594 5.26718 17.6009 4.99954 17.6725C4.73191 17.7441 4.57316 18.0188 4.64487 18.2859L5.28021 20.6541L4.79498 21.4934L4.14801 19.0817C4.0763 18.8145 3.80127 18.6559 3.53381 18.7275C3.26618 18.7992 3.10743 19.0738 3.17914 19.3409L4.08564 22.7198L3.66543 23.4469C2.97828 22.9254 2.48601 22.1958 2.25907 21.3497C1.98827 20.3404 2.12728 19.2864 2.65039 18.3814C3.49945 16.9127 8.29713 13.6425 10.8656 11.9942C10.7208 15.0402 10.2839 20.8244 9.43461 22.2935Z" fill="#FF8C42"/>
</svg>
