<svg width="43" height="40" viewBox="0 0 43 40" fill="none" xmlns="http://www.w3.org/2000/svg">
<g clip-path="url(#clip0_146_642)">
<path d="M7.84759 23.2277C8.08315 23.2277 8.27384 23.0391 8.27384 22.8068V13.3613C8.27384 12.0963 9.31578 11.0674 10.5967 11.0674H26.0759C27.3566 11.0674 28.3988 12.0963 28.3988 13.3613V24.6385C28.3988 24.8712 28.5898 25.0595 28.8251 25.0595C29.0603 25.0595 29.2513 24.8709 29.2513 24.6385V13.3613C29.2513 11.6323 27.8267 10.2255 26.0759 10.2255H10.5967C8.84591 10.2255 7.42134 11.6323 7.42134 13.3613V22.8064C7.42134 23.0391 7.61203 23.2277 7.84759 23.2277Z" fill="#FF8C42"/>
<path d="M24.2607 38.2094H18.3362C18.1006 38.2094 17.9099 38.3981 17.9099 38.6304C17.9099 38.863 18.1009 39.0513 18.3362 39.0513H24.2607C24.4962 39.0513 24.6869 38.8627 24.6869 38.6304C24.6869 38.3981 24.4962 38.2094 24.2607 38.2094Z" fill="#FF8C42"/>
<path d="M11.3155 8.97926H25.3568C26.175 8.97926 26.8406 8.322 26.8406 7.51395V3.75498C26.8406 2.94694 26.175 2.28967 25.3568 2.28967H11.3155C10.4973 2.28967 9.83177 2.94694 9.83177 3.75498V7.51395C9.83208 8.322 10.4976 8.97926 11.3155 8.97926ZM10.6846 3.75498C10.6846 3.41127 10.9678 3.13187 11.3155 3.13187H25.3568C25.7049 3.13187 25.9878 3.41127 25.9878 3.75498V7.51395C25.9878 7.85766 25.7049 8.13706 25.3568 8.13706H11.3155C10.9675 8.13706 10.6846 7.85766 10.6846 7.51395V3.75498Z" fill="#FF8C42"/>
<path d="M28.8251 25.9688C26.8138 25.9688 25.1773 27.5849 25.1773 29.5711V36.398C25.1773 38.3842 26.8138 40.0003 28.8251 40.0003C30.8363 40.0003 32.4728 38.3842 32.4728 36.398V29.5708C32.4725 27.5846 30.8363 25.9688 28.8251 25.9688ZM31.62 36.3976C31.62 37.9196 30.3662 39.1578 28.8251 39.1578C27.284 39.1578 26.0301 37.9196 26.0301 36.3976V29.5708C26.0301 28.0489 27.284 26.8107 28.8251 26.8107C30.3662 26.8107 31.62 28.0489 31.62 29.5708V36.3976Z" fill="#FF8C42"/>
<path d="M26.9284 32.5633C26.6929 32.5633 26.5022 32.7519 26.5022 32.9842C26.5022 33.2166 26.6932 33.4052 26.9284 33.4052H30.6591C30.8946 33.4052 31.0853 33.2166 31.0853 32.9842C31.0853 32.7519 30.8943 32.5633 30.6591 32.5633H26.9284Z" fill="#FF8C42"/>
<path d="M41.964 21.1682L37.1379 16.2806C36.4577 15.5916 35.5466 15.2057 34.5723 15.1934C33.5992 15.1808 32.6775 15.5445 31.9799 16.2163C31.2822 16.888 30.8915 17.7877 30.879 18.7499C30.8669 19.7121 31.2346 20.6214 31.9148 21.3101L36.7409 26.1977C37.4211 26.8867 38.3322 27.2725 39.3065 27.2849C39.3224 27.2852 39.338 27.2852 39.3535 27.2852C40.3101 27.2852 41.2125 26.923 41.8989 26.262C42.5965 25.5903 42.9872 24.6906 42.9997 23.7284C43.0122 22.7665 42.6442 21.8572 41.964 21.1682ZM41.3037 25.6592C40.2004 26.7217 38.4275 26.6999 37.3513 25.61L32.5251 20.7223C32.0039 20.1946 31.7222 19.4977 31.7315 18.7607C31.7409 18.0234 32.0406 17.3339 32.575 16.8194C33.101 16.3129 33.7921 16.0353 34.5252 16.0353C34.5374 16.0353 34.5492 16.0353 34.5614 16.0356C35.3079 16.0449 36.0059 16.3406 36.5272 16.8686L41.3533 21.7562C41.8746 22.284 42.1562 22.9809 42.1469 23.7179C42.1379 24.4552 41.8384 25.1447 41.3037 25.6592Z" fill="#FF8C42"/>
<path d="M37.9548 19.6734L35.2839 22.2455C35.1154 22.408 35.1119 22.6745 35.2764 22.8409C35.3599 22.9255 35.4709 22.968 35.5818 22.968C35.689 22.968 35.7965 22.9283 35.8794 22.8483L38.5503 20.2762C38.7188 20.1137 38.7223 19.8472 38.5577 19.6808C38.3935 19.5143 38.1234 19.5109 37.9548 19.6734Z" fill="#FF8C42"/>
<path d="M33.8762 13.0139C34.3822 13.2527 34.9165 13.3656 35.4431 13.3656C36.8054 13.3656 38.1147 12.6093 38.74 11.3169L41.7206 5.1572C42.5878 3.3651 41.8169 1.21022 40.0022 0.353863C39.1233 -0.0609285 38.133 -0.112931 37.2145 0.207394C36.2959 0.528026 35.5584 1.18252 35.1384 2.05057L32.1578 8.21029C31.2906 10.0027 32.0615 12.1576 33.8762 13.0139ZM32.9271 8.57369L35.9077 2.41397C36.2296 1.74871 36.7945 1.24714 37.4983 1.00159C38.2022 0.756038 38.9609 0.795733 39.6346 1.1136C41.0252 1.76994 41.6156 3.4208 40.9513 4.7941L37.9707 10.9538C37.6488 11.6191 37.0839 12.1206 36.3801 12.3662C35.6762 12.6118 34.9175 12.5721 34.2438 12.2542C32.8535 11.5979 32.2628 9.94669 32.9271 8.57369Z" fill="#FF8C42"/>
<path d="M35.0443 6.25634L38.4104 7.84473C38.4696 7.87273 38.5322 7.88597 38.5939 7.88597C38.7531 7.88597 38.9058 7.79765 38.9787 7.64626C39.0803 7.4364 38.9902 7.185 38.7777 7.085L35.4117 5.49661C35.1992 5.39629 34.9446 5.48522 34.8433 5.69508C34.7421 5.90463 34.8321 6.15603 35.0443 6.25634Z" fill="#FF8C42"/>
<path d="M19.4526 27.0113C19.4507 26.8799 19.3868 26.7568 19.28 26.6787C19.1731 26.6005 19.0354 26.5762 18.9073 26.6128C18.8871 26.6187 16.8565 27.2039 14.6492 28.0544C14.0117 28.3 13.4247 28.5425 12.8872 28.7812C12.0562 27.3962 10.0505 25.6894 6.91346 23.6997C4.39772 22.104 2.0384 20.8987 2.01472 20.8867C1.89725 20.827 1.75859 20.8242 1.63894 20.8793C1.5193 20.9344 1.43236 21.0411 1.40339 21.1685C1.39715 21.1953 0.789875 23.8761 0.379517 26.927C-0.178532 31.078 -0.121512 33.9157 0.549331 35.3619C1.7427 37.934 4.32325 39.4538 7.01659 39.4538C8.00494 39.4538 9.00887 39.2489 9.9645 38.8165C9.98351 38.8079 10.001 38.7978 10.0178 38.787C10.0577 38.8178 10.0979 38.8482 10.1387 38.8781C11.0943 39.5763 12.2266 39.9431 13.3938 39.9431C13.6671 39.9431 13.9422 39.9231 14.2173 39.8825C15.6681 39.6683 16.9477 38.9089 17.8205 37.7445C18.5593 36.7586 19.0572 34.6425 19.3008 31.4546C19.4797 29.1209 19.4529 27.0322 19.4526 27.0113ZM1.32487 35.0108C0.730674 33.7301 0.695776 30.9752 1.22422 27.0436C1.52085 24.8352 1.92249 22.8225 2.11816 21.8938C2.93389 22.3274 4.65166 23.2659 6.45262 24.4081C9.39368 26.2737 11.3345 27.8987 12.1113 29.14C10.5409 29.8988 9.49494 30.6192 8.99111 31.2915C8.4692 31.9882 8.14204 32.7688 7.99933 33.5695L3.85774 24.6426C3.75959 24.4312 3.50659 24.3382 3.29253 24.4352C3.07847 24.5321 2.98437 24.7819 3.08252 24.9933L8.00214 35.5958C8.01304 35.6195 8.02613 35.6413 8.04077 35.6619C8.2405 36.5777 8.6789 37.4454 9.34071 38.1645C6.26692 39.3889 2.71952 38.0165 1.32487 35.0108ZM17.1356 37.2432C16.3984 38.227 15.3175 38.8686 14.0921 39.0492C13.0081 39.2092 11.9259 38.9916 11.0008 38.4359L17.5806 29.6545C17.7205 29.4677 17.6806 29.204 17.4915 29.0656C17.3023 28.9274 17.0353 28.9668 16.8951 29.1536L10.3153 37.935C9.50647 37.2242 8.97958 36.2656 8.81756 35.1951C8.63434 33.9846 8.93939 32.7762 9.6766 31.7925C10.8759 30.1921 16.0962 28.3461 18.6026 27.5821C18.596 30.173 18.3349 35.6425 17.1356 37.2432Z" fill="#FF8C42"/>
</g>
<defs>
<clipPath id="clip0_146_642">
<rect width="43" height="40" fill="white"/>
</clipPath>
</defs>
</svg>
