<svg width="45" height="39" viewBox="0 0 45 39" fill="none" xmlns="http://www.w3.org/2000/svg">
<g clip-path="url(#clip0_146_697)">
<path d="M4.06268 11.3525C2.08814 12.0282 0.8193 13.0068 0.291739 14.2609C-0.218033 15.4726 -0.0607306 16.9119 0.772541 18.6611L0.825907 18.7731L0.826382 18.7741C2.04478 21.3311 2.41266 22.1031 2.47009 25.7651C2.49448 27.3211 2.96919 28.4019 3.88098 28.9772C5.4009 29.9366 7.70682 29.2291 9.37336 28.4664C9.73792 28.2997 10.1043 28.1288 10.4721 27.9573L10.5339 27.9285L10.5342 27.9283C14.0578 26.2844 17.7011 24.5847 21.4201 25.4767C24.2216 26.1075 26.2513 28.3053 28.2142 30.4308L28.2156 30.4323C28.5389 30.7825 28.8733 31.1447 29.2052 31.4931C31.3907 33.7881 32.7797 33.9019 35.9092 33.6292C35.9428 33.6264 35.9761 33.6241 36.0091 33.6226C35.4104 34.6025 34.9944 35.5933 34.9207 36.5267C34.8323 37.6474 35.4104 38.2637 35.9811 38.4665C36.1585 38.5295 36.3417 38.56 36.5262 38.56C37.159 38.56 37.8012 38.2009 38.2388 37.5669C38.9364 36.5306 39.0118 35.2236 38.4306 34.2379C38.1242 33.7179 37.6667 33.34 37.1211 33.1352C38.0863 31.7922 39.3409 30.4898 40.4026 29.4486C43.6326 26.28 45.2928 22.4869 44.9573 19.0415C44.6945 16.3442 43.2681 14.0716 40.8321 12.4696C38.2038 10.7412 37.3091 8.68513 36.2735 6.30483L36.2731 6.30405L36.2727 6.30299C35.8314 5.28886 35.3751 4.24017 34.7514 3.11555C33.9975 1.75701 32.9489 1.01522 31.9485 1.13593C31.4028 1.20098 30.4102 1.58954 29.8918 3.46421C29.6026 4.51019 28.7999 5.67229 27.4952 5.51143C26.4327 5.37929 25.9298 4.46546 25.9123 3.67234C25.8736 1.9232 25.2556 0.696549 24.1723 0.218288C22.9131 -0.337989 21.2303 0.181694 19.5548 1.64316C17.6702 3.28691 16.1878 3.49288 14.8801 3.67457L14.8797 3.67463C13.0759 3.92494 11.5182 4.14145 9.72685 7.54163C8.50756 9.85594 7.16198 10.3088 4.71934 11.1304L4.71112 11.1331C4.502 11.2034 4.28618 11.276 4.06268 11.3525ZM37.8614 34.573C38.3137 35.3407 38.2469 36.371 37.6927 37.1943C37.2413 37.8482 36.619 37.9915 36.2025 37.8434C35.7621 37.6868 35.5293 37.2141 35.5796 36.5783C35.6513 35.6703 36.0983 34.6828 36.7346 33.7004C37.2101 33.8351 37.6027 34.1342 37.8614 34.573ZM10.3113 7.84963C11.9445 4.74958 13.2798 4.56409 14.97 4.32931L14.9704 4.32925C16.3699 4.1351 17.9559 3.91477 19.9894 2.14124C21.442 0.874436 22.9057 0.381435 23.9054 0.822594C24.7407 1.19133 25.219 2.20859 25.2518 3.68682C25.2808 4.99226 26.1697 6.01206 27.4139 6.16707C28.4924 6.30201 29.9541 5.71982 30.5289 3.64007C30.8367 2.52675 31.3688 1.87035 32.0265 1.79208C32.7428 1.70644 33.5639 2.33717 34.1736 3.436C34.7822 4.53306 35.2322 5.56734 35.6673 6.56757L35.6676 6.56825C36.7455 9.04542 37.6764 11.1849 40.469 13.0216C42.7325 14.51 44.0569 16.6139 44.2996 19.1053C44.6155 22.3507 43.0265 25.9486 39.9399 28.9765C38.8012 30.0936 37.4479 31.5045 36.432 32.9743C36.2442 32.955 36.0503 32.9538 35.8523 32.9708C32.8328 33.2333 31.688 33.1416 29.6842 31.0372C29.367 30.704 29.0457 30.3563 28.7341 30.0191L28.7015 29.9838C26.6695 27.7834 24.5684 25.5082 21.57 24.833C20.8028 24.649 20.0433 24.5672 19.2898 24.5672C16.1752 24.5672 13.1748 25.9669 10.2547 27.3295C9.86738 27.5102 9.48213 27.6898 9.0984 27.8654C6.95207 28.8474 5.22428 29.0436 4.23371 28.4187C3.52267 27.9699 3.15165 27.0738 3.13081 25.7552C3.07109 21.9489 2.6556 21.077 1.42234 18.4893L1.36897 18.3772C0.621592 16.8077 0.468355 15.5453 0.900874 14.5171C1.3522 13.4442 2.48788 12.5898 4.27666 11.9776C4.4833 11.9069 4.68351 11.8395 4.87771 11.7741L4.92975 11.7565C7.36197 10.9385 8.9688 10.398 10.3113 7.84963Z" fill="#FF8C42"/>
<path d="M4.06268 11.3525C2.08814 12.0282 0.8193 13.0068 0.291739 14.2609C-0.218033 15.4726 -0.0607306 16.9119 0.772541 18.6611L0.825907 18.7731L0.826382 18.7741C2.04478 21.3311 2.41266 22.1031 2.47009 25.7651C2.49448 27.3211 2.96919 28.4019 3.88098 28.9772C5.4009 29.9366 7.70682 29.2291 9.37336 28.4664C9.73792 28.2997 10.1043 28.1288 10.4721 27.9573L10.5339 27.9285L10.5342 27.9283C14.0578 26.2844 17.7011 24.5847 21.4201 25.4767C24.2216 26.1075 26.2513 28.3053 28.2142 30.4308L28.2156 30.4323C28.5389 30.7825 28.8733 31.1447 29.2052 31.4931C31.3907 33.7881 32.7797 33.9019 35.9092 33.6292C35.9428 33.6264 35.9761 33.6241 36.0091 33.6226C35.4104 34.6025 34.9944 35.5933 34.9207 36.5267C34.8323 37.6474 35.4104 38.2637 35.9811 38.4665C36.1585 38.5295 36.3417 38.56 36.5262 38.56C37.159 38.56 37.8012 38.2009 38.2388 37.5669C38.9364 36.5306 39.0118 35.2236 38.4306 34.2379C38.1242 33.7179 37.6667 33.34 37.1211 33.1352C38.0863 31.7922 39.3409 30.4898 40.4026 29.4486C43.6326 26.28 45.2928 22.4869 44.9573 19.0415C44.6945 16.3442 43.2681 14.0716 40.8321 12.4696C38.2038 10.7412 37.3091 8.68513 36.2735 6.30483L36.2731 6.30405L36.2727 6.30299C35.8314 5.28886 35.3751 4.24017 34.7514 3.11555C33.9975 1.75701 32.9489 1.01522 31.9485 1.13593C31.4028 1.20098 30.4102 1.58954 29.8918 3.46421C29.6026 4.51019 28.7999 5.67229 27.4952 5.51143C26.4327 5.37929 25.9298 4.46546 25.9123 3.67234C25.8736 1.9232 25.2556 0.696549 24.1723 0.218288C22.9131 -0.337989 21.2303 0.181694 19.5548 1.64316C17.6702 3.28691 16.1878 3.49288 14.8801 3.67457L14.8797 3.67463C13.0759 3.92494 11.5182 4.14145 9.72685 7.54163C8.50756 9.85594 7.16198 10.3088 4.71934 11.1304L4.71112 11.1331C4.502 11.2034 4.28618 11.276 4.06268 11.3525ZM37.8614 34.573C38.3137 35.3407 38.2469 36.371 37.6927 37.1943C37.2413 37.8482 36.619 37.9915 36.2025 37.8434C35.7621 37.6868 35.5293 37.2141 35.5796 36.5783C35.6513 35.6703 36.0983 34.6828 36.7346 33.7004C37.2101 33.8351 37.6027 34.1342 37.8614 34.573ZM10.3113 7.84963C11.9445 4.74958 13.2798 4.56409 14.97 4.32931L14.9704 4.32925C16.3699 4.1351 17.9559 3.91477 19.9894 2.14124C21.442 0.874436 22.9057 0.381435 23.9054 0.822594C24.7407 1.19133 25.219 2.20859 25.2518 3.68682C25.2808 4.99226 26.1697 6.01206 27.4139 6.16707C28.4924 6.30201 29.9541 5.71982 30.5289 3.64007C30.8367 2.52675 31.3688 1.87035 32.0265 1.79208C32.7428 1.70644 33.5639 2.33717 34.1736 3.436C34.7822 4.53306 35.2322 5.56734 35.6673 6.56757L35.6676 6.56825C36.7455 9.04542 37.6764 11.1849 40.469 13.0216C42.7325 14.51 44.0569 16.6139 44.2996 19.1053C44.6155 22.3507 43.0265 25.9486 39.9399 28.9765C38.8012 30.0936 37.4479 31.5045 36.432 32.9743C36.2442 32.955 36.0503 32.9538 35.8523 32.9708C32.8328 33.2333 31.688 33.1416 29.6842 31.0372C29.367 30.704 29.0457 30.3563 28.7341 30.0191L28.7015 29.9838C26.6695 27.7834 24.5684 25.5082 21.57 24.833C20.8028 24.649 20.0433 24.5672 19.2898 24.5672C16.1752 24.5672 13.1748 25.9669 10.2547 27.3295C9.86738 27.5102 9.48213 27.6898 9.0984 27.8654C6.95207 28.8474 5.22428 29.0436 4.23371 28.4187C3.52267 27.9699 3.15165 27.0738 3.13081 25.7552C3.07109 21.9489 2.6556 21.077 1.42234 18.4893L1.36897 18.3772C0.621592 16.8077 0.468355 15.5453 0.900874 14.5171C1.3522 13.4442 2.48788 12.5898 4.27666 11.9776C4.4833 11.9069 4.68351 11.8395 4.87771 11.7741L4.92975 11.7565C7.36197 10.9385 8.9688 10.398 10.3113 7.84963Z" stroke="#FF8C42"/>
</g>
<defs>
<clipPath id="clip0_146_697">
<rect width="45" height="38.5597" rx="8" fill="white"/>
</clipPath>
</defs>
</svg>
