<svg width="280" height="549" viewBox="0 0 280 549" fill="none" xmlns="http://www.w3.org/2000/svg">
<g clip-path="url(#clip0_98_4734)">
<path d="M127.31 339.385C132.759 354.901 131.085 372.947 135.275 388.878C136.534 393.497 138.207 396.844 138.207 401.463C137.792 406.496 136.949 411.53 136.106 416.564C134.847 425.788 132.746 435.44 129.814 444.664C124.366 463.125 115.558 480.743 112.614 499.62C111.771 505.496 111.356 506.327 117.647 508.013C122.265 509.272 127.298 510.53 131.903 510.115C137.351 509.7 141.126 508.013 142.384 503.407C143.643 499.217 142.384 493.755 143.643 489.565C144.058 488.722 144.058 487.463 144.486 486.205C154.967 497.531 150.362 474.879 149.934 470.261C148.676 461.452 148.676 452.643 149.519 443.834C150.777 434.182 152.878 424.542 155.81 415.305C158.327 406.496 164.203 397.687 166.291 388.878C168.393 379.226 166.707 368.328 168.808 358.261C170.909 350.71 176.357 342.745 176.357 334.766L127.31 339.385Z" fill="#FDF9F3" stroke="#6F5138" stroke-miterlimit="10" stroke-linecap="round" stroke-linejoin="round"/>
<path d="M116.817 487.879C120.591 486.62 122.693 487.879 124.781 491.239C126.455 486.205 136.949 485.362 139.88 489.565" fill="#FDF9F3"/>
<path d="M116.817 487.879C120.591 486.62 122.693 487.879 124.781 491.239C126.455 486.205 136.949 485.362 139.88 489.565" stroke="#6F5138" stroke-miterlimit="10" stroke-linecap="round" stroke-linejoin="round"/>
<path d="M121.019 509.272C122.277 503.395 123.951 496.688 125.209 490.396L121.019 509.272Z" fill="#FDF9F3"/>
<path d="M121.019 509.272C122.277 503.395 123.951 496.688 125.209 490.396" stroke="#6F5138" stroke-miterlimit="10" stroke-linecap="round" stroke-linejoin="round"/>
<path d="M218.32 333.092C218.735 337.71 219.578 342.316 219.163 346.935C217.905 355.744 211.198 361.62 211.614 371.26C212.029 375.451 213.715 379.226 213.715 383.429C213.715 387.632 211.614 391.395 210.783 395.598C209.525 404.822 210.368 413.216 214.973 421.182C224.624 439.215 219.163 458.091 216.647 477.395C216.232 483.272 214.13 500.89 217.905 505.496C222.095 510.53 238.037 508.428 243.07 508.428C247.26 508.428 251.878 508.843 253.136 504.653C253.979 501.721 251.035 495.001 250.62 491.653C250.204 487.463 250.204 482.844 248.946 479.069C248.103 474.035 244.756 470.675 242.655 466.485C238.88 458.091 238.465 448.024 238.037 439.215C237.622 429.991 235.936 419.08 239.295 410.271C240.969 406.081 243.913 402.305 244.744 397.272C245.159 393.081 244.328 388.878 244.328 384.687C244.328 375.878 249.777 366.654 251.878 357.845C253.979 348.621 253.551 338.969 255.237 329.745C256.496 320.52 259.855 312.127 262.372 303.318C264.888 293.666 267.405 284.026 268.663 274.374C269.078 268.925 269.506 264.722 268.248 259.688C266.99 253.811 264.888 244.172 260.283 240.396" fill="#FDF9F3"/>
<path d="M218.32 333.092C218.735 337.71 219.578 342.316 219.163 346.935C217.905 355.744 211.198 361.62 211.614 371.26C212.029 375.451 213.715 379.226 213.715 383.429C213.715 387.632 211.614 391.395 210.783 395.598C209.525 404.822 210.368 413.216 214.973 421.182C224.624 439.215 219.163 458.091 216.647 477.395C216.232 483.272 214.13 500.89 217.905 505.496C222.095 510.53 238.037 508.428 243.07 508.428C247.26 508.428 251.878 508.843 253.136 504.653C253.979 501.721 251.035 495.001 250.62 491.653C250.204 487.463 250.204 482.844 248.946 479.069C248.103 474.035 244.756 470.675 242.655 466.485C238.88 458.091 238.465 448.024 238.037 439.215C237.622 429.991 235.936 419.08 239.295 410.271C240.969 406.081 243.913 402.305 244.744 397.272C245.159 393.081 244.328 388.878 244.328 384.687C244.328 375.878 249.777 366.654 251.878 357.845C253.979 348.621 253.551 338.969 255.237 329.745C256.496 320.52 259.855 312.127 262.372 303.318C264.888 293.666 267.405 284.026 268.663 274.374C269.078 268.925 269.506 264.722 268.248 259.688C266.99 253.811 264.888 244.172 260.283 240.396" stroke="#6F5138" stroke-miterlimit="10" stroke-linecap="round" stroke-linejoin="round"/>
<path d="M218.534 494.586C221.051 491.024 226.298 490.395 230.488 491.024C232.375 491.44 233.847 492.283 235.521 493.126C238.037 494.17 237.622 493.969 239.509 492.497C241.812 490.823 245.587 488.935 248.317 491.238" fill="#FFFFFD"/>
<path d="M218.534 494.586C221.051 491.024 226.298 490.395 230.488 491.024C232.375 491.44 233.847 492.283 235.521 493.126C238.037 494.17 237.622 493.969 239.509 492.497C241.812 490.823 245.587 488.935 248.317 491.238" stroke="#6F5138" stroke-miterlimit="10" stroke-linecap="round" stroke-linejoin="round"/>
<path d="M240.088 508.063C239.044 503.445 238.452 498.361 237.609 494.17L240.088 508.063Z" fill="#FFFFFD"/>
<path d="M240.088 508.063C239.044 503.445 238.452 498.361 237.609 494.17" stroke="#6F5138" stroke-miterlimit="10" stroke-linecap="round" stroke-linejoin="round"/>
<path d="M240.239 381.328C239.925 389.507 232.375 392.339 225.455 392.339" stroke="#6F5138" stroke-miterlimit="10" stroke-linecap="round" stroke-linejoin="round"/>
<path d="M236.15 389.822C237.093 397.058 232.375 407.125 223.567 406.496" stroke="#6F5138" stroke-miterlimit="10" stroke-linecap="round" stroke-linejoin="round"/>
<path d="M273.268 187.958C272.853 177.048 274.942 165.722 274.527 154.396C273.684 134.261 252.721 125.868 235.521 124.609C229.229 124.194 222.938 124.194 217.49 125.868" fill="#FDF9F3"/>
<path d="M273.268 187.958C272.853 177.048 274.942 165.722 274.527 154.396C273.684 134.261 252.721 125.868 235.521 124.609C229.229 124.194 222.938 124.194 217.49 125.868" stroke="#6F5138" stroke-miterlimit="10" stroke-linecap="round" stroke-linejoin="round"/>
<path d="M261.516 153.981C269.481 170.34 275.357 187.115 277.874 205.161C279.547 218.16 279.975 230.745 278.289 243.757C277.031 254.667 273.671 264.735 270.739 275.633C268.223 285.285 265.291 294.924 259.83 303.733C253.539 313.801 244.316 320.936 235.923 329.317C227.531 337.711 219.151 345.676 207.826 349.452C197.345 352.812 183.504 352.812 172.595 351.969C150.79 350.295 122.265 347.35 103.391 335.194C96.6845 330.575 92.4819 324.711 87.4489 319.25C83.6741 314.631 78.6411 310.856 74.8663 306.665C68.1598 299.115 64.385 289.047 61.0255 279.823C53.0607 258.015 55.9925 229.901 63.9572 208.936C67.732 198.869 71.922 188.801 76.1246 179.149C81.1576 166.98 87.4489 152.307 96.2567 142.24C111.771 125.465 131.903 120.846 153.294 117.914C173.01 115.397 193.558 114.152 212.847 116.668C219.981 117.512 226.423 118.191 232.828 120.834C246.014 126.27 251.022 134.702 251.022 134.702" fill="#FDF9F3"/>
<path d="M261.516 153.981C269.481 170.34 275.357 187.115 277.874 205.161C279.547 218.16 279.975 230.745 278.289 243.757C277.031 254.667 273.671 264.735 270.739 275.633C268.223 285.285 265.291 294.924 259.83 303.733C253.539 313.801 244.316 320.936 235.923 329.317C227.531 337.711 219.151 345.676 207.826 349.452C197.345 352.812 183.504 352.812 172.595 351.969C150.79 350.295 122.265 347.35 103.391 335.194C96.6845 330.575 92.4819 324.711 87.4489 319.25C83.6741 314.631 78.6411 310.856 74.8663 306.665C68.1598 299.115 64.385 289.047 61.0255 279.823C53.0607 258.015 55.9925 229.901 63.9572 208.936C67.732 198.869 71.922 188.801 76.1246 179.149C81.1576 166.98 87.4489 152.307 96.2567 142.24C111.771 125.465 131.903 120.846 153.294 117.914C173.01 115.397 193.558 114.152 212.847 116.668C219.981 117.512 226.423 118.191 232.828 120.834C246.014 126.27 251.022 134.702 251.022 134.702" stroke="#6F5138" stroke-miterlimit="10" stroke-linecap="round" stroke-linejoin="round"/>
<path d="M56.9739 239.969C53.6143 251.295 53.9163 264.294 56.005 275.62C60.195 294.912 66.4863 312.957 68.5876 332.664C69.8459 343.575 72.3624 353.642 75.7219 364.125C78.6537 374.192 84.5297 383.001 88.3045 392.653C91.2362 400.619 92.4945 408.598 92.9223 416.979C93.7653 425.788 87.8893 433.753 89.9906 442.147C92.0919 451.799 99.6414 455.99 98.7984 466.472C98.3831 470.663 97.9553 474.866 97.9553 479.057C97.9553 484.506 97.1123 485.349 94.5958 489.967C92.9223 493.742 92.4945 497.518 92.4945 502.136C92.4945 507.585 91.6515 508.844 87.8767 513.047C83.2589 519.339 78.2259 529.406 76.9676 536.957C89.1349 540.732 101.718 544.923 114.3 540.732C126.04 536.957 122.693 532.338 123.108 521.856C133.174 521.856 125.624 510.945 125.624 503.822C125.624 494.17 122.693 485.789 121.85 476.137C121.434 471.519 121.007 466.485 121.007 461.451C121.007 456.002 123.938 454.316 126.04 449.282C129.399 441.317 127.713 429.148 125.197 420.754C116.389 388.878 125.197 356.159 125.197 324.271C125.197 323.427 125.197 320.495 125.197 318.822" fill="#FDF9F3"/>
<path d="M56.9739 239.969C53.6143 251.295 53.9163 264.294 56.005 275.62C60.195 294.912 66.4863 312.957 68.5876 332.664C69.8459 343.575 72.3624 353.642 75.7219 364.125C78.6537 374.192 84.5297 383.001 88.3045 392.653C91.2362 400.619 92.4945 408.598 92.9223 416.979C93.7653 425.788 87.8893 433.753 89.9906 442.147C92.0919 451.799 99.6414 455.99 98.7984 466.472C98.3831 470.663 97.9553 474.866 97.9553 479.057C97.9553 484.506 97.1123 485.349 94.5958 489.967C92.9223 493.742 92.4945 497.518 92.4945 502.136C92.4945 507.585 91.6515 508.844 87.8767 513.047C83.2589 519.339 78.2259 529.406 76.9676 536.957C89.1349 540.732 101.718 544.923 114.3 540.732C126.04 536.957 122.693 532.338 123.108 521.856C133.174 521.856 125.624 510.945 125.624 503.822C125.624 494.17 122.693 485.789 121.85 476.137C121.434 471.519 121.007 466.485 121.007 461.451C121.007 456.002 123.938 454.316 126.04 449.282C129.399 441.317 127.713 429.148 125.197 420.754C116.389 388.878 125.197 356.159 125.197 324.271C125.197 323.427 125.197 320.495 125.197 318.822" stroke="#6F5138" stroke-miterlimit="10" stroke-linecap="round" stroke-linejoin="round"/>
<path d="M91.8276 512.82C95.4388 510.945 99.5911 513.89 101.869 516.306C103.605 513.764 108.965 513.5 111.645 513.5C115.395 513.5 118.603 514.444 121.422 516.847" fill="#FFFFFD"/>
<path d="M91.8276 512.82C95.4388 510.945 99.5911 513.89 101.869 516.306C103.605 513.764 108.965 513.5 111.645 513.5C115.395 513.5 118.603 514.444 121.422 516.847" stroke="#6F5138" stroke-miterlimit="10" stroke-linecap="round" stroke-linejoin="round"/>
<path d="M91.8276 541.21C93.1614 539.197 93.564 535.849 94.5077 533.446C96.1183 529.696 97.9931 525.14 100.535 521.931" fill="#FFFFFD"/>
<path d="M91.8276 541.21C93.1614 539.197 93.564 535.849 94.5077 533.446C96.1183 529.696 97.9931 525.14 100.535 521.931" stroke="#6F5138" stroke-miterlimit="10" stroke-linecap="round" stroke-linejoin="round"/>
<path d="M98.3705 429.777C101.73 428.934 104.448 427.474 107.807 427.26C110.953 427.046 117.874 427.675 120.176 430.406" stroke="#6F5138" stroke-miterlimit="10" stroke-linecap="round" stroke-linejoin="round"/>
<path d="M120.591 433.766C115.974 435.44 112.199 436.497 107.166 436.497C104.435 436.497 101.919 436.497 99.4023 435.868C97.0997 435.452 94.5832 434.609 94.5832 437.755C94.5832 444.047 104.649 443.834 108.839 443.834C111.985 443.834 120.164 442.16 120.793 438.171" stroke="#6F5138" stroke-miterlimit="10" stroke-linecap="round" stroke-linejoin="round"/>
<path d="M123.536 439.014C123.12 443.003 118.918 446.778 115.357 448.238C109.066 451.17 101.101 451.598 96.2693 446.136" stroke="#6F5138" stroke-miterlimit="10" stroke-linecap="round" stroke-linejoin="round"/>
<path d="M227.543 276.048C217.892 295.767 212.859 320.936 209.512 342.329C206.153 363.722 199.862 382.599 192.74 402.733C189.808 410.699 188.965 419.508 188.55 427.902C188.135 436.296 190.223 445.935 187.292 453.913C183.932 463.566 182.259 470.273 182.674 480.756C182.674 485.374 182.674 489.565 184.347 493.755C185.606 497.946 188.122 501.721 188.537 505.924C188.953 509.699 188.122 513.059 188.122 516.407C188.122 521.44 189.796 522.284 191.482 526.474C193.998 532.766 193.155 540.317 193.998 547.024C187.292 547.44 181 548.698 173.866 548.283C166.732 547.867 160.868 544.092 153.734 543.249C152.891 534.44 157.093 525.631 155.407 517.237C154.992 513.047 153.306 508.013 153.306 503.81C153.306 498.361 157.496 495.416 159.182 490.383C162.114 482.417 161.699 471.922 160.856 463.54C160.013 454.316 153.721 447.596 154.149 437.957C154.564 428.732 159.182 421.182 159.182 411.53C159.182 402.305 157.509 393.912 156.25 385.103C153.734 367.485 154.992 349.867 154.149 332.249C153.734 325.542 152.048 319.665 150.374 313.373C149.116 307.081 149.959 298.272 146.184 293.238" fill="#FDF9F3"/>
<path d="M227.543 276.048C217.892 295.767 212.859 320.936 209.512 342.329C206.153 363.722 199.862 382.599 192.74 402.733C189.808 410.699 188.965 419.508 188.55 427.902C188.135 436.296 190.223 445.935 187.292 453.913C183.932 463.566 182.259 470.273 182.674 480.756C182.674 485.374 182.674 489.565 184.347 493.755C185.606 497.946 188.122 501.721 188.537 505.924C188.953 509.699 188.122 513.059 188.122 516.407C188.122 521.44 189.796 522.284 191.482 526.474C193.998 532.766 193.155 540.317 193.998 547.024C187.292 547.44 181 548.698 173.866 548.283C166.732 547.867 160.868 544.092 153.734 543.249C152.891 534.44 157.093 525.631 155.407 517.237C154.992 513.047 153.306 508.013 153.306 503.81C153.306 498.361 157.496 495.416 159.182 490.383C162.114 482.417 161.699 471.922 160.856 463.54C160.013 454.316 153.721 447.596 154.149 437.957C154.564 428.732 159.182 421.182 159.182 411.53C159.182 402.305 157.509 393.912 156.25 385.103C153.734 367.485 154.992 349.867 154.149 332.249C153.734 325.542 152.048 319.665 150.374 313.373C149.116 307.081 149.959 298.272 146.184 293.238" stroke="#6F5138" stroke-miterlimit="10" stroke-linecap="round" stroke-linejoin="round"/>
<path d="M185.392 443.834C182.875 448.452 180.145 450.755 174.696 451.17C169.248 451.585 161.271 448.867 160.44 442.575" stroke="#6F5138" stroke-miterlimit="10" stroke-linecap="round" stroke-linejoin="round"/>
<path d="M164.63 442.361C167.361 444.249 169.663 445.922 173.023 446.136C176.382 446.35 182.246 444.035 182.674 440.259C178.484 439.63 175.124 438.158 171.136 438.158C168.405 438.158 164.63 437.315 162.114 438.372" stroke="#6F5138" stroke-miterlimit="10" stroke-linecap="round" stroke-linejoin="round"/>
<path d="M162.328 434.609C169.877 432.306 178.056 432.092 184.347 437.969" stroke="#6F5138" stroke-miterlimit="10" stroke-linecap="round" stroke-linejoin="round"/>
<path d="M160.227 520.597C161.07 519.339 163.372 518.081 165.046 517.451C169.236 516.407 171.337 518.081 174.898 519.339C175.313 517.451 178.673 516.193 180.56 516.193C183.919 515.979 186.222 518.496 188.525 520.383" fill="#FFFFFD"/>
<path d="M160.227 520.597C161.07 519.339 163.372 518.081 165.046 517.451C169.236 516.407 171.337 518.081 174.898 519.339C175.313 517.451 178.673 516.193 180.56 516.193C183.919 515.979 186.222 518.496 188.525 520.383" stroke="#6F5138" stroke-miterlimit="10" stroke-linecap="round" stroke-linejoin="round"/>
<path d="M175.539 548.283C176.169 547.238 175.955 542.62 175.955 540.732C175.741 535.912 174.696 531.08 174.281 526.26" fill="#FFFFFD"/>
<path d="M175.539 548.283C176.169 547.238 175.955 542.62 175.955 540.732C175.741 535.912 174.696 531.08 174.281 526.26" stroke="#6F5138" stroke-miterlimit="10" stroke-linecap="round" stroke-linejoin="round"/>
<path d="M74.8789 291.149C74.4637 293.251 81.5854 301.216 82.4284 304.149C87.0462 314.631 89.978 325.542 92.9097 336.452C95.4262 346.52 99.6162 363.295 108.424 369.587C113.042 372.519 116.389 372.519 121.422 372.103C123.523 372.103 126.04 371.688 127.713 371.688C131.073 372.103 132.331 374.205 135.263 375.048C145.329 378.823 151.62 370.014 155.81 362.464C161.258 352.397 167.134 347.363 175.527 339.812C183.919 332.262 191.041 320.936 194.401 310.025C197.76 297.856 204.052 285.272 206.568 272.688" fill="#FDF9F3"/>
<path d="M74.8789 291.149C74.4637 293.251 81.5854 301.216 82.4284 304.149C87.0462 314.631 89.978 325.542 92.9097 336.452C95.4262 346.52 99.6162 363.295 108.424 369.587C113.042 372.519 116.389 372.519 121.422 372.103C123.523 372.103 126.04 371.688 127.713 371.688C131.073 372.103 132.331 374.205 135.263 375.048C145.329 378.823 151.62 370.014 155.81 362.464C161.258 352.397 167.134 347.363 175.527 339.812C183.919 332.262 191.041 320.936 194.401 310.025C197.76 297.856 204.052 285.272 206.568 272.688" stroke="#6F5138" stroke-miterlimit="10" stroke-linecap="round" stroke-linejoin="round"/>
<path d="M88.3045 262.621C88.7197 255.07 84.9449 247.519 83.2715 240.384C80.3397 229.474 76.9802 218.991 76.1371 208.08C75.2941 197.598 74.0358 186.687 75.2941 176.205C76.1371 167.811 77.8106 159.845 78.6536 151.451C79.9119 134.249 81.5854 117.059 83.6867 99.856C84.9449 90.2039 85.3602 80.9797 91.2362 72.586C97.9427 63.3617 105.492 63.777 115.558 60.8449C124.366 58.328 132.331 52.8791 141.982 54.968C147.43 56.2265 149.531 60.8449 153.721 63.777C158.339 66.7091 161.686 65.4507 166.719 65.8786C177.628 67.137 180.56 74.2723 182.661 84.3397C185.178 94.407 188.952 104.474 192.312 114.542C199.446 135.935 203.221 158.587 206.996 181.238C208.669 191.721 211.614 202.216 212.029 213.114C212.444 224.44 214.545 237.024 208.669 247.092" fill="#FDF9F3"/>
<path d="M88.3045 262.621C88.7197 255.07 84.9449 247.519 83.2715 240.384C80.3397 229.474 76.9802 218.991 76.1371 208.08C75.2941 197.598 74.0358 186.687 75.2941 176.205C76.1371 167.811 77.8106 159.845 78.6536 151.451C79.9119 134.249 81.5854 117.059 83.6867 99.856C84.9449 90.2039 85.3602 80.9797 91.2362 72.586C97.9427 63.3617 105.492 63.777 115.558 60.8449C124.366 58.328 132.331 52.8791 141.982 54.968C147.43 56.2265 149.531 60.8449 153.721 63.777C158.339 66.7091 161.686 65.4507 166.719 65.8786C177.628 67.137 180.56 74.2723 182.661 84.3397C185.178 94.407 188.952 104.474 192.312 114.542C199.446 135.935 203.221 158.587 206.996 181.238C208.669 191.721 211.614 202.216 212.029 213.114C212.444 224.44 214.545 237.024 208.669 247.092" stroke="#6F5138" stroke-miterlimit="10" stroke-linecap="round" stroke-linejoin="round"/>
<path d="M135.275 362.451C120.591 371.676 118.075 326.372 118.075 320.508C118.075 310.441 117.66 299.958 115.558 289.891C112.627 276.048 106.751 263.464 102.561 249.621" fill="#FDF9F3"/>
<path d="M135.275 362.451C120.591 371.676 118.075 326.372 118.075 320.508C118.075 310.441 117.66 299.958 115.558 289.891C112.627 276.048 106.751 263.464 102.561 249.621" stroke="#6F5138" stroke-miterlimit="10" stroke-linecap="round" stroke-linejoin="round"/>
<path d="M271.154 33.688C268.323 24.5644 261.718 17.3284 254.797 11.9801C248.506 7.57566 240.327 4.4296 232.778 2.54197C229.947 1.59815 210.796 -1.06971 212.016 2.22736C212.545 3.64938 227.745 6.63184 227.745 6.63184C235.609 8.20487 244.416 12.924 250.708 18.5869C262.661 29.5981 265.178 47.216 252.91 59.4856C241.585 71.1261 217.679 68.2946 206.354 57.9126C199.748 51.9351 197.232 41.5531 189.997 36.834C183.391 32.4295 174.583 30.2273 166.719 28.6543C161.51 27.3581 153.168 27.8489 147.355 31.3725C136.257 37.8659 126.845 31.3725 126.845 31.3725C121.032 27.8489 112.69 27.3581 107.48 28.6543C99.6162 30.2273 90.8084 32.4295 84.2026 36.834C76.9676 41.5531 74.4511 51.9351 67.8452 57.9126C56.5209 68.2946 32.614 71.1261 21.2897 59.4856C9.02171 47.216 11.5382 29.5981 23.4917 18.5869C29.783 12.924 38.5908 8.20487 46.4549 6.63184C46.4549 6.63184 61.6546 3.64938 62.1831 2.22736C63.4036 -1.06971 44.2529 1.59815 41.4218 2.54197C33.8723 4.4296 25.6936 7.57566 19.4023 11.9801C12.4819 17.3284 5.87607 24.5644 3.04499 33.688C0.528473 41.5531 -0.41522 52.2497 2.10129 60.4295C7.33564 78.4501 20.2957 92.557 39.5344 94.0923C47.3986 94.7215 62.8122 92.5193 69.7326 88.4294C76.653 84.0249 79.1696 82.7665 86.4045 78.9912C98.6725 72.6991 106.851 67.6654 120.377 67.0362C121.724 67.0362 125.134 67.0991 128.33 66.8348V66.9355H147.342C150.06 67.0739 152.664 67.0362 153.809 67.0362C167.336 67.6654 175.514 72.6991 187.782 78.9912C195.017 82.7665 197.534 84.0249 204.454 88.4294C211.375 92.5193 226.788 94.7215 234.652 94.0923C253.174 92.6074 267.065 77.7454 272.086 60.4295C274.615 52.2497 273.671 41.5531 271.154 33.688Z" fill="#FDF9F3" stroke="#6F5138" stroke-miterlimit="10" stroke-linecap="round" stroke-linejoin="round"/>
<path d="M142.825 37.5767C140.522 47.0148 140.937 58.3407 152.048 62.3299L142.825 37.5767Z" fill="#FDF9F3"/>
<path d="M142.825 37.5767C140.522 47.0148 140.937 58.3407 152.048 62.3299" stroke="#6F5138" stroke-miterlimit="10" stroke-linecap="round" stroke-linejoin="round"/>
<path d="M131.287 37.5767C136.106 44.498 134.432 56.0377 127.298 60.4422L131.287 37.5767Z" fill="#FDF9F3"/>
<path d="M131.287 37.5767C136.106 44.498 134.432 56.0377 127.298 60.4422" stroke="#6F5138" stroke-miterlimit="10" stroke-linecap="round" stroke-linejoin="round"/>
<path d="M180.157 115.486C181.73 120.205 182.674 124.609 182.988 129.643C183.303 133.104 181.73 149.148 188.021 148.205C190.852 147.89 194.627 140.654 196.515 138.766C199.346 135.62 202.491 132.16 205.637 129.014C211.299 123.665 219.792 119.261 221.365 110.767C223.567 99.4407 210.67 89.6879 203.435 82.7666C195.256 74.5869 184.247 67.9801 172.293 68.2947C171.664 67.9801 172.293 67.6655 172.293 67.6655L180.157 115.486Z" fill="#FDF9F3" stroke="#6F5138" stroke-miterlimit="10" stroke-linecap="round" stroke-linejoin="round"/>
<path d="M171.085 71.5415C172.218 71.5415 172.96 72.1078 173.904 72.6741C176.156 73.9828 178.408 74.9267 180.673 76.248C185.933 79.2556 190.06 83.9496 194.954 87.5235C197.584 89.3985 199.648 91.8399 202.277 93.9163C204.718 95.7913 207.537 96.9239 209.978 98.799C214.86 102.373 214.483 108.187 211.287 112.893C208.657 116.845 205.838 120.972 202.076 123.98" stroke="#6F5138" stroke-miterlimit="10" stroke-linecap="round" stroke-linejoin="round"/>
<path d="M88.6191 81.1934C85.1589 80.8788 80.755 84.9687 78.2384 87.1709C72.5763 92.2046 72.8908 96.2945 65.0267 97.2383C55.9044 98.1821 45.5238 98.1821 36.7159 101.328C31.6829 103.216 26.9645 106.362 22.8751 109.508C21.6169 110.452 12.4945 116.115 12.1799 117.373C12.1799 117.373 12.1799 117.373 12.1799 117.688C20.044 119.89 26.9645 125.553 34.8286 128.699C42.0635 131.53 50.8713 135.306 58.7355 135.62C74.4637 136.249 88.6191 121.148 95.854 108.879" fill="#FDF9F3"/>
<path d="M88.6191 81.1934C85.1589 80.8788 80.755 84.9687 78.2384 87.1709C72.5763 92.2046 72.8908 96.2945 65.0267 97.2383C55.9044 98.1821 45.5237 98.1821 36.7159 101.328C31.6829 103.216 26.9645 106.362 22.8751 109.508C21.6169 110.452 12.4945 116.115 12.1799 117.373C12.1799 117.373 12.1799 117.373 12.1799 117.688C20.044 119.89 26.9645 125.553 34.8286 128.699C42.0635 131.53 50.8713 135.306 58.7355 135.62C74.4637 136.249 88.6191 121.148 95.854 108.879" stroke="#6F5138" stroke-miterlimit="10" stroke-linecap="round" stroke-linejoin="round"/>
<path d="M40.9059 104.235C48.6065 102.549 57.062 102.171 65.14 102.171C78.6662 102.171 82.4159 118.707 69.4558 124.345" stroke="#6F5138" stroke-miterlimit="10" stroke-linecap="round" stroke-linejoin="round"/>
<path d="M150.274 207.35C150.588 202.631 149.015 198.227 149.959 193.508C151.532 186.901 156.88 182.182 160.654 176.519C166.002 168.968 169.148 162.362 170.406 152.923C171.664 145.373 170.091 138.137 170.091 130.272C170.091 122.721 175.439 118.002 176.697 110.766C177.326 107.62 176.382 104.16 177.012 101.013C177.641 97.5528 180.157 94.7214 180.786 90.9461C182.045 84.3394 181.73 77.7326 177.326 72.3843C175.124 69.5529 172.922 66.7214 169.148 65.7776C166.316 65.1484 163.171 65.1484 160.025 64.2046C156.25 62.9462 153.419 61.3731 150.588 58.5417C147.443 55.3956 145.241 53.508 141.151 53.1934C134.545 52.5642 126.367 54.1372 120.39 57.5979C114.413 60.7439 108.437 62.317 101.516 64.2046C93.6521 66.4068 88.9336 72.3843 86.4171 79.9349C82.3278 93.4629 92.3938 105.733 90.1919 119.575C89.2482 126.497 87.0462 134.047 87.9899 140.968C88.9336 148.204 93.3375 153.238 96.4832 159.216C98.9997 164.249 101.202 170.227 102.145 175.575C104.662 186.586 107.807 196.654 110.953 207.665" fill="#FDF9F3"/>
<path d="M150.274 207.35C150.588 202.631 149.015 198.227 149.959 193.508C151.532 186.901 156.88 182.182 160.654 176.519C166.002 168.968 169.148 162.362 170.406 152.923C171.664 145.373 170.091 138.137 170.091 130.272C170.091 122.721 175.439 118.002 176.697 110.766C177.326 107.62 176.382 104.16 177.012 101.013C177.641 97.5528 180.157 94.7214 180.786 90.9461C182.045 84.3394 181.73 77.7326 177.326 72.3843C175.124 69.5529 172.922 66.7214 169.148 65.7776C166.316 65.1484 163.171 65.1484 160.025 64.2046C156.25 62.9462 153.419 61.3731 150.588 58.5417C147.443 55.3956 145.241 53.508 141.151 53.1934C134.545 52.5642 126.367 54.1372 120.39 57.5979C114.413 60.7439 108.437 62.317 101.516 64.2046C93.6521 66.4068 88.9336 72.3843 86.4171 79.9349C82.3278 93.4629 92.3938 105.733 90.1919 119.575C89.2482 126.497 87.0462 134.047 87.9899 140.968C88.9336 148.204 93.3375 153.238 96.4832 159.216C98.9997 164.249 101.202 170.227 102.145 175.575C104.662 186.586 107.807 196.654 110.953 207.665" stroke="#6F5138" stroke-miterlimit="10" stroke-linecap="round" stroke-linejoin="round"/>
<path d="M94.7468 86.8564C94.2686 88.4294 94.4322 90.7827 96.156 91.5755C99.6162 93.1485 104.02 88.1148 105.593 85.9126" fill="#FDF9F3"/>
<path d="M94.7468 86.8564C94.2686 88.4294 94.4322 90.7827 96.156 91.5755C99.6162 93.1485 104.02 88.1148 105.593 85.9126" stroke="#6F5138" stroke-miterlimit="10" stroke-linecap="round" stroke-linejoin="round"/>
<path d="M96.6342 83.0686C96.7852 84.1383 96.156 85.2079 96.6342 86.2776C97.2633 88.6812 99.1507 88.8196 101.189 87.6115C103.391 86.4034 105.115 83.1944 103.227 81.332C101.491 79.4569 97.8799 80.5266 96.9362 82.5401L96.6342 83.0686Z" fill="#6F5138"/>
<path d="M92.8594 78.6768C92.5448 80.0862 91.6011 82.6156 93.3375 83.2448C96.005 84.3523 97.5904 79.306 101.038 80.728C104.335 82.1374 106.222 85.1325 109.997 85.7617C114.086 86.3909 118.025 83.723 118.49 79.4696" fill="#FDF9F3"/>
<path d="M92.8594 78.6768C92.5448 80.0862 91.6011 82.6156 93.3375 83.2448C96.005 84.3523 97.5904 79.306 101.038 80.728C104.335 82.1374 106.222 85.1325 109.997 85.7617C114.086 86.3909 118.025 83.723 118.49 79.4696" stroke="#6F5138" stroke-miterlimit="10" stroke-linecap="round" stroke-linejoin="round"/>
<path d="M174.973 89.2472C175.275 90.858 174.873 93.186 173.061 93.7901C169.45 94.9856 165.612 89.5115 164.278 87.1582" fill="#FDF9F3"/>
<path d="M174.973 89.2472C175.275 90.858 174.873 93.186 173.061 93.7901C169.45 94.9856 165.612 89.5115 164.278 87.1582" stroke="#6F5138" stroke-miterlimit="10" stroke-linecap="round" stroke-linejoin="round"/>
<path d="M173.501 85.2836C173.224 86.3281 173.74 87.4607 173.161 88.48C172.281 90.8081 170.393 90.7326 168.481 89.3231C166.417 87.8885 165.046 84.516 167.122 82.8548C169.047 81.1811 172.52 82.6283 173.249 84.7173L173.501 85.2836Z" fill="#6F5138"/>
<path d="M177.729 81.3192C177.892 82.7664 178.559 85.3588 176.773 85.7992C173.992 86.6046 172.973 81.4325 169.374 82.477C165.939 83.534 163.75 86.3026 159.925 86.5291C155.785 86.7179 152.161 83.6347 152.148 79.3687" fill="#FDF9F3"/>
<path d="M177.729 81.3192C177.892 82.7664 178.559 85.3588 176.773 85.7992C173.992 86.6046 172.973 81.4325 169.374 82.477C165.939 83.534 163.75 86.3026 159.925 86.5291C155.785 86.7179 152.161 83.6347 152.148 79.3687" stroke="#6F5138" stroke-miterlimit="10" stroke-linecap="round" stroke-linejoin="round"/>
<path d="M146.184 155.604C145.706 157.806 145.555 160.638 146.335 162.84C148.072 167.559 153.407 171.334 151.846 176.997" stroke="#6F5138" stroke-miterlimit="10" stroke-linecap="round" stroke-linejoin="round"/>
<path d="M130.142 157.806C128.569 160.172 126.367 162.06 124.794 164.413C121.019 169.447 118.188 174.958 118.188 181.402" stroke="#6F5138" stroke-miterlimit="10" stroke-linecap="round" stroke-linejoin="round"/>
<path d="M124.945 138.301C124.467 148.217 136.118 150.105 143.341 150.734C150.89 151.363 160.013 144.92 157.962 136.262C156.854 131.707 150.563 128.561 146.323 127.768C140.51 126.824 134.055 127.29 128.707 130.134L124.945 138.301Z" fill="#FDF9F3" stroke="#6F5138" stroke-miterlimit="10" stroke-linecap="round" stroke-linejoin="round"/>
<path d="M140.359 133.028C133.212 133.267 126.48 135.985 120.856 141.283C118.817 143.171 117.559 145.688 114.25 145.21C111.884 144.895 110.626 142.064 109.846 140.025C108.739 136.728 109.217 130.436 110.16 127.126C112.677 117.688 114.715 106.513 123.85 101.48C131.4 97.3896 140.522 99.1137 148.701 99.1137C166.631 99.1137 168.355 122.709 169.94 135.759C170.255 138.125 170.418 144.253 168.053 145.826C165.058 147.563 160.818 142.366 159.396 140.478C157.194 137.332 154.212 135.444 150.739 134.337C147.229 133.368 143.756 132.915 140.359 133.028Z" fill="#FDF9F3" stroke="#6F5138" stroke-miterlimit="10" stroke-linecap="round" stroke-linejoin="round"/>
<path d="M122.73 112.566C127.248 112.78 133.451 116.857 129.185 121.463C126.354 124.446 121.485 121.778 119.912 118.946C117.257 114.177 119.585 112.428 122.73 112.566Z" fill="#6F5138"/>
<path d="M141.302 112.654C141.151 116.908 141.78 121.312 140.824 125.553" stroke="#6F5138" stroke-miterlimit="10" stroke-linecap="round" stroke-linejoin="round"/>
<path d="M124.316 129.014C120.856 130.423 116.766 127.277 115.357 124.295C114.413 122.256 114.413 119.89 114.25 117.524C114.25 116.417 114.099 115.007 114.25 113.9C114.564 112.012 115.986 110.603 116.615 108.715" stroke="#6F5138" stroke-miterlimit="10" stroke-linecap="round" stroke-linejoin="round"/>
<path d="M158.603 130.121C165.373 130.121 169.148 122.256 166.782 115.964" stroke="#6F5138" stroke-miterlimit="10" stroke-linecap="round" stroke-linejoin="round"/>
<path d="M154.527 123.137C154.841 123.313 155.219 123.451 155.634 123.539C159.736 124.32 163.611 118.405 162.542 114.705C161.598 111.245 156.099 114.076 154.363 115.649C152.262 117.549 152.048 121.727 154.527 123.137Z" fill="#6F5138"/>
<path d="M154.149 92.5195C152.677 89.3735 151.846 86.6427 149.959 83.7106C147.858 79.9353 146.813 75.5308 142.623 73.8571C138.433 72.5987 131.714 72.5987 128.997 76.374C125.008 81.8229 122.491 87.6998 119.975 93.9919" fill="#FDF9F3"/>
<path d="M154.149 92.5195C152.677 89.3735 151.846 86.6427 149.959 83.7106C147.858 79.9353 146.813 75.5308 142.623 73.8571C138.433 72.5987 131.714 72.5987 128.997 76.374C125.008 81.8229 122.491 87.6998 119.975 93.9919" stroke="#6F5138" stroke-miterlimit="10" stroke-linecap="round" stroke-linejoin="round"/>
<path d="M128.77 69.2385C128.77 66.7217 132.759 63.5756 134.847 62.7325C139.667 61.0587 145.958 64.834 146.587 70.0691" fill="#FDF9F3"/>
<path d="M128.77 69.2385C128.77 66.7217 132.759 63.5756 134.847 62.7325C139.667 61.0587 145.958 64.834 146.587 70.0691" stroke="#6F5138" stroke-miterlimit="10" stroke-linecap="round" stroke-linejoin="round"/>
</g>
<defs>
<clipPath id="clip0_98_4734">
<rect width="280" height="549" fill="white"/>
</clipPath>
</defs>
</svg>
