<svg width="67" height="63" viewBox="0 0 67 63" fill="none" xmlns="http://www.w3.org/2000/svg">
<g clip-path="url(#clip0_86_822)">
<path d="M4.61706 28.0752C3.56146 28.0752 2.53044 27.6432 1.78619 26.842L0.63773 25.6089C-0.150216 24.7613 -0.214399 23.4789 0.486149 22.5574L4.40676 17.402C4.56107 17.1997 4.69627 16.9809 4.80961 16.7513L7.39604 11.522C7.90677 10.4898 8.69608 9.62851 9.67794 9.03108L11.6471 7.83211C13.0755 6.96261 14.803 6.76848 16.3885 7.29756L19.1278 8.21217C19.6645 8.39126 19.954 8.97229 19.7751 9.50957C19.5962 10.0469 19.0159 10.3367 18.4792 10.1576L15.7398 9.24298C14.7265 8.9053 13.6231 9.02971 12.7109 9.58477L10.7417 10.7837C10.0917 11.1802 9.5687 11.7503 9.2314 12.4325L6.64497 17.6618C6.47427 18.0076 6.26943 18.3371 6.03591 18.6434L2.1153 23.7988C2.02107 23.9232 2.02927 24.0955 2.13578 24.2103L3.28425 25.4435C3.77722 25.9739 4.53786 26.1612 5.22065 25.9206L10.1149 24.198C10.6489 24.0107 11.2334 24.291 11.4204 24.8255C11.6075 25.3601 11.3276 25.9452 10.7936 26.1325L5.89935 27.8551C5.48012 28.0027 5.04586 28.0752 4.61706 28.0752Z" fill="#6F5138"/>
<path d="M14.7279 27.2533C13.9086 27.2533 13.0865 27.1234 12.2972 26.8609L6.55484 24.9442C6.01816 24.7651 5.72866 24.1841 5.90755 23.6468C6.08644 23.1095 6.66682 22.8197 7.2035 22.9988L12.9444 24.9141C14.6118 25.4705 16.4759 25.2135 17.9302 24.2251L20.5631 22.4369C21.0315 22.1183 21.6678 22.2414 21.986 22.7103C22.3028 23.1792 22.1813 23.8163 21.7129 24.1349L19.08 25.9231C17.7896 26.7994 16.2628 27.2533 14.7279 27.2533Z" fill="#6F5138"/>
<path d="M23.6384 17.2502C22.5118 17.2502 21.4275 16.8742 20.3937 16.1237C19.9363 15.7915 19.8338 15.1503 20.167 14.6909C20.4989 14.2329 21.1393 14.1304 21.5982 14.464C23.2055 15.6329 24.597 15.194 25.654 14.6171L25.979 14.2138L21.6077 12.2492C21.0915 12.0168 20.8608 11.4112 21.0929 10.8944C21.3251 10.3776 21.9314 10.1466 22.4462 10.379L28.0274 12.8877C28.3169 13.0176 28.5299 13.2746 28.6037 13.5836C28.6774 13.8925 28.605 14.2179 28.4057 14.4654L27.1247 16.0581C27.0442 16.1579 26.9472 16.2413 26.8366 16.3041C25.7387 16.9358 24.6708 17.2502 23.6384 17.2502Z" fill="#6F5138"/>
<path d="M23.2437 12.3394C22.9856 12.3394 22.7262 12.2423 22.5268 12.0468C22.1226 11.6504 22.1157 11.001 22.5118 10.5963L23.2888 9.80202C23.9689 9.10751 24.343 8.1888 24.343 7.21541C24.343 5.93988 23.6998 4.77235 22.6224 4.09152L21.6296 3.46401C22.3616 5.37936 21.6023 7.60231 19.7669 8.64132L18.0135 9.63386C17.5205 9.91275 16.8965 9.73913 16.6179 9.24559C16.3393 8.75206 16.5127 8.12728 17.0057 7.84839L18.7591 6.85585C19.797 6.26799 20.1657 4.94461 19.5798 3.90423L18.6253 2.20899C18.3139 1.65667 18.4177 0.967634 18.8752 0.530153C19.334 0.0940387 20.0278 0.0256823 20.5617 0.363363L23.7162 2.35664C25.3918 3.41479 26.3914 5.23171 26.3914 7.21541C26.3914 8.72882 25.8083 10.1561 24.7513 11.2375L23.9743 12.0318C23.7749 12.2369 23.5086 12.3394 23.2437 12.3394Z" fill="#6F5138"/>
<path d="M11.1746 10.3461C10.8851 10.3461 10.597 10.223 10.3949 9.98513C10.0289 9.55448 10.0808 8.90647 10.511 8.54008C11.288 7.87839 11.7714 6.80246 11.8397 5.58845C11.8957 4.58087 11.6417 3.82348 11.3822 3.54596L10.1832 2.26632C9.76125 1.81654 9.69843 1.13844 10.0316 0.618935C10.3648 0.0994261 11.0053 -0.127517 11.5898 0.0693492L14.7798 1.13844C16.5073 1.71674 17.7978 3.11941 18.2306 4.89121C18.5611 6.24193 18.3535 7.64461 17.6448 8.84084C17.3567 9.32754 16.7285 9.48886 16.241 9.2004C15.7548 8.91193 15.5937 8.28306 15.8818 7.79499C16.3147 7.06358 16.4431 6.20502 16.241 5.37791C15.9761 4.29378 15.1867 3.43659 14.1298 3.0825L13.3514 2.82138C13.7515 3.58424 13.9468 4.60548 13.8853 5.70192C13.7856 7.47372 13.04 9.07599 11.8397 10.1C11.6444 10.2654 11.4095 10.3461 11.1746 10.3461Z" fill="#6F5138"/>
<path d="M25.7141 9.18C25.3208 9.18 24.9466 8.95306 24.7773 8.57026C24.5479 8.05212 24.7814 7.44649 25.2976 7.21681L29.3602 5.4122C32.0928 4.19819 35.2008 3.90562 38.1109 4.58645L46.5585 6.56469L65.9977 6.97756C66.563 6.98986 67.0123 7.45879 67 8.02478C66.9877 8.58394 66.5316 9.02825 65.9758 9.02825C65.969 9.02825 65.9608 9.02825 65.954 9.02825L46.4083 8.61265C46.3372 8.61128 46.2662 8.60171 46.1966 8.5853L37.6453 6.58246C35.1667 6.00143 32.5188 6.25162 30.1919 7.28516L26.1292 9.08977C25.994 9.15266 25.8534 9.18 25.7141 9.18Z" fill="#6F5138"/>
<path d="M34.6505 60.6224H28.1052C27.6942 60.6224 27.3227 60.3764 27.163 59.9977C27.0018 59.619 27.0838 59.1815 27.3678 58.8848L29.2168 56.9654L29.2933 43.2121C29.2947 42.9127 29.266 42.6119 29.2073 42.318L28.0752 36.6676C27.9632 36.1126 28.3237 35.5726 28.8782 35.4605C29.4326 35.3497 29.972 35.7093 30.084 36.2643L31.216 41.9147C31.3021 42.3439 31.3444 42.7842 31.3417 43.223L31.2638 57.3865C31.2625 57.6503 31.1601 57.9032 30.9771 58.0933L30.5169 58.5718H33.6304L33.6605 48.5726C33.6632 47.5773 33.9063 46.5848 34.3624 45.7016C34.3706 45.6866 34.3788 45.6702 34.3883 45.6551L39.3126 37.2063C39.598 36.7168 40.2249 36.5514 40.7137 36.8372C41.2026 37.1229 41.3679 37.7504 41.0824 38.2398L36.1718 46.6641C35.8713 47.2547 35.7116 47.915 35.7102 48.5781L35.6774 59.5998C35.6733 60.1645 35.2159 60.6224 34.6505 60.6224Z" fill="#6F5138"/>
<path d="M22.52 35.8485C22.5104 35.8485 22.5008 35.8485 22.4927 35.8485C17.724 35.7214 14.8153 32.8436 14.6938 32.7205C14.3319 32.3569 14.2964 31.7799 14.6091 31.3725L16.4363 28.9937C16.7804 28.5453 17.4236 28.4606 17.8729 28.8051C18.3208 29.1496 18.4054 29.7935 18.0613 30.2433L16.8377 31.836C17.7022 32.4649 19.3422 33.4342 21.5463 33.7185L21.747 29.2535C21.773 28.6875 22.2509 28.2445 22.8163 28.276C23.3817 28.302 23.8186 28.7805 23.7927 29.3465L23.5442 34.8683C23.5168 35.4192 23.0648 35.8485 22.52 35.8485Z" fill="#6F5138"/>
<path d="M23.2956 26.407C23.0198 26.407 22.7453 26.2962 22.5432 26.0775C22.1595 25.6619 22.1854 25.0125 22.6005 24.6283C22.6251 24.6065 22.6552 24.5791 22.6907 24.5463C24.9384 22.538 26.1975 19.1133 26.2385 14.904C26.2439 14.3407 26.7014 13.8882 27.2627 13.8882C27.2654 13.8882 27.2695 13.8882 27.2722 13.8882C27.8376 13.8937 28.2923 14.3571 28.2869 14.9231C28.2404 19.786 26.7765 23.6426 24.0549 26.0761C24.0289 26.0994 24.0071 26.1185 23.9907 26.1336C23.7941 26.3167 23.5442 26.407 23.2956 26.407Z" fill="#6F5138"/>
<path d="M27.2831 41.5675C26.4365 41.5675 25.5038 41.4021 24.6202 40.9004C22.8655 39.9037 21.8167 37.8954 21.4999 34.9329C21.4398 34.3696 21.8467 33.8651 22.4094 33.805C22.9706 33.7462 23.4759 34.1522 23.536 34.7155C23.7777 36.9835 24.4823 38.4641 25.6308 39.1176C27.2326 40.0281 29.3411 39.1026 29.3616 39.093C29.875 38.8565 30.4841 39.0807 30.7203 39.5961C30.9566 40.1102 30.7326 40.7199 30.2178 40.9564C30.1386 40.992 28.8631 41.5675 27.2831 41.5675Z" fill="#6F5138"/>
<path d="M65.9772 21.1422C65.9553 21.1422 65.9335 21.1422 65.9116 21.1408C59.4237 20.7307 56.2228 17.1721 54.6796 14.2601C53.0314 11.1485 52.9085 8.15586 52.903 8.03009C52.8825 7.4641 53.325 6.9897 53.8903 6.9692C54.4516 6.95279 54.9295 7.39027 54.95 7.9549C54.9514 7.98224 55.0729 10.6618 56.5232 13.3619C58.4159 16.885 61.6182 18.814 66.04 19.0929C66.604 19.1284 67.0328 19.6151 66.9973 20.1811C66.9645 20.7239 66.5138 21.1422 65.9772 21.1422Z" fill="#6F5138"/>
<path d="M46.5762 23.327C46.142 23.327 45.7391 23.0495 45.6012 22.6134C45.0454 20.8689 45.0727 19.32 45.6804 18.2509C46.0928 17.5236 46.7565 17.0369 47.5977 16.8414C49.0671 16.501 50.2988 16.6828 51.2616 17.3827C52.4496 18.2468 53.1297 19.8258 53.3386 22.2128C53.3878 22.7774 52.9713 23.2737 52.4073 23.3243C51.8447 23.3735 51.3476 22.9565 51.2971 22.3919C51.1455 20.657 50.729 19.5291 50.0585 19.0424C49.5901 18.702 48.9373 18.6364 48.0592 18.8401C47.7752 18.9057 47.5909 19.037 47.4611 19.2653C47.1498 19.8135 47.1839 20.832 47.5526 21.99C47.7247 22.53 47.427 23.1069 46.8876 23.2778C46.7852 23.312 46.68 23.327 46.5762 23.327Z" fill="#6F5138"/>
<path d="M36.2209 24.3305C35.2008 24.3305 34.219 23.6578 33.2972 22.3262C32.5243 21.2107 31.2557 20.6583 29.5255 20.6789C28.1052 20.698 26.9103 21.1109 26.8994 21.115C26.3668 21.3009 25.7824 21.022 25.5939 20.4875C25.4068 19.9543 25.684 19.3705 26.2166 19.1805C26.2767 19.16 27.6928 18.6637 29.4353 18.6295C31.8852 18.583 33.8025 19.4553 34.981 21.1573C35.5859 22.0309 36.0407 22.3071 36.2674 22.2757C36.4435 22.2497 37.3885 21.9229 38.6913 17.9801C39.6472 15.0859 40.3546 14.241 40.8708 13.6245C41.2013 13.2294 41.3528 13.0489 41.5249 12.1876C41.7844 10.8875 39.1105 7.94952 37.2219 6.37322C36.7877 6.01093 36.7289 5.36428 37.0908 4.92954C37.4527 4.49479 38.0986 4.436 38.5329 4.79692C39.4724 5.57892 44.125 9.63109 43.5337 12.5896C43.2783 13.8692 42.9356 14.3518 42.4412 14.941C42.0315 15.4318 41.4689 16.1031 40.6359 18.6241C39.4137 22.3221 38.156 24.0748 36.5596 24.3058C36.4463 24.3222 36.3343 24.3305 36.2209 24.3305Z" fill="#6F5138"/>
<path d="M12.4433 17.2107C11.9435 17.2107 11.5065 16.8443 11.4314 16.3344C11.3494 15.7738 11.7359 15.253 12.2958 15.1709L13.2258 15.0342C13.7856 14.9508 14.3059 15.3391 14.3879 15.8996C14.4698 16.4601 14.0833 16.981 13.5235 17.063L12.5935 17.1998C12.543 17.208 12.4924 17.2107 12.4433 17.2107Z" fill="#6F5138"/>
<path d="M61.3806 63H47.4434C45.3199 63 43.591 61.2706 43.591 59.1447V28.7097C43.591 26.5838 45.3185 24.853 47.4434 24.853H61.3806C63.5041 24.853 65.2329 26.5824 65.2329 28.7097V59.1447C65.2316 61.2706 63.5041 63 61.3806 63ZM47.4434 26.9037C46.4492 26.9037 45.6394 27.7131 45.6394 28.7097V59.1447C45.6394 60.14 46.4479 60.9493 47.4434 60.9493H61.3806C62.3747 60.9493 63.1845 60.14 63.1845 59.1447V28.7097C63.1845 27.7144 62.3761 26.9037 61.3806 26.9037H47.4434Z" fill="#6F5138"/>
<path d="M64.1009 57.1444H44.7217C44.1564 57.1444 43.6976 56.6851 43.6976 56.1191C43.6976 55.5531 44.1564 55.0938 44.7217 55.0938H64.1009C64.6662 55.0938 65.125 55.5531 65.125 56.1191C65.125 56.6865 64.6676 57.1444 64.1009 57.1444Z" fill="#6F5138"/>
<path d="M55.1849 59.8066H53.6377C53.0723 59.8066 52.6135 59.3472 52.6135 58.7812C52.6135 58.2152 53.0723 57.7559 53.6377 57.7559H55.1849C55.7503 57.7559 56.2091 58.2152 56.2091 58.7812C56.2091 59.3472 55.7516 59.8066 55.1849 59.8066Z" fill="#6F5138"/>
<path d="M54.569 47.8685C54.2959 47.8685 54.0351 47.7592 53.8425 47.5664L49.0425 42.7322C47.4775 41.1559 47.4843 38.598 49.0602 37.0299C49.8195 36.2739 50.8273 35.8569 51.8993 35.8569C51.9034 35.8569 51.9075 35.8569 51.9116 35.8569C52.8702 35.8597 53.777 36.196 54.4994 36.8085C56.0562 35.4892 58.3968 35.5384 59.8962 36.9875C60.6705 37.7354 61.1075 38.7402 61.1266 39.8175C61.1457 40.8948 60.7442 41.9133 59.9973 42.6885L55.3064 47.5555C55.1153 47.7537 54.8517 47.8672 54.5772 47.8685C54.5745 47.8685 54.5718 47.8685 54.569 47.8685ZM51.8993 37.909C51.3735 37.909 50.8778 38.1141 50.505 38.4846C49.7307 39.2542 49.7266 40.512 50.4968 41.2858L54.5595 45.3776L58.5238 41.2653C58.8911 40.8852 59.0878 40.3835 59.0782 39.8544C59.0687 39.3253 58.8543 38.8318 58.4746 38.464C57.6894 37.7053 56.4344 37.7272 55.6765 38.5133L55.245 38.9617C55.0538 39.1599 54.7903 39.2734 54.5158 39.2748C54.513 39.2748 54.5103 39.2748 54.5076 39.2748C54.2345 39.2748 53.9736 39.1654 53.7811 38.9726L53.3045 38.4928C52.9317 38.1168 52.436 37.9104 51.9075 37.9076C51.9034 37.909 51.902 37.909 51.8993 37.909Z" fill="#6F5138"/>
</g>
<defs>
<clipPath id="clip0_86_822">
<rect width="67" height="63" fill="white"/>
</clipPath>
</defs>
</svg>
