<svg width="29" height="24" viewBox="0 0 29 24" fill="none" xmlns="http://www.w3.org/2000/svg">
<g clip-path="url(#clip0_293_2421)">
<path d="M2.61813 7.06599C1.34565 7.48656 0.527954 8.09567 0.18797 8.87624C-0.14055 9.63039 -0.0391768 10.5263 0.497821 11.6149L0.532212 11.6847L0.532518 11.6853C1.31771 13.2768 1.55479 13.7573 1.5918 16.0366C1.60752 17.005 1.91344 17.6777 2.50104 18.0358C3.48054 18.6329 4.96658 18.1926 6.04057 17.7179C6.27538 17.6142 6.51135 17.5079 6.74823 17.4012L6.7885 17.3831L6.78867 17.383C9.05943 16.3598 11.4073 15.3019 13.804 15.857C15.6095 16.2497 16.9175 17.6176 18.1825 18.9406L18.1834 18.9415C18.3917 19.1595 18.6072 19.3849 18.8211 19.6017C20.2295 21.0301 21.1247 21.101 23.1415 20.9313C23.1631 20.9295 23.1845 20.9281 23.2058 20.9272C22.82 21.5371 22.5519 22.1538 22.5044 22.7347C22.4474 23.4323 22.82 23.8158 23.1878 23.942C23.3021 23.9813 23.4202 24.0002 23.5391 24.0002C23.9469 24.0002 24.3607 23.7768 24.6427 23.3821C25.0923 22.7371 25.1409 21.9236 24.7664 21.3101C24.5689 20.9865 24.2741 20.7513 23.9225 20.6238C24.5445 19.7879 25.353 18.9773 26.0372 18.3292C28.1187 16.357 29.1886 13.9962 28.9724 11.8517C28.8031 10.1729 27.8839 8.7584 26.314 7.7613C24.6202 6.68555 24.0436 5.4058 23.3762 3.92428L23.376 3.9238L23.3757 3.92317C23.0913 3.29195 22.7973 2.63923 22.3953 1.93924C21.9094 1.09367 21.2337 0.631972 20.589 0.707103C20.2374 0.747594 19.5977 0.989436 19.2636 2.15625C19.0772 2.80728 18.5599 3.53059 17.7191 3.43046C17.0344 3.34822 16.7103 2.77944 16.699 2.28579C16.6741 1.19711 16.2758 0.433628 15.5776 0.135953C14.7662 -0.21028 13.6817 0.113177 12.602 1.02281C11.3874 2.0459 10.4321 2.1741 9.58939 2.28718L9.58911 2.28722C8.42668 2.44301 7.42278 2.57777 6.26837 4.69408C5.48261 6.13453 4.61546 6.41639 3.04131 6.92775L3.03613 6.92943C2.90133 6.97319 2.76221 7.01836 2.61813 7.06599ZM24.3995 21.5187C24.691 21.9966 24.648 22.6378 24.2908 23.1502C23.9999 23.5572 23.5989 23.6464 23.3305 23.5542C23.0466 23.4568 22.8966 23.1626 22.9291 22.7668C22.9752 22.2017 23.2633 21.5871 23.6734 20.9756C23.9798 21.0594 24.2328 21.2456 24.3995 21.5187ZM6.64504 4.88578C7.6975 2.95628 8.55804 2.84083 9.6473 2.6947L9.64758 2.69466C10.5495 2.57382 11.5715 2.43669 12.882 1.33282C13.8181 0.544347 14.7614 0.237498 15.4057 0.51208C15.944 0.741584 16.2522 1.37474 16.2733 2.29481C16.292 3.10732 16.8649 3.74206 17.6667 3.83854C18.3617 3.92253 19.3037 3.56016 19.6742 2.2657C19.8725 1.57276 20.2154 1.16421 20.6392 1.1155C21.1009 1.06219 21.63 1.45477 22.0229 2.1387C22.4151 2.82151 22.7052 3.46526 22.9856 4.08782L22.9858 4.08825C23.6804 5.63006 24.2803 6.9617 26.08 8.10485C27.5387 9.03124 28.3922 10.3407 28.5486 11.8914C28.7522 13.9114 27.7281 16.1508 25.739 18.0354C25.0052 18.7307 24.1331 19.6088 23.4783 20.5237C23.3573 20.5117 23.2324 20.5109 23.1048 20.5215C21.1589 20.6849 20.4211 20.6278 19.1298 19.318C18.9253 19.1106 18.7183 18.8941 18.5175 18.6843L18.4965 18.6623C17.187 17.2928 15.833 15.8767 13.9007 15.4564C13.4062 15.3419 12.9167 15.291 12.4312 15.291C10.424 15.291 8.49039 16.1622 6.60852 17.0103C6.35894 17.1227 6.11067 17.2345 5.86337 17.3438C4.48018 17.955 3.36672 18.0771 2.72835 17.6882C2.27013 17.4088 2.03102 16.8511 2.01759 16.0304C1.97911 13.6613 1.71135 13.1187 0.916577 11.508L0.882186 11.4383C0.400542 10.4614 0.30179 9.67563 0.580524 9.03567C0.871377 8.36788 1.60326 7.83612 2.75603 7.45509C2.88926 7.41108 3.01835 7.36907 3.14355 7.32833L3.17691 7.31748C4.74434 6.80833 5.77985 6.47191 6.64504 4.88578Z" fill="#6F5138"/>
<path d="M2.61813 7.06599C1.34565 7.48656 0.527954 8.09567 0.18797 8.87624C-0.14055 9.63039 -0.0391768 10.5263 0.497821 11.6149L0.532212 11.6847L0.532518 11.6853C1.31771 13.2768 1.55479 13.7573 1.5918 16.0366C1.60752 17.005 1.91344 17.6777 2.50104 18.0358C3.48054 18.6329 4.96658 18.1926 6.04057 17.7179C6.27538 17.6142 6.51135 17.5079 6.74823 17.4012L6.7885 17.3831L6.78867 17.383C9.05943 16.3598 11.4073 15.3019 13.804 15.857C15.6095 16.2497 16.9175 17.6176 18.1825 18.9406L18.1834 18.9415C18.3917 19.1595 18.6072 19.3849 18.8211 19.6017C20.2295 21.0301 21.1247 21.101 23.1415 20.9313C23.1631 20.9295 23.1845 20.9281 23.2058 20.9272C22.82 21.5371 22.5519 22.1538 22.5044 22.7347C22.4474 23.4323 22.82 23.8158 23.1878 23.942C23.3021 23.9813 23.4202 24.0002 23.5391 24.0002C23.9469 24.0002 24.3607 23.7768 24.6427 23.3821C25.0923 22.7371 25.1409 21.9236 24.7664 21.3101C24.5689 20.9865 24.2741 20.7513 23.9225 20.6238C24.5445 19.7879 25.353 18.9773 26.0372 18.3292C28.1187 16.357 29.1886 13.9962 28.9724 11.8517C28.8031 10.1729 27.8839 8.7584 26.314 7.7613C24.6202 6.68555 24.0436 5.4058 23.3762 3.92428L23.376 3.9238L23.3757 3.92317C23.0913 3.29195 22.7973 2.63923 22.3953 1.93924C21.9094 1.09367 21.2337 0.631972 20.589 0.707103C20.2374 0.747594 19.5977 0.989436 19.2636 2.15625C19.0772 2.80728 18.5599 3.53059 17.7191 3.43046C17.0344 3.34822 16.7103 2.77944 16.699 2.28579C16.6741 1.19711 16.2758 0.433628 15.5776 0.135953C14.7662 -0.21028 13.6817 0.113177 12.602 1.02281C11.3874 2.0459 10.4321 2.1741 9.58939 2.28718L9.58911 2.28722C8.42668 2.44301 7.42278 2.57777 6.26837 4.69408C5.48261 6.13453 4.61546 6.41639 3.04131 6.92775L3.03613 6.92943C2.90133 6.97319 2.76221 7.01836 2.61813 7.06599ZM24.3995 21.5187C24.691 21.9966 24.648 22.6378 24.2908 23.1502C23.9999 23.5572 23.5989 23.6464 23.3305 23.5542C23.0466 23.4568 22.8966 23.1626 22.9291 22.7668C22.9752 22.2017 23.2633 21.5871 23.6734 20.9756C23.9798 21.0594 24.2328 21.2456 24.3995 21.5187ZM6.64504 4.88578C7.6975 2.95628 8.55804 2.84083 9.6473 2.6947L9.64758 2.69466C10.5495 2.57382 11.5715 2.43669 12.882 1.33282C13.8181 0.544347 14.7614 0.237498 15.4057 0.51208C15.944 0.741584 16.2522 1.37474 16.2733 2.29481C16.292 3.10732 16.8649 3.74206 17.6667 3.83854C18.3617 3.92253 19.3037 3.56016 19.6742 2.2657C19.8725 1.57276 20.2154 1.16421 20.6392 1.1155C21.1009 1.06219 21.63 1.45477 22.0229 2.1387C22.4151 2.82151 22.7052 3.46526 22.9856 4.08782L22.9858 4.08825C23.6804 5.63006 24.2803 6.9617 26.08 8.10485C27.5387 9.03124 28.3922 10.3407 28.5486 11.8914C28.7522 13.9114 27.7281 16.1508 25.739 18.0354C25.0052 18.7307 24.1331 19.6088 23.4783 20.5237C23.3573 20.5117 23.2324 20.5109 23.1048 20.5215C21.1589 20.6849 20.4211 20.6278 19.1298 19.318C18.9253 19.1106 18.7183 18.8941 18.5175 18.6843L18.4965 18.6623C17.187 17.2928 15.833 15.8767 13.9007 15.4564C13.4062 15.3419 12.9167 15.291 12.4312 15.291C10.424 15.291 8.49039 16.1622 6.60852 17.0103C6.35894 17.1227 6.11067 17.2345 5.86337 17.3438C4.48018 17.955 3.36672 18.0771 2.72835 17.6882C2.27013 17.4088 2.03102 16.8511 2.01759 16.0304C1.97911 13.6613 1.71135 13.1187 0.916577 11.508L0.882186 11.4383C0.400542 10.4614 0.30179 9.67563 0.580524 9.03567C0.871377 8.36788 1.60326 7.83612 2.75603 7.45509C2.88926 7.41108 3.01835 7.36907 3.14355 7.32833L3.17691 7.31748C4.74434 6.80833 5.77985 6.47191 6.64504 4.88578Z" stroke="#6F5138"/>
</g>
<defs>
<clipPath id="clip0_293_2421">
<rect width="29" height="24" rx="8" fill="white"/>
</clipPath>
</defs>
</svg>
