<svg width="30" height="36" viewBox="0 0 30 36" fill="none" xmlns="http://www.w3.org/2000/svg">
<g clip-path="url(#clip0_266_2)">
<path d="M29.388 35.3138C28.1784 34.9458 24.7163 35.2381 23.2121 35.1709C22.5688 33.4746 21.7599 32.1516 20.0239 31.3791C18.8157 30.8417 17.5807 30.8687 16.286 30.8876C16.2879 29.1639 16.2689 27.4378 16.295 25.7146C20.5759 24.9355 24.1411 23.0069 26.6477 19.3689C28.1269 17.2222 28.9187 14.7393 29.1623 12.158C29.2092 11.6632 29.2915 11.0657 29.1917 10.5771C29.1548 10.3955 29.1292 10.4026 29.0058 10.2819C28.5781 10.3132 28.1784 10.5166 27.7636 10.6183C26.7768 10.8595 25.7447 10.8278 24.7409 10.7351C24.7187 8.24128 24.7594 5.72239 24.6241 3.23283C22.3294 2.79433 20.0877 2.4178 17.8716 1.64061C16.969 1.32415 15.1866 0.0323034 14.4771 0.000610352C12.418 1.57344 9.86269 2.34542 7.3367 2.78818C6.49329 2.93577 5.57466 2.98733 4.75727 3.22526C4.54204 5.67414 4.87836 8.19634 4.54251 10.6287C3.65463 10.7356 2.7256 10.8609 1.84198 10.6552C1.47112 10.5686 0.929032 10.2484 0.597438 10.4451C0.104067 11.6296 1.19629 15.3429 1.70291 16.5789C3.26486 20.3911 6.03682 23.1479 9.84566 24.7259C10.9478 25.1829 12.0897 25.4757 13.2576 25.7079C13.2169 27.4284 13.2032 29.1492 13.2155 30.8701C10.9762 30.952 8.66686 30.8588 7.01788 32.6785C6.36226 33.4018 5.98904 34.2561 5.6986 35.1742C4.48527 35.1766 1.14663 34.9987 0.181171 35.2736C0.0241246 35.4519 0.00331121 35.4476 0 35.6818C0.204349 35.8469 0.386466 35.8805 0.640956 35.9018C2.12816 36.0243 3.74735 35.9018 5.24922 35.9089L15.829 35.9339L24.9278 35.9405C26.2882 35.9429 27.792 36.0782 29.1302 35.933C29.3511 35.9089 29.396 35.8578 29.5625 35.7192C29.5672 35.4822 29.5483 35.4935 29.388 35.3138ZM24.7385 11.5199C25.7305 11.5217 26.7177 11.4943 27.7035 11.3784C27.9499 11.333 28.0753 11.2919 28.3232 11.3699C28.4249 11.5719 28.4646 11.7531 28.4793 11.9768C28.6387 14.4337 26.6491 18.4143 25.0224 20.2246C23.8776 20.2657 22.5773 20.4166 21.4675 20.1063C21.1009 19.8991 20.6993 19.6063 20.5234 19.2161C20.6151 18.9635 20.8843 18.822 21.0962 18.6593C23.4675 16.8353 24.3015 14.3661 24.7385 11.5199ZM5.41573 3.90974C8.66497 3.16755 11.6876 2.72054 14.5864 0.903153C15.558 1.09426 16.8304 2.0039 17.8096 2.38374C19.7731 3.14579 21.8507 3.51665 23.9174 3.86858L23.9439 8.31886C23.959 11.4863 23.9264 14.5766 21.6719 17.0732C19.9288 19.0041 17.5324 19.9928 14.9662 20.12C12.2718 19.9767 9.9729 18.9786 8.06659 17.0444C4.59123 13.5184 5.37221 8.42529 5.41573 3.90974ZM4.66645 20.1602C2.64329 17.5661 1.52789 14.6745 1.24738 11.3983C1.37132 11.4073 1.4962 11.4139 1.62013 11.4243C2.61018 11.5076 3.59361 11.4498 4.58508 11.4125C4.96114 13.6868 5.89207 15.8415 7.49895 17.5212C7.97435 18.0179 8.62335 18.4228 8.99609 18.9966C9.06894 19.3329 8.95305 19.5533 8.82959 19.8575C8.80262 19.8878 8.77755 19.9199 8.74823 19.9483C8.24729 20.4374 5.40248 20.1721 4.66645 20.1602ZM5.38261 20.8991C6.41098 20.8745 7.81399 21.1437 8.76667 20.7813C9.41331 20.5358 9.58076 20.0245 9.84424 19.4436C10.3177 19.7038 10.8461 19.9124 11.3466 20.1153C14.4624 21.3802 16.8304 20.7317 19.7982 19.4871C20.0064 19.8258 20.2386 20.1792 20.5442 20.4389C21.5271 21.2752 22.9751 21.0491 24.1614 20.9757C23.0721 22.3239 21.5943 23.1782 20.0622 23.9345C18.5972 24.5362 17.0702 24.9161 15.4823 24.9695C11.5689 25.1015 8.20093 23.5367 5.38261 20.8991ZM15.4936 30.8753L13.9525 30.8838L13.9922 25.7595L15.4993 25.8011C15.5088 27.4922 15.5069 29.1838 15.4936 30.8753ZM17.9151 35.1757L6.55904 35.17C6.7842 34.4609 7.01504 33.846 7.50983 33.2736C8.45637 32.1776 9.79693 31.7958 11.1815 31.68C13.2865 31.5801 18.3682 31.3318 20.1213 32.2325C21.3796 32.8786 21.9576 33.871 22.3777 35.1648L17.9151 35.1757Z" fill="#6F5138"/>
<path d="M11.3611 14.3929C12.0801 15.0883 12.7854 15.8451 13.5735 16.461C14.2812 16.0301 20.1557 10.2501 20.2503 9.87171C20.3497 9.47342 20.0573 9.08128 19.8114 8.81023C19.3416 8.29274 18.8681 7.62103 18.125 7.55103C18.02 7.54109 17.9968 7.54582 17.9036 7.55197C16.4675 8.99661 15.0058 10.4148 13.5182 11.8069C12.854 11.148 11.7443 9.73312 10.7419 9.7317C10.2836 9.73075 9.9184 9.99044 9.62039 10.3149C9.28265 10.6834 8.98227 11.1286 8.76562 11.5775C9.37016 12.7061 10.4681 13.4965 11.3611 14.3929ZM9.82805 11.489C9.87204 11.0311 10.4184 10.5959 10.7254 10.2875C11.4189 10.6943 13.1913 12.6479 13.3985 12.6919C14.6009 12.1598 16.8809 9.38733 18.2201 8.34808C18.6898 8.62291 19.0753 9.18818 19.4121 9.60824C18.8568 10.3712 18.0881 11.0467 17.4249 11.7198C16.1657 12.9984 14.9141 14.2804 13.5976 15.5003C12.6558 14.7359 11.8091 13.8608 10.9463 13.0103C10.5688 12.6512 9.77271 12.0647 9.82805 11.489Z" fill="#6F5138"/>
</g>
<defs>
<clipPath id="clip0_266_2">
<rect width="29.5635" height="36" rx="8" fill="white"/>
</clipPath>
</defs>
</svg>
