<svg width="53" height="67" viewBox="0 0 53 67" fill="none" xmlns="http://www.w3.org/2000/svg">
<g clip-path="url(#clip0_85_793)">
<path d="M37.0646 44.4078C36.2929 43.8601 35.5077 43.3142 34.858 42.6196C34.9246 42.5621 34.9929 42.5064 35.0589 42.4469C36.4737 41.0578 37.5575 39.3335 38.2057 37.4588C38.5034 36.6245 38.6617 35.7521 38.8031 34.8804C39.4276 34.7103 40.0567 34.5157 40.6041 34.1599C41.3893 33.6944 42.0248 32.99 42.4323 32.1738C42.898 31.2167 43.0277 30.1186 42.8501 29.0715C43.523 28.7741 44.2063 28.4947 44.8437 28.124C46.4317 27.2464 47.8859 26.0216 48.7424 24.395C49.1628 23.5574 49.4133 22.599 49.2441 21.6612C49.12 20.847 48.6519 20.1155 48.023 19.5963C47.1538 18.8686 46.0863 18.4406 45.0226 18.0867C43.6149 17.6328 42.1604 17.3431 40.7068 17.0824C40.7145 15.6459 40.7307 14.2019 40.5034 12.7784C40.1979 11.0109 39.653 9.27452 38.785 7.70027C37.5812 5.47765 35.8157 3.55689 33.682 2.20121C31.4599 0.761652 28.8147 -0.020836 26.1671 0.000422024C24.8659 0.0464166 23.5652 0.245469 22.326 0.65169C19.7563 1.49235 17.4561 3.10023 15.7118 5.15993C13.4575 7.78375 12.2098 11.2069 12.076 14.6526C12.0295 15.4577 12.0664 16.2636 12.0496 17.0694C11.478 17.1839 10.9047 17.2894 10.3364 17.4187C8.84586 17.7524 7.33798 18.1088 5.96826 18.8072C5.20428 19.2043 4.45709 19.7112 3.9928 20.4551C3.59894 21.0681 3.44514 21.8138 3.482 22.5362C3.58466 23.7222 4.19561 24.7971 4.93045 25.7066C5.65699 26.5971 6.56165 27.3318 7.53944 27.9288C8.30207 28.4073 9.12992 28.7683 9.95082 29.133C9.91204 29.5431 9.88367 29.9562 9.91339 30.3683C9.98112 31.4173 10.3925 32.4469 11.1009 33.2261C11.8456 34.1064 12.9182 34.6469 14.0303 34.8927C14.2369 36.5588 14.7923 38.1756 15.6221 39.6333C16.2336 40.7509 17.0447 41.7429 17.927 42.6567C17.1875 43.4108 16.3156 44.0084 15.4536 44.6092C15.0777 44.8711 14.6949 45.1693 14.505 45.6006C14.3107 45.99 14.35 46.4368 14.3602 46.8571C14.4455 48.252 14.7904 49.6135 15.1526 50.9574C15.2508 51.3772 15.4226 51.7898 15.3992 52.2283C15.3928 55.0958 15.4036 57.9627 15.3934 60.8296C15.389 62.5332 15.4116 64.2379 15.3882 65.942C15.3863 66.3662 15.6665 66.7801 16.0677 66.9224C16.3434 67.018 16.6393 66.9902 16.9258 66.9935C21.8983 66.9929 26.8714 66.9935 31.8447 66.9929C33.3493 66.9844 34.8553 67.0103 36.3601 66.9794C36.9471 67.0007 37.4012 66.4362 37.3836 65.8742C37.388 61.4338 37.3836 56.9928 37.3855 52.5516C37.3907 52.2424 37.3552 51.9256 37.4463 51.6247C37.8687 50.1257 38.302 48.6129 38.4073 47.0512C38.439 46.5636 38.5042 46.0449 38.2749 45.5915C38.0405 45.0533 37.5218 44.7364 37.0646 44.4078ZM40.7249 30.9793C40.5177 31.5736 40.087 32.0755 39.5534 32.4028C39.3261 32.5445 39.0762 32.6435 38.8334 32.7526C38.7908 30.9612 38.8062 29.1678 38.834 27.3765C39.5779 27.6171 40.2645 28.1182 40.608 28.8356C40.9509 29.4891 40.9916 30.2912 40.7249 30.9793ZM45.9655 21.4194C46.1903 21.3276 46.3742 21.1664 46.517 20.9718C46.8792 21.2712 47.1943 21.6683 47.2758 22.1424C47.3151 22.6773 47.0782 23.185 46.8192 23.6389C46.2787 24.536 45.5023 25.2681 44.6455 25.8585C43.8351 26.4152 42.9375 26.8195 42.0431 27.2172C41.2598 26.1955 40.091 25.5021 38.8361 25.2389C38.8284 24.4176 38.8367 23.5962 38.8322 22.7749C40.3938 22.5874 41.9623 22.4309 43.5064 22.1198C44.3401 21.9431 45.1847 21.77 45.9655 21.4194ZM17.8855 5.8429C19.5755 4.09027 21.7654 2.79237 24.1578 2.2988C25.5353 2.01491 26.9689 1.99152 28.3509 2.26189C30.5763 2.69072 32.6564 3.78357 34.3225 5.31512C36.1204 6.9429 37.4319 9.09073 38.108 11.4183C38.3714 12.3036 38.5181 13.2188 38.6265 14.1353C37.2188 13.8947 35.8142 13.6328 34.3954 13.4639C31.2181 13.0428 28.0073 12.9013 24.8049 12.9705C21.2279 13.0449 17.6618 13.4569 14.1495 14.1339C14.3803 11.0472 15.7112 8.0489 17.8855 5.8429ZM14.0928 15.6641C15.7047 15.3045 17.3424 15.0718 18.9814 14.8745C22.0494 14.5316 25.1414 14.348 28.229 14.458C31.7247 14.5763 35.2131 14.9701 38.6422 15.6641C38.6435 16.0315 38.6383 16.3989 38.6565 16.766C35.6685 16.4006 32.6701 16.1065 29.662 15.988C27.2049 15.9039 24.7437 15.8948 22.2878 16.0062C20.4788 16.1219 18.6676 16.2118 16.8677 16.4336C15.9403 16.5183 15.0164 16.6393 14.0928 16.7608C14.0928 16.3956 14.0928 16.0295 14.0928 15.6641ZM13.9714 32.7494C13.533 32.5689 13.0905 32.3613 12.7541 32.0173C12.2227 31.5102 11.9107 30.782 11.923 30.0461C11.9145 29.3386 12.2266 28.6556 12.7076 28.1474C13.0544 27.7872 13.5071 27.5504 13.972 27.3809C13.9747 29.1703 13.976 30.9598 13.9714 32.7494ZM13.0494 25.5137C12.133 25.8546 11.3491 26.4869 10.7401 27.2451C9.53053 26.7173 8.33642 26.1087 7.33354 25.2383C6.64636 24.6201 6.02654 23.8958 5.67127 23.0323C5.56012 22.7181 5.4316 22.3791 5.51497 22.0423C5.61377 21.596 5.93082 21.2397 6.27045 20.9525C6.46941 21.2331 6.76774 21.4221 7.09059 21.53C8.34336 21.9878 9.66658 22.2168 10.9821 22.4108C11.9766 22.5577 12.9768 22.6572 13.9753 22.7716C13.9753 23.5904 13.9681 24.4098 13.9791 25.2285C13.6731 25.3365 13.3508 25.3921 13.0494 25.5137ZM14.3435 20.7428C12.423 20.5623 10.5089 20.3024 8.61796 19.9171C10.0749 19.518 11.5627 19.2418 13.0513 18.9921C16.2311 18.4613 19.4472 18.1664 22.6669 18.0311C24.4313 17.9374 26.1993 17.9663 27.9662 17.9677C30.8787 18.0454 33.7905 18.2361 36.6835 18.5911C39.1943 18.8951 41.696 19.3064 44.1519 19.9149C43.0037 20.1484 41.8498 20.3606 40.6859 20.5034C35.995 21.0505 31.2724 21.3357 26.5497 21.3183C22.4751 21.3417 18.3976 21.1634 14.3435 20.7428ZM16.0393 34.8388C15.9044 33.9133 15.9501 32.9762 15.943 32.0444C15.9444 29.0087 15.9397 25.9729 15.9455 22.9365C18.8295 23.1429 21.7194 23.287 24.6106 23.327C26.7856 23.3607 28.9605 23.3108 31.1342 23.2611C32.8598 23.1776 34.5859 23.0963 36.3088 22.9649C36.4909 22.9558 36.6737 22.9533 36.8564 22.9475C36.8745 26.456 36.8578 29.9644 36.8649 33.4729C36.8327 34.5238 36.7028 35.5786 36.3819 36.5829C35.7904 38.4494 34.648 40.1166 33.1975 41.4205C31.607 42.8537 29.6043 43.8787 27.4635 44.1207C24.8798 44.4525 22.2196 43.5846 20.2133 41.9477C18.0134 40.2028 16.4279 37.6399 16.0393 34.8388ZM32.8366 44.2552C32.8049 45.1729 32.7571 46.0938 32.566 46.9947C32.2256 48.8133 31.4844 50.5292 30.6002 52.144C29.585 54.002 28.1385 55.633 26.3575 56.7837C25.1216 55.9262 23.9811 54.9101 23.0951 53.6871C22.5404 52.9389 22.0722 52.1291 21.6668 51.2918C20.578 49.1472 19.9478 46.7447 20.0006 44.3311C20.8893 44.9124 21.863 45.36 22.8705 45.6912C25.2819 46.4666 27.9405 46.3813 30.3208 45.5314C31.2042 45.204 32.0456 44.7669 32.8366 44.2552ZM16.3674 46.667C16.3234 46.4795 16.5017 46.387 16.6288 46.2977C17.1118 45.9904 17.5736 45.647 18.0038 45.2674C18.0943 48.1518 19.0944 50.936 20.5184 53.4201C19.881 53.5126 19.3405 53.8837 18.8528 54.2822C18.5113 54.5564 18.1626 54.8299 17.8797 55.1675C17.6865 53.9755 17.498 52.7823 17.3367 51.5853C17.2709 51.0564 17.0983 50.5493 16.9706 50.0339C16.6805 48.9311 16.3971 47.8122 16.3674 46.667ZM35.4191 64.957C29.8789 64.955 24.3389 64.957 18.7986 64.9556C18.3065 64.9595 17.8139 64.946 17.3224 64.9763C17.3139 63.3135 17.321 61.6508 17.3185 59.9882C17.323 59.569 17.3056 59.1487 17.3347 58.7303C17.8307 58.2284 18.2737 57.6769 18.7741 57.1789C19.3113 56.6389 19.8532 56.0924 20.4862 55.6636C20.7652 55.467 21.1378 55.3661 21.4626 55.5122C21.9147 55.7146 22.2704 56.0729 22.6419 56.3925C23.3315 57.0212 24.038 57.633 24.7808 58.1994C25.1999 58.5002 25.6042 58.87 26.1213 58.9858C26.5237 59.0795 26.926 58.9017 27.258 58.687C28.2848 57.9898 29.2334 57.1866 30.1498 56.3523C30.5238 56.0335 30.8854 55.6713 31.3536 55.4974C31.6674 55.3797 32.0116 55.4844 32.2673 55.6829C33.4672 56.5547 34.4126 57.7103 35.4394 58.7684C35.4172 60.8308 35.4236 62.8938 35.4191 64.957ZM36.4168 46.659C36.3904 47.7591 36.1328 48.8359 35.8531 49.8947C35.7065 50.4774 35.5122 51.0498 35.4257 51.6468C35.2688 52.8038 35.0253 53.9471 34.8574 55.1029C34.0631 54.4348 33.2926 53.6064 32.2253 53.4176C33.6382 50.9252 34.687 48.1558 34.8065 45.2676C35.2713 45.6686 35.7777 46.0184 36.2898 46.3566C36.4027 46.4154 36.4292 46.5408 36.4168 46.659Z" fill="#6F5138"/>
<path d="M26.4233 34.1238C26.8838 34.1224 27.3112 33.7357 27.35 33.276C27.3643 31.0785 27.3319 28.8802 27.3701 26.6825C27.3623 26.3694 27.2176 26.0616 26.9781 25.8598C26.7269 25.649 26.366 25.5856 26.0553 25.6839C25.6698 25.8152 25.3747 26.1949 25.3877 26.6108C25.3772 28.8122 25.3877 31.0137 25.3824 33.2151C25.3819 33.7436 25.9095 34.173 26.4233 34.1238Z" fill="#6F5138"/>
<path d="M19.6809 28.3809C20.0728 28.798 20.7606 28.8415 21.2334 28.54C21.6789 28.271 21.8823 27.6947 21.7802 27.1955C21.6569 26.5933 21.0512 26.1471 20.4422 26.1989C20.0767 26.248 19.7291 26.442 19.5161 26.7466C19.1907 27.2396 19.2373 27.973 19.6809 28.3809Z" fill="#6F5138"/>
<path d="M31.4404 28.4411C31.853 28.8104 32.5201 28.833 32.969 28.5168C33.3667 28.2517 33.5799 27.7355 33.4952 27.2661C33.3777 26.5908 32.6814 26.0826 32.0035 26.2061C31.6064 26.2992 31.2318 26.5721 31.0942 26.9673C30.8916 27.4682 31.0226 28.0905 31.4404 28.4411Z" fill="#6F5138"/>
<path d="M2.13621 39.6141C3.24754 40.722 4.3222 41.8647 5.42002 42.9848C5.49162 43.0766 5.61705 43.1607 5.59563 43.2932C5.55491 44.1146 5.58984 44.9373 5.58984 45.7592C5.58984 46.0612 5.52326 46.3898 5.67629 46.6684C5.87062 47.0074 6.3899 47.0868 6.66624 46.8029C6.93872 46.5797 6.88314 46.1982 6.87677 45.8871C6.87098 45.0024 6.84956 44.1182 6.85941 43.2335C7.18939 42.9334 7.41613 42.5434 7.67433 42.184C8.30844 41.2869 8.94004 40.388 9.57491 39.4917C9.83581 39.1244 10.1251 38.7738 10.3402 38.3768C10.6006 37.9202 10.0573 37.3058 9.56913 37.474C9.26423 37.5872 9.10869 37.8962 8.92846 38.1446C8.20327 39.1632 7.45743 40.1675 6.75482 41.2022C6.65929 40.4391 6.55914 39.6767 6.49778 38.9102C7.13516 38.0216 7.74862 37.1162 8.37578 36.2205C8.51588 36.0025 8.69747 35.7983 8.7542 35.5389C8.75806 35.1883 8.48694 34.8546 8.14074 34.7933C7.86692 34.7616 7.64808 34.9551 7.45936 35.1251C7.25539 34.4675 6.98021 33.8356 6.74903 33.1882C6.55856 32.7257 6.41962 32.2426 6.20523 31.7905C6.09736 31.5662 5.88489 31.352 5.61956 31.3631C5.30308 31.3462 5.02868 31.612 4.98468 31.9173C4.71278 33.1655 4.46037 34.4176 4.18326 35.6645C4.02117 35.4711 3.89593 35.2196 3.6414 35.1342C3.29405 34.9874 2.85619 35.226 2.78904 35.5959C2.72381 35.8682 2.8917 36.1107 3.02736 36.3299C3.41022 36.9172 3.78478 37.5095 4.15741 38.1038C4.34922 38.4064 4.5146 38.7311 4.75987 38.9956C4.89089 39.1425 5.08348 39.2026 5.26352 39.266C5.34168 39.8881 5.4289 40.5096 5.48448 41.1344C4.61147 40.2354 3.72611 39.3487 2.85233 38.4499C2.59587 38.1905 2.35774 37.9041 2.0515 37.7022C1.60013 37.4448 0.962746 37.9414 1.14414 38.4447C1.35159 38.9245 1.81472 39.2183 2.13621 39.6141ZM4.79943 36.7193C5.0499 36.6631 5.31157 36.5143 5.37294 36.2453C5.53311 35.583 5.64156 34.9097 5.79265 34.2456C5.98698 34.6957 6.16779 35.1524 6.34475 35.6096C6.44297 35.8528 6.53328 36.109 6.72182 36.299C6.34784 36.8552 5.9617 37.4036 5.57228 37.9494C5.35229 37.5167 5.06688 37.1234 4.79943 36.7193Z" fill="#6F5138"/>
<path d="M23.4508 39.3719C25.3869 39.3699 27.3236 39.3757 29.2597 39.3686C29.7388 39.3796 30.178 38.9915 30.2303 38.5156C30.3316 37.9657 29.8913 37.3883 29.3301 37.3605C28.6178 37.3404 27.9048 37.358 27.1931 37.3682C26.0733 37.3346 24.9535 37.4038 23.8344 37.3552C23.6679 37.352 23.5 37.3429 23.3346 37.3649C22.9207 37.4297 22.5739 37.7781 22.5209 38.1959C22.4242 38.755 22.8698 39.3661 23.4508 39.3719Z" fill="#6F5138"/>
<path d="M13.4762 48.5721C13.0584 48.3516 12.5832 48.5346 12.1569 48.6302C7.80554 49.6669 3.94841 52.6219 1.8095 56.5558C0.258388 59.3646 -0.326126 62.6951 0.175023 65.8654C0.213039 66.2004 0.291965 66.5762 0.57795 66.7915C1.01523 67.144 1.74157 67.0379 2.04319 66.5581C2.29502 66.1797 2.15743 65.7083 2.11034 65.2924C1.79773 63.1454 2.14199 60.9317 2.9517 58.928C3.71954 57.0828 4.89687 55.4169 6.35053 54.0497C7.95587 52.5261 9.93711 51.4117 12.0554 50.7856C12.0554 55.7292 12.056 60.6727 12.0529 65.6156C12.0561 65.8801 12.0264 66.1563 12.1258 66.4085C12.2873 66.7908 12.7161 67.0157 13.1229 66.9763C13.6163 66.9542 14.0366 66.5022 14.0212 66.0069C14.0231 61.1346 14.0212 56.2615 14.0225 51.3884C14.0258 50.7429 14.0646 50.0974 14.0387 49.4521C14.0328 49.0817 13.8132 48.728 13.4762 48.5721Z" fill="#6F5138"/>
<path d="M52.5725 60.9556C52.0785 58.4049 50.894 56.0062 49.2449 54.0072C47.7279 52.1407 45.7544 50.6637 43.5755 49.6585C42.4493 49.136 41.2558 48.7732 40.0457 48.5062C39.7487 48.4376 39.4187 48.4486 39.1578 48.62C38.8936 48.7732 38.7387 49.0747 38.7387 49.3774C38.7381 54.9398 38.7387 60.5023 38.7387 66.0649C38.729 66.31 38.8427 66.5434 39.0235 66.7057C39.4349 67.1241 40.2201 67.0615 40.5405 66.5608C40.7865 66.229 40.6896 65.7996 40.7064 65.4167C40.7296 64.0373 40.7218 62.6578 40.707 61.2784C40.7083 57.7803 40.7051 54.2827 40.7083 50.7852C42.0715 51.2121 43.3947 51.7954 44.5836 52.5941C46.4182 53.782 47.9547 55.421 49.0409 57.3178C50.4467 59.7372 51.1443 62.6261 50.7142 65.4134C50.68 65.7348 50.5526 66.0724 50.6935 66.3867C50.8969 66.9809 51.7313 67.1867 52.213 66.8006C52.5488 66.5846 52.6178 66.1617 52.6611 65.7963C52.9185 64.1952 52.8986 62.5459 52.5725 60.9556Z" fill="#6F5138"/>
</g>
<defs>
<clipPath id="clip0_85_793">
<rect width="52.8374" height="67" fill="white"/>
</clipPath>
</defs>
</svg>
