<svg width="43" height="43" viewBox="0 0 43 43" fill="none" xmlns="http://www.w3.org/2000/svg">
<path d="M21.5 43C15.7589 43 10.3546 40.7592 6.29768 36.7023C2.2408 32.6308 0 27.2411 0 21.5C0 15.7589 2.2408 10.3546 6.29768 6.29768C10.3546 2.2408 15.7589 0 21.5 0C27.2411 0 32.6454 2.2408 36.7023 6.29768C40.7592 10.3546 43 15.7589 43 21.5C43 27.2411 40.7592 32.6454 36.7023 36.7023C32.6308 40.7445 27.2411 43 21.5 43ZM21.5 0.981267C10.1788 0.981267 0.981267 10.1788 0.981267 21.5C0.981267 32.8212 10.1935 42.0187 21.5 42.0187C32.8212 42.0187 42.0187 32.8065 42.0187 21.5C42.0187 10.1788 32.8212 0.981267 21.5 0.981267Z" fill="#6F5138"/>
<path d="M21.4927 40.0565C16.5278 40.0565 11.8704 38.1232 8.35546 34.6229C4.84047 31.1226 2.92188 26.4506 2.92188 21.4856C2.92188 17.1358 4.47433 12.9032 7.25702 9.57863C7.3449 9.47611 7.47671 9.41753 7.60852 9.41753C7.74033 9.40288 7.88679 9.46146 7.97467 9.54934L33.4437 35.0183C33.5462 35.1209 33.5901 35.2527 33.5755 35.3845C33.5608 35.5163 33.5023 35.6628 33.4144 35.736C30.0751 38.5333 25.8425 40.0565 21.4927 40.0565ZM7.65246 10.6331C5.22126 13.7087 3.8885 17.5459 3.8885 21.5003C3.8885 31.1958 11.7679 39.0899 21.4781 39.0899C25.4324 39.0899 29.2696 37.7571 32.3452 35.3259L7.65246 10.6331Z" fill="#6F5138"/>
<path d="M35.3662 33.5828C35.249 33.5828 35.1172 33.5389 35.0147 33.451L9.54569 7.98199C9.44317 7.87947 9.39923 7.74766 9.41388 7.61585C9.42852 7.48404 9.48711 7.33758 9.57498 7.26435C12.9142 4.48165 17.1322 2.9292 21.482 2.9292C26.4469 2.9292 31.1043 4.86244 34.6193 8.36278C38.1343 11.8631 40.0528 16.5351 40.0528 21.5C40.0528 25.8498 38.5004 30.0825 35.7177 33.4071C35.6298 33.5096 35.498 33.5682 35.3662 33.5828ZM10.6295 7.65979L35.3223 32.3526C37.7535 29.2623 39.0862 25.4251 39.0862 21.4854C39.0862 11.7899 31.2068 3.89582 21.4966 3.89582C17.5423 3.91047 13.7051 5.24323 10.6295 7.65979Z" fill="#6F5138"/>
<path d="M29.0822 27.3158C29.0529 27.3158 29.0089 27.3158 28.9797 27.3012C28.716 27.2572 28.5403 26.9936 28.5989 26.7154C28.6867 26.276 28.7307 25.8073 28.7307 25.3387C28.7307 24.0645 28.3938 22.8489 27.7494 21.7065L21.481 10.854L18.4933 16.0386C18.3761 16.2729 18.0686 16.3461 17.8196 16.229C17.5852 16.1118 17.512 15.8043 17.6292 15.5553L21.0563 9.63838C21.1442 9.49193 21.3053 9.3894 21.4664 9.3894C21.6275 9.3894 21.8032 9.47728 21.8765 9.63838L28.5696 21.2378C29.3019 22.5267 29.6827 23.9034 29.6827 25.3387C29.6827 25.8805 29.6387 26.3931 29.5362 26.9204C29.5216 27.1694 29.3165 27.3158 29.0822 27.3158Z" fill="#6F5138"/>
<path d="M21.5005 33.582C19.2304 33.582 17.136 32.6886 15.5982 31.0775C14.1336 29.5251 13.2695 27.4454 13.2695 25.351C13.2695 23.9011 13.6357 22.5244 14.3826 21.2502L16.0083 18.4529C16.1401 18.2185 16.433 18.1453 16.682 18.2625C16.9163 18.3943 16.9896 18.6872 16.8724 18.9362L15.2321 21.7335C14.5877 22.8466 14.2508 24.0769 14.2508 25.3657C14.2508 29.364 17.5022 32.6153 21.5005 32.6153C23.8291 32.6153 25.9381 31.5462 27.3148 29.6862C27.4613 29.4665 27.7835 29.4226 27.9885 29.5837C28.2082 29.7301 28.2522 30.0523 28.0911 30.2574C26.5386 32.381 24.1367 33.582 21.5005 33.582Z" fill="#6F5138"/>
</svg>
