<svg width="43" height="43" viewBox="0 0 43 43" fill="none" xmlns="http://www.w3.org/2000/svg">
<g clip-path="url(#clip0_254_92)">
<path d="M21.5 43C9.64633 43 0 33.3537 0 21.5C0 9.64633 9.64633 0 21.5 0C33.3537 0 43 9.64633 43 21.5C43 33.3537 33.3537 43 21.5 43ZM21.5 0.955556C10.1719 0.955556 0.955556 10.1719 0.955556 21.5C0.955556 32.8281 10.1719 42.0444 21.5 42.0444C32.8281 42.0444 42.0444 32.8281 42.0444 21.5C42.0444 10.1719 32.8281 0.955556 21.5 0.955556ZM21.5 40.5538C16.7939 40.5538 12.2741 38.8242 8.772 35.6757C8.67645 35.5897 8.61911 35.4654 8.61433 35.3317C8.60956 35.2027 8.66211 35.0737 8.75289 34.9829L12.8522 30.8836C13.0386 30.6972 13.3396 30.6972 13.5259 30.8836C13.7122 31.0699 13.7122 31.3709 13.5259 31.5572L9.78489 35.2982C13.0529 38.0741 17.1904 39.5982 21.4952 39.5982C31.4712 39.5982 39.5934 31.4808 39.5934 21.5C39.5934 17.0806 38.0216 12.9956 35.1501 9.933L24.6342 20.4537C24.4479 20.64 24.1469 20.64 23.9606 20.4537C23.7742 20.2673 23.7742 19.9663 23.9606 19.78L34.8204 8.92011C34.9112 8.82933 35.0307 8.78156 35.1597 8.78156C35.2839 8.78156 35.4081 8.83411 35.4989 8.92011C38.7573 12.1881 40.5538 16.6601 40.5538 21.5C40.5538 32.0063 32.0063 40.5538 21.5 40.5538ZM7.73522 34.4478C7.73044 34.4478 7.72567 34.4478 7.72567 34.4478C7.59667 34.443 7.47244 34.3857 7.38167 34.2901C4.19967 30.7832 2.44622 26.2396 2.44622 21.5C2.44622 10.9937 10.9937 2.44622 21.5 2.44622C26.2396 2.44622 30.7832 4.19967 34.2949 7.38167C34.3904 7.46767 34.4478 7.59189 34.4526 7.72567C34.4573 7.85467 34.4048 7.98367 34.314 8.07444L23.5544 18.8292C23.3681 19.0156 23.0671 19.0156 22.8808 18.8292C22.6944 18.6429 22.6944 18.3419 22.8808 18.1556L33.2772 7.75911C29.9949 4.945 25.8334 3.40178 21.5 3.40178C11.524 3.40178 3.40178 11.524 3.40178 21.5C3.40178 25.8334 4.945 29.9949 7.75433 33.2724L12.1451 28.8817C12.3314 28.6953 12.6324 28.6953 12.8188 28.8817C13.0051 29.068 13.0051 29.369 12.8188 29.5553L8.06967 34.3044C7.98367 34.4 7.86422 34.4478 7.73522 34.4478Z" fill="#6F5138"/>
<path d="M28.103 31.9967H14.7013C13.2585 31.9967 12.3411 31.6144 11.978 30.8643C11.6006 30.076 11.9111 29.0488 12.9001 27.8113C14.5962 25.69 18.6765 18.9199 19.2498 17.9595V11.1703L18.9106 11.1751C18.7911 11.1751 18.686 11.1703 18.6048 11.156C17.9837 11.0557 17.568 10.6113 17.568 10.0475C17.568 9.43599 18.0649 8.93433 18.6812 8.93433H23.7552C24.3668 8.93433 24.8685 9.43122 24.8685 10.0475C24.8685 10.6018 24.4528 11.0461 23.8365 11.1512C23.7552 11.1655 23.6549 11.1703 23.5355 11.1703L23.2536 11.1655V17.6442C23.8508 18.6237 28.1365 25.6088 29.9042 27.8065C30.898 29.0392 31.2086 30.0617 30.8311 30.8548C30.468 31.6144 29.5507 31.9967 28.103 31.9967ZM19.288 10.2148C19.8948 10.2148 20.2053 10.4154 20.2053 10.8072V18.0933C20.2053 18.1793 20.1815 18.2653 20.1385 18.337C19.9521 18.6523 15.5088 26.0818 13.6455 28.4085C12.9383 29.2972 12.6421 30.0378 12.838 30.4487C13.0196 30.8261 13.698 31.0411 14.6966 31.0411H28.0982C29.1016 31.0411 29.78 30.8261 29.9616 30.4487C30.1575 30.0378 29.866 29.2972 29.1541 28.4133C27.2191 26.0149 22.5608 18.3609 22.3601 18.036C22.3123 17.9595 22.2885 17.8735 22.2885 17.7875V10.8072C22.2885 10.5397 22.4413 10.2148 23.1723 10.2148L23.5259 10.2195C23.5785 10.2195 23.6262 10.2195 23.6645 10.2148C23.674 10.2148 23.9033 10.1718 23.9033 10.0523C23.9033 9.96633 23.8317 9.89466 23.7457 9.89466H18.6765C18.5905 9.89466 18.5188 9.96633 18.5188 10.0523C18.5188 10.1765 18.7386 10.2148 18.7481 10.2148C18.7911 10.2195 18.8485 10.2291 18.9058 10.2195L19.288 10.2148Z" fill="#6F5138"/>
<path d="M17.3958 28.6237C16.359 28.6237 15.198 28.423 13.8793 27.8927C13.6357 27.7924 13.5162 27.5153 13.6118 27.2716C13.7121 27.0279 13.9892 26.9037 14.2329 27.004C17.5105 28.3179 19.6222 27.4149 21.6576 26.5358C23.8219 25.6042 26.0579 24.6438 29.216 26.9419C29.431 27.0996 29.474 27.3958 29.3211 27.6108C29.1682 27.8258 28.8672 27.8688 28.6522 27.7159C25.9337 25.7379 24.2137 26.4785 22.035 27.4149C20.6877 27.993 19.2257 28.6237 17.3958 28.6237Z" fill="#6F5138"/>
</g>
<defs>
<clipPath id="clip0_254_92">
<rect width="43" height="43" fill="white"/>
</clipPath>
</defs>
</svg>
