<svg width="45" height="36" viewBox="0 0 45 36" fill="none" xmlns="http://www.w3.org/2000/svg">
<g clip-path="url(#clip0_291_236)">
<path d="M4.06262 11.3525C2.08808 12.0282 0.819239 13.0068 0.291678 14.2609C-0.218094 15.4726 -0.0607917 16.912 0.77248 18.6611L0.825846 18.7732L0.82632 18.7742C2.04472 21.3311 2.4126 22.1032 2.47003 25.7651C2.49442 27.3211 2.96913 28.4019 3.88092 28.9773C5.40084 29.9366 7.70676 29.2291 9.3733 28.4665C9.73786 28.2997 10.1042 28.1289 10.472 27.9573L10.5339 27.9285L10.5342 27.9284C14.0578 26.2845 17.701 24.5848 21.42 25.4767C24.2216 26.1075 26.2512 28.3053 28.2141 30.4308L28.2156 30.4324C28.5388 30.7826 28.8732 31.1447 29.2051 31.4931C31.3906 33.7881 32.7796 33.9019 35.9092 33.6293C35.9427 33.6265 35.976 33.6242 36.009 33.6226C35.4103 34.6025 34.9943 35.5934 34.9206 36.5268C34.8322 37.6475 35.4103 38.2637 35.9811 38.4665C36.1585 38.5295 36.3417 38.56 36.5262 38.56C37.1589 38.56 37.8011 38.2009 38.2387 37.5669C38.9363 36.5306 39.0118 35.2236 38.4306 34.2379C38.1241 33.7179 37.6667 33.3401 37.1211 33.1352C38.0862 31.7922 39.3409 30.4898 40.4026 29.4487C43.6325 26.28 45.2927 22.4869 44.9572 19.0415C44.6945 16.3443 43.2681 14.0716 40.8321 12.4696C38.2037 10.7413 37.3091 8.68516 36.2734 6.30486L36.2731 6.30408L36.2726 6.30302C35.8313 5.28889 35.375 4.2402 34.7514 3.11558C33.9974 1.75704 32.9489 1.01525 31.9484 1.13596C31.4028 1.20102 30.4102 1.58957 29.8918 3.46424C29.6026 4.51022 28.7998 5.67233 27.4951 5.51146C26.4326 5.37932 25.9297 4.46549 25.9122 3.67237C25.8736 1.92324 25.2555 0.69658 24.1722 0.218318C22.913 -0.337959 21.2302 0.181725 19.5548 1.64319C17.6701 3.28694 16.1877 3.49291 14.8801 3.6746L14.8797 3.67466C13.0759 3.92497 11.5181 4.14148 9.72679 7.54166C8.5075 9.85597 7.16192 10.3088 4.71928 11.1304L4.71106 11.1332C4.50194 11.2035 4.28612 11.276 4.06262 11.3525ZM37.8613 34.5731C38.3137 35.3408 38.2469 36.371 37.6926 37.1944C37.2413 37.8482 36.6189 37.9915 36.2024 37.8434C35.762 37.6869 35.5293 37.2142 35.5796 36.5784C35.6512 35.6704 36.0982 34.6829 36.7346 33.7004C37.21 33.8351 37.6026 34.1342 37.8613 34.5731ZM10.3113 7.84966C11.9444 4.74961 13.2797 4.56412 14.97 4.32934L14.9704 4.32928C16.3698 4.13513 17.9558 3.9148 19.9893 2.14127C21.4419 0.874466 22.9057 0.381466 23.9054 0.822625C24.7407 1.19136 25.2189 2.20862 25.2517 3.68686C25.2807 4.99229 26.1696 6.01209 27.4138 6.1671C28.4923 6.30204 29.954 5.71985 30.5289 3.6401C30.8366 2.52678 31.3687 1.87038 32.0264 1.79211C32.7428 1.70647 33.5639 2.3372 34.1735 3.43604C34.7821 4.53309 35.2322 5.56737 35.6672 6.5676L35.6675 6.56828C36.7454 9.04545 37.6763 11.1849 40.4689 13.0216C42.7324 14.51 44.0569 16.6139 44.2996 19.1053C44.6155 22.3507 43.0264 25.9486 39.9398 28.9765C38.8011 30.0936 37.4479 31.5045 36.4319 32.9744C36.2441 32.9551 36.0502 32.9538 35.8522 32.9708C32.8327 33.2333 31.6879 33.1416 29.6842 31.0372C29.3669 30.704 29.0456 30.3563 28.7341 30.0191L28.7015 29.9838C26.6695 27.7834 24.5684 25.5082 21.57 24.833C20.8028 24.649 20.0432 24.5672 19.2897 24.5672C16.1752 24.5672 13.1747 25.9669 10.2546 27.3295C9.86732 27.5102 9.48207 27.6899 9.09834 27.8655C6.95201 28.8474 5.22422 29.0436 4.23365 28.4187C3.52261 27.9699 3.15159 27.0739 3.13075 25.7552C3.07103 21.949 2.65554 21.0771 1.42228 18.4893L1.36891 18.3772C0.621531 16.8078 0.468294 15.5453 0.900813 14.5171C1.35214 13.4442 2.48782 12.5898 4.27659 11.9776C4.48323 11.907 4.68345 11.8395 4.87764 11.7741L4.92969 11.7566C7.36191 10.9385 8.96874 10.398 10.3113 7.84966Z" fill="#6F5138"/>
<path d="M4.06262 11.3525C2.08808 12.0282 0.819239 13.0068 0.291678 14.2609C-0.218094 15.4726 -0.0607917 16.912 0.77248 18.6611L0.825846 18.7732L0.82632 18.7742C2.04472 21.3311 2.4126 22.1032 2.47003 25.7651C2.49442 27.3211 2.96913 28.4019 3.88092 28.9773C5.40084 29.9366 7.70676 29.2291 9.3733 28.4665C9.73786 28.2997 10.1042 28.1289 10.472 27.9573L10.5339 27.9285L10.5342 27.9284C14.0578 26.2845 17.701 24.5848 21.42 25.4767C24.2216 26.1075 26.2512 28.3053 28.2141 30.4308L28.2156 30.4324C28.5388 30.7826 28.8732 31.1447 29.2051 31.4931C31.3906 33.7881 32.7796 33.9019 35.9092 33.6293C35.9427 33.6265 35.976 33.6242 36.009 33.6226C35.4103 34.6025 34.9943 35.5934 34.9206 36.5268C34.8322 37.6475 35.4103 38.2637 35.9811 38.4665C36.1585 38.5295 36.3417 38.56 36.5262 38.56C37.1589 38.56 37.8011 38.2009 38.2387 37.5669C38.9363 36.5306 39.0118 35.2236 38.4306 34.2379C38.1241 33.7179 37.6667 33.3401 37.1211 33.1352C38.0862 31.7922 39.3409 30.4898 40.4026 29.4487C43.6325 26.28 45.2927 22.4869 44.9572 19.0415C44.6945 16.3443 43.2681 14.0716 40.8321 12.4696C38.2037 10.7413 37.3091 8.68516 36.2734 6.30486L36.2731 6.30408L36.2726 6.30302C35.8313 5.28889 35.375 4.2402 34.7514 3.11558C33.9974 1.75704 32.9489 1.01525 31.9484 1.13596C31.4028 1.20102 30.4102 1.58957 29.8918 3.46424C29.6026 4.51022 28.7998 5.67233 27.4951 5.51146C26.4326 5.37932 25.9297 4.46549 25.9122 3.67237C25.8736 1.92324 25.2555 0.69658 24.1722 0.218318C22.913 -0.337959 21.2302 0.181725 19.5548 1.64319C17.6701 3.28694 16.1877 3.49291 14.8801 3.6746L14.8797 3.67466C13.0759 3.92497 11.5181 4.14148 9.72679 7.54166C8.5075 9.85597 7.16192 10.3088 4.71928 11.1304L4.71106 11.1332C4.50194 11.2035 4.28612 11.276 4.06262 11.3525ZM37.8613 34.5731C38.3137 35.3408 38.2469 36.371 37.6926 37.1944C37.2413 37.8482 36.6189 37.9915 36.2024 37.8434C35.762 37.6869 35.5293 37.2142 35.5796 36.5784C35.6512 35.6704 36.0982 34.6829 36.7346 33.7004C37.21 33.8351 37.6026 34.1342 37.8613 34.5731ZM10.3113 7.84966C11.9444 4.74961 13.2797 4.56412 14.97 4.32934L14.9704 4.32928C16.3698 4.13513 17.9558 3.9148 19.9893 2.14127C21.4419 0.874466 22.9057 0.381466 23.9054 0.822625C24.7407 1.19136 25.2189 2.20862 25.2517 3.68686C25.2807 4.99229 26.1696 6.01209 27.4138 6.1671C28.4923 6.30204 29.954 5.71985 30.5289 3.6401C30.8366 2.52678 31.3687 1.87038 32.0264 1.79211C32.7428 1.70647 33.5639 2.3372 34.1735 3.43604C34.7821 4.53309 35.2322 5.56737 35.6672 6.5676L35.6675 6.56828C36.7454 9.04545 37.6763 11.1849 40.4689 13.0216C42.7324 14.51 44.0569 16.6139 44.2996 19.1053C44.6155 22.3507 43.0264 25.9486 39.9398 28.9765C38.8011 30.0936 37.4479 31.5045 36.4319 32.9744C36.2441 32.9551 36.0502 32.9538 35.8522 32.9708C32.8327 33.2333 31.6879 33.1416 29.6842 31.0372C29.3669 30.704 29.0456 30.3563 28.7341 30.0191L28.7015 29.9838C26.6695 27.7834 24.5684 25.5082 21.57 24.833C20.8028 24.649 20.0432 24.5672 19.2897 24.5672C16.1752 24.5672 13.1747 25.9669 10.2546 27.3295C9.86732 27.5102 9.48207 27.6899 9.09834 27.8655C6.95201 28.8474 5.22422 29.0436 4.23365 28.4187C3.52261 27.9699 3.15159 27.0739 3.13075 25.7552C3.07103 21.949 2.65554 21.0771 1.42228 18.4893L1.36891 18.3772C0.621531 16.8078 0.468294 15.5453 0.900813 14.5171C1.35214 13.4442 2.48782 12.5898 4.27659 11.9776C4.48323 11.907 4.68345 11.8395 4.87764 11.7741L4.92969 11.7566C7.36191 10.9385 8.96874 10.398 10.3113 7.84966Z" stroke="#6F5138"/>
</g>
<defs>
<clipPath id="clip0_291_236">
<rect width="45" height="38.5597" rx="8" fill="white"/>
</clipPath>
</defs>
</svg>
