<svg width="57" height="38" viewBox="0 0 57 38" fill="none" xmlns="http://www.w3.org/2000/svg">
<g clip-path="url(#clip0_291_227)">
<path d="M13.4704 37.7766C13.4704 37.7766 16.4062 23.1394 0.516396 9.1853C0.516396 9.1853 20.7084 16.4262 18.643 37.9476L13.4704 37.7766Z" stroke="#6F5138" stroke-miterlimit="10" stroke-linecap="round" stroke-linejoin="round"/>
<path d="M21.9361 37.722C21.9361 37.722 24.8719 18.4376 8.98209 0.0524902C8.98209 0.0524902 29.1741 9.59236 27.1087 37.9476L21.9361 37.722Z" stroke="#6F5138" stroke-miterlimit="10" stroke-linecap="round" stroke-linejoin="round"/>
<path d="M43.9934 37.7766C43.9934 37.7766 41.0576 23.1394 56.9474 9.1853C56.9474 9.1853 36.7554 16.4262 38.8208 37.9476L43.9934 37.7766Z" stroke="#6F5138" stroke-miterlimit="10" stroke-linecap="round" stroke-linejoin="round"/>
<path d="M35.5277 37.722C35.5277 37.722 32.5919 18.4376 48.4817 0.0524902C48.4817 0.0524902 28.2897 9.59236 30.3551 37.9476L35.5277 37.722Z" stroke="#6F5138" stroke-miterlimit="10" stroke-linecap="round" stroke-linejoin="round"/>
</g>
<defs>
<clipPath id="clip0_291_227">
<rect width="56.5366" height="38" fill="white" transform="matrix(-1 0 0 1 57 0)"/>
</clipPath>
</defs>
</svg>
