<svg width="41" height="42" viewBox="0 0 41 42" fill="none" xmlns="http://www.w3.org/2000/svg">
<path d="M19.5356 41.9999C19.493 41.9999 19.4611 41.9999 19.4292 41.9893C19.2165 41.9468 14.1642 41.0427 9.21835 37.3944C6.29336 35.2352 4.03846 32.5762 2.48556 29.481C0.56038 25.62 -0.258617 21.0783 0.071109 15.9835C0.0923816 15.7495 0.230654 15.5368 0.454017 15.441C0.666743 15.3453 0.922015 15.3878 1.10283 15.5261L9.51617 22.3546C9.79271 22.5674 9.82462 22.9822 9.61189 23.2481C9.39917 23.5246 8.98435 23.5566 8.71844 23.3438L1.28365 17.313C1.06029 25.5349 3.97464 31.938 9.96289 36.3627C14.6748 39.8301 19.5888 40.7129 19.642 40.7236C19.9929 40.7768 20.2163 41.1065 20.1631 41.4575C20.1099 41.7872 19.8334 41.9999 19.5356 41.9999Z" fill="#6F5138"/>
<path d="M24.8632 10.0058C24.608 10.0058 24.374 9.85694 24.2782 9.6123C24.1506 9.29321 24.3101 8.9103 24.6292 8.78267L32.9894 5.37904C26.5331 0.826693 19.928 0.0289688 13.3441 3.00714C8.17483 5.34713 4.9733 9.24003 4.94139 9.28258C4.72866 9.55912 4.31385 9.59103 4.04794 9.3783C3.77139 9.16558 3.73948 8.75076 3.95221 8.48485C4.09048 8.31467 7.37711 4.32605 12.8123 1.85842C16.0244 0.40124 19.3217 -0.20503 22.5871 0.0608778C26.682 0.390604 30.7451 2.07114 34.6593 5.05995C34.8401 5.19823 34.9358 5.42159 34.9039 5.64495C34.872 5.86831 34.7231 6.05977 34.521 6.14486L25.1079 9.97394C25.0228 9.98457 24.9483 10.0058 24.8632 10.0058Z" fill="#6F5138"/>
<path d="M26.2898 41.8298C26.1196 41.8298 25.9601 41.766 25.8324 41.6383C25.6729 41.4682 25.6091 41.2342 25.6729 41.0002L28.5128 31.6615C28.6192 31.3211 28.9702 31.1296 29.3105 31.236C29.6509 31.3424 29.8423 31.6934 29.736 32.0337L27.2577 40.2024C34.1607 37.7454 38.2344 32.4698 39.3618 24.5032C40.2553 18.1533 38.8513 12.3991 38.8407 12.3353C38.7556 11.9949 38.9683 11.6439 39.3087 11.5588C39.649 11.4737 40 11.6864 40.0851 12.0268C40.1383 12.2714 41.5636 18.047 40.6382 24.6415C40.0851 28.5344 38.83 31.8955 36.8942 34.629C34.4585 38.0433 30.9591 40.4577 26.4919 41.7872C26.4068 41.8192 26.343 41.8298 26.2898 41.8298Z" fill="#6F5138"/>
<path d="M16.3557 13.218C13.7391 14.4412 12.0586 17.0684 12.0586 19.9721C12.0586 22.8864 13.7285 25.503 16.3557 26.7262C18.9722 25.503 20.6527 22.8758 20.6527 19.9721C20.6634 17.0684 18.9722 14.4518 16.3557 13.218ZM16.3557 28.0663C16.2706 28.0663 16.1855 28.0451 16.111 28.0238C12.8776 26.6517 10.7822 23.4927 10.7822 19.9827C10.7822 16.4727 12.8776 13.3137 16.111 11.9417C16.2706 11.8778 16.4514 11.8778 16.6109 11.9417C19.8444 13.3137 21.9397 16.4727 21.9397 19.9827C21.9397 23.4927 19.8444 26.6517 16.6109 28.0238C16.5258 28.0557 16.4408 28.0663 16.3557 28.0663Z" fill="#6F5138"/>
<path d="M21.419 27.4283C20.3128 27.4283 19.2066 27.2156 18.1324 26.7901C17.8133 26.6625 17.6537 26.2902 17.7814 25.9605C17.909 25.6414 18.2813 25.4818 18.611 25.6095C21.3871 26.7369 24.5567 26.0881 26.684 23.9715C28.7368 21.9187 29.4069 18.8767 28.4283 16.1538C25.9288 15.2497 23.1633 15.7283 21.1212 17.4301C20.8446 17.6535 20.4511 17.6216 20.2277 17.345C20.0044 17.0685 20.0363 16.675 20.3128 16.4516C22.7911 14.3881 26.1734 13.8563 29.1729 15.0689C29.3324 15.1327 29.4601 15.2603 29.5239 15.4199C30.8428 18.6746 30.0876 22.376 27.5987 24.8649C25.9182 26.5455 23.6845 27.4283 21.419 27.4283Z" fill="#6F5138"/>
<path d="M16.354 30.0869C16.003 30.0869 15.7158 29.7997 15.7158 29.4488V19.9824C15.7158 19.6314 16.003 19.3442 16.354 19.3442C16.705 19.3442 16.9922 19.6314 16.9922 19.9824V29.4488C16.9922 29.7997 16.705 30.0869 16.354 30.0869Z" fill="#6F5138"/>
</svg>
