<svg width="54" height="53" viewBox="0 0 54 53" fill="none" xmlns="http://www.w3.org/2000/svg">
<path d="M41.9759 19.6827C41.3081 19.8093 40.7122 20.1263 40.2418 20.5919L35.9278 18.1452C36.2621 16.8276 35.763 15.3815 34.5664 14.5771C33.8277 14.0754 32.9368 13.8935 32.0583 14.0601C31.1788 14.2267 30.42 14.7237 29.918 15.4596C28.8804 16.9761 29.2771 19.0477 30.8042 20.0797C30.8712 20.1244 30.9383 20.1663 31.0054 20.2063L29.758 24.9302C28.7981 24.9454 27.8563 25.3691 27.2163 26.1478L20.6566 23.2756C20.8329 22.0532 20.3223 20.7804 19.2282 20.0416C17.7021 19.0106 15.6155 19.4076 14.5779 20.9241C14.0759 21.6581 13.8929 22.5454 14.0606 23.4165C14.2282 24.2904 14.7283 25.0444 15.467 25.5452C15.945 25.867 16.4873 26.0574 17.0468 26.1059C17.3524 26.1345 17.6647 26.1192 17.977 26.0593C18.7559 25.9107 19.4438 25.5023 19.9391 24.8969L26.494 27.7691C26.4403 28.1327 26.4451 28.505 26.516 28.8753C26.6013 29.3142 26.7708 29.7245 27.0113 30.0882L23.8689 33.6763C22.4022 32.9794 20.5992 33.4297 19.6574 34.8054C19.1554 35.5413 18.9705 36.4266 19.1372 37.2977C19.3049 38.1717 19.805 38.9276 20.5455 39.4264C21.0322 39.7549 21.5744 39.9386 22.1234 39.9871C22.2547 39.9986 22.3849 40.0024 22.5162 39.9986L25.7707 36.7646C25.7889 36.0877 25.5963 35.4118 25.2169 34.8396L28.3612 31.2487C28.7205 31.4219 29.1065 31.5286 29.5013 31.5638C29.8088 31.5904 30.1221 31.5752 30.4315 31.5171C30.7707 31.4524 31.0926 31.3372 31.3867 31.182L32.7461 29.8311C33.5566 28.3498 33.1188 26.462 31.6837 25.4957C31.6185 25.4509 31.5495 25.4138 31.4825 25.3757L32.7298 20.6471C33.5825 20.6338 34.4169 20.3015 35.0416 19.6827L39.3575 22.1294C39.2569 22.5216 39.2282 22.93 39.2771 23.3403L43 19.6408C42.6656 19.6046 42.3198 19.618 41.9759 19.6827ZM18.639 23.6659C18.4043 24.0096 18.0498 24.24 17.6417 24.318C17.2307 24.3961 16.8159 24.3114 16.47 24.0781C15.7582 23.5964 15.5704 22.6301 16.0552 21.9199C16.3857 21.4382 16.9414 21.1993 17.4903 21.2478C17.7452 21.2697 17.9991 21.3563 18.2271 21.5096C18.9389 21.9913 19.1238 22.9576 18.639 23.6659ZM23.7195 37.5491C23.4848 37.8927 23.1303 38.126 22.7193 38.2031C22.3083 38.2811 21.8935 38.1945 21.5476 37.9613C21.2037 37.728 20.9699 37.3758 20.8914 36.9674C20.8128 36.5618 20.9 36.1467 21.1347 35.805C21.3694 35.4613 21.7239 35.2309 22.132 35.1528C22.2767 35.1243 22.4242 35.1176 22.567 35.131C22.8285 35.1528 23.0805 35.2414 23.3037 35.3928C23.3526 35.4261 23.3976 35.4613 23.4417 35.4994C23.4436 35.5013 23.4465 35.506 23.4503 35.5079C23.4522 35.5099 23.4551 35.5099 23.457 35.5127C23.7157 35.7393 23.8948 36.043 23.959 36.3867C24.0385 36.7932 23.9533 37.2073 23.7195 37.5491ZM31.0973 29.1257C30.8626 29.4675 30.5081 29.6997 30.0972 29.7778C29.6862 29.8559 29.2713 29.7692 28.9255 29.536C28.5815 29.3028 28.3478 28.9505 28.2692 28.545C28.2089 28.2365 28.2443 27.9261 28.365 27.6444C28.3698 27.6377 28.3717 27.6329 28.3765 27.6263C28.3765 27.6244 28.3765 27.6215 28.3784 27.6196C28.4139 27.5377 28.4589 27.4559 28.5097 27.3797C28.7444 27.036 29.0989 26.8056 29.5099 26.7276C29.6545 26.699 29.8021 26.6923 29.9448 26.7057C30.2064 26.7276 30.4583 26.8161 30.6816 26.9675C31.3943 27.4492 31.5792 28.4164 31.0973 29.1257ZM34.0433 18.0919C34.0433 18.0938 34.0414 18.0967 34.0385 18.0986V18.1005C34.0184 18.1338 33.9983 18.1671 33.9762 18.2004C33.7415 18.5422 33.3871 18.7745 32.9789 18.8526C32.5679 18.9306 32.1531 18.8459 31.8072 18.6126C31.0954 18.1309 30.9076 17.1618 31.3924 16.4544C31.6271 16.1108 31.9816 15.8804 32.3926 15.8023C32.5373 15.7738 32.6829 15.7671 32.8276 15.7804C33.0891 15.8023 33.3411 15.8937 33.5643 16.0422C33.9082 16.2755 34.142 16.6277 34.2205 17.0361C34.2895 17.4026 34.2263 17.773 34.0433 18.0919Z" fill="#6F5138"/>
<path d="M53.6989 27.9496C52.9252 26.283 50.9043 25.5413 49.1933 26.2944C47.4814 27.0475 46.7194 29.0147 47.4931 30.6784L44.0272 33.4888C43.0762 32.8505 41.8163 32.693 40.688 33.1901C39.6873 33.6302 39.015 34.4848 38.7792 35.4532L35.0542 35.5993C35.0474 35.5746 35.0386 35.5509 35.0269 35.5262L33.2613 37.2449C33.1074 37.576 32.8345 37.8567 32.4672 38.018L30.7016 39.7367C31.4958 40.006 32.3932 39.9909 33.2165 39.6285C34.2172 39.1884 34.8895 38.3319 35.1234 37.3635L38.8503 37.2203C38.8893 37.3398 38.9341 37.4564 38.9887 37.5741C39.5402 38.7625 40.7299 39.4787 41.9869 39.5185L42.8316 43.1712C41.6721 43.7744 40.9998 44.9591 41.0339 46.1808L35.2724 47.9042C34.378 46.5384 32.5617 45.9797 31.0027 46.6645C29.2907 47.4177 28.5288 49.3849 29.3024 51.0504C30.0761 52.717 32.0969 53.4587 33.808 52.7056C35.0932 52.1403 35.8444 50.8873 35.8074 49.5926L41.5689 47.871C42.4633 49.2369 44.2796 49.7956 45.8386 49.1089C47.5505 48.3576 48.3125 46.3885 47.5388 44.7248C46.9961 43.5534 45.8366 42.8421 44.6021 42.7823L43.7505 39.1012C45.2783 38.2703 45.9253 36.4235 45.1916 34.8452L48.6574 32.0348C49.6084 32.6731 50.8702 32.8306 51.9986 32.3355C53.7076 31.5823 54.4706 29.6161 53.6989 27.9496ZM33.0587 51.096C32.2616 51.4469 31.3174 51.1007 30.9569 50.3248C30.5964 49.5471 30.9521 48.628 31.751 48.2761C32.5481 47.9251 33.4923 48.2713 33.8528 49.0491C34.2133 49.8269 33.8576 50.745 33.0587 51.096ZM42.7439 37.6196C41.945 37.9705 41.0027 37.6243 40.6422 36.8484C40.2817 36.0707 40.6373 35.1516 41.4344 34.7997C42.2334 34.4506 43.1756 34.7949 43.5361 35.5727C43.8976 36.3505 43.5429 37.2677 42.7439 37.6196ZM43.7817 44.6812C44.5787 44.3303 45.5229 44.6765 45.8834 45.4524C46.2439 46.2301 45.8883 47.1473 45.0893 47.4983C44.2922 47.8492 43.3481 47.5049 42.9875 46.7271C42.626 45.9494 42.9827 45.0322 43.7817 44.6812ZM51.2493 30.7249C50.4522 31.0758 49.5081 30.7296 49.1475 29.9519C48.787 29.1741 49.1427 28.2569 49.9417 27.9059C50.7387 27.555 51.6829 27.9012 52.0434 28.6771C52.4049 29.4548 52.0483 30.3739 51.2493 30.7249Z" fill="#6F5138"/>
<path d="M49.7439 16L17 48.7476C17.4206 49.1654 17.8402 49.5832 18.2608 50L51 17.2572L49.7439 16Z" fill="#6F5138"/>
</svg>
