<svg width="43" height="43" viewBox="0 0 43 43" fill="none" xmlns="http://www.w3.org/2000/svg">
<g clip-path="url(#clip0_254_101)">
<path d="M21.5 43C9.64633 43 0 33.3537 0 21.5C0 9.64633 9.64633 0 21.5 0C33.3537 0 43 9.64633 43 21.5C43 33.3537 33.3537 43 21.5 43ZM21.5 0.955556C10.1719 0.955556 0.955556 10.1719 0.955556 21.5C0.955556 32.8281 10.1719 42.0444 21.5 42.0444C32.8281 42.0444 42.0444 32.8281 42.0444 21.5C42.0444 10.1719 32.8281 0.955556 21.5 0.955556Z" fill="#6F5138"/>
<path d="M7.73529 34.4478C7.73051 34.4478 7.72573 34.4478 7.72573 34.4478C7.59673 34.4431 7.47251 34.3905 7.38173 34.2902C4.19973 30.7833 2.44629 26.2396 2.44629 21.5001C2.44629 10.9937 10.9937 2.44629 21.5001 2.44629C26.2396 2.44629 30.7833 4.19973 34.2902 7.38173C34.3857 7.46773 34.4431 7.59196 34.4478 7.72573C34.4526 7.85473 34.4001 7.98373 34.3093 8.07451L26.7604 15.6234C26.5741 15.8097 26.2731 15.8097 26.0867 15.6234C25.9004 15.4371 25.9004 15.1361 26.0867 14.9497L33.2725 7.76396C29.995 4.94507 25.8335 3.40184 21.5001 3.40184C11.5241 3.40184 3.40184 11.5241 3.40184 21.5001C3.40184 25.8335 4.94507 29.995 7.7544 33.2725L12.3697 28.6572C12.5561 28.4708 12.8571 28.4708 13.0434 28.6572C13.2297 28.8435 13.2297 29.1445 13.0434 29.3308L8.07451 34.3093C7.98373 34.4001 7.86429 34.4478 7.73529 34.4478Z" fill="#6F5138"/>
<path d="M21.5 40.5539C16.7939 40.5539 12.2741 38.8195 8.77198 35.6757C8.67642 35.5897 8.61909 35.4655 8.61431 35.3317C8.60954 35.2027 8.66209 35.0737 8.75287 34.983L17.0089 26.727C17.1952 26.5406 17.4962 26.5406 17.6825 26.727C17.8689 26.9133 17.8689 27.2143 17.6825 27.4006L9.78965 35.2935C13.0576 38.0694 17.1952 39.5935 21.5 39.5935C31.476 39.5935 39.5982 31.4761 39.5982 21.4953C39.5982 17.0759 38.0215 12.9909 35.1549 9.9283L28.3274 16.7557C28.1411 16.9421 27.8401 16.9421 27.6538 16.7557C27.4674 16.5694 27.4674 16.2684 27.6538 16.0821L34.8204 8.91541C34.9112 8.82463 35.0306 8.77686 35.1596 8.77686C35.2886 8.77686 35.4081 8.82941 35.4989 8.91541C38.7573 12.1882 40.5538 16.6602 40.5538 21.5001C40.5538 32.0064 32.0063 40.5539 21.5 40.5539Z" fill="#6F5138"/>
<path d="M25.948 15.4896H24.9925C24.9925 13.2966 23.2056 11.5098 21.0126 11.5098C18.8196 11.5098 17.0327 13.2966 17.0327 15.4896H16.0771C16.0771 12.7663 18.2893 10.5542 21.0126 10.5542C23.7359 10.5542 25.948 12.7711 25.948 15.4896Z" fill="#6F5138"/>
<path d="M21.3943 20.0477H20.4388C20.4388 17.8547 18.6519 16.0679 16.4589 16.0679C14.2659 16.0679 12.479 17.8547 12.479 20.0477H11.5234C11.5234 17.3244 13.7355 15.1123 16.4589 15.1123C19.1822 15.1123 21.3943 17.3244 21.3943 20.0477Z" fill="#6F5138"/>
<path d="M20.9735 29.3308C18.2502 29.3308 16.0381 27.1187 16.0381 24.3954C16.0381 21.6721 18.2502 19.46 20.9735 19.46C23.6969 19.46 25.909 21.6721 25.909 24.3954C25.909 27.1187 23.6921 29.3308 20.9735 29.3308ZM20.9735 20.4155C18.7805 20.4155 16.9936 22.2024 16.9936 24.3954C16.9936 26.5884 18.7805 28.3753 20.9735 28.3753C23.1665 28.3753 24.9534 26.5884 24.9534 24.3954C24.9534 22.2024 23.1665 20.4155 20.9735 20.4155Z" fill="#6F5138"/>
<path d="M12.1112 29.3308C9.38789 29.3308 7.17578 27.1187 7.17578 24.3954C7.17578 21.6721 9.38789 19.46 12.1112 19.46C14.8346 19.46 17.0467 21.6721 17.0467 24.3954C17.0467 27.1187 14.8298 29.3308 12.1112 29.3308ZM12.1112 20.4155C9.91823 20.4155 8.13134 22.2024 8.13134 24.3954C8.13134 26.5884 9.91823 28.3753 12.1112 28.3753C14.3042 28.3753 16.0911 26.5884 16.0911 24.3954C16.0911 22.2024 14.3042 20.4155 12.1112 20.4155Z" fill="#6F5138"/>
<path d="M29.8319 29.3308C27.1086 29.3308 24.8965 27.1187 24.8965 24.3954C24.8965 21.6721 27.1086 19.46 29.8319 19.46C32.5553 19.46 34.7674 21.6721 34.7674 24.3954C34.7674 27.1187 32.5553 29.3308 29.8319 29.3308ZM29.8319 20.4155C27.6389 20.4155 25.852 22.2024 25.852 24.3954C25.852 26.5884 27.6389 28.3753 29.8319 28.3753C32.0249 28.3753 33.8118 26.5884 33.8118 24.3954C33.8118 22.2024 32.0297 20.4155 29.8319 20.4155Z" fill="#6F5138"/>
<path d="M30.3289 20.0477H29.3733C29.3733 17.8547 27.5865 16.0679 25.3935 16.0679C23.2005 16.0679 21.4136 17.8547 21.4136 20.0477H20.458C20.458 17.3244 22.6701 15.1123 25.3935 15.1123C28.1168 15.1123 30.3289 17.3244 30.3289 20.0477Z" fill="#6F5138"/>
<path d="M9.13945 24.7155C8.96267 24.7155 8.81934 24.5722 8.81934 24.3954C8.81934 22.5799 10.2957 21.1035 12.1064 21.1035C12.2832 21.1035 12.4266 21.2468 12.4266 21.4236C12.4266 21.6004 12.2832 21.7437 12.1064 21.7437C10.6444 21.7437 9.45478 22.9334 9.45478 24.3954C9.45956 24.5722 9.31622 24.7155 9.13945 24.7155Z" fill="#6F5138"/>
<path d="M17.9266 24.7155C17.7498 24.7155 17.6064 24.5722 17.6064 24.3954C17.6064 22.5799 19.0828 21.1035 20.8936 21.1035C21.0703 21.1035 21.2137 21.2468 21.2137 21.4236C21.2137 21.6004 21.0703 21.7437 20.8936 21.7437C19.4316 21.7437 18.2419 22.9334 18.2419 24.3954C18.2467 24.5722 18.1033 24.7155 17.9266 24.7155Z" fill="#6F5138"/>
<path d="M26.951 24.7155C26.7742 24.7155 26.6309 24.5722 26.6309 24.3954C26.6309 22.5799 28.1072 21.1035 29.918 21.1035C30.0947 21.1035 30.2381 21.2468 30.2381 21.4236C30.2381 21.6004 30.0947 21.7437 29.918 21.7437C28.456 21.7437 27.2663 22.9334 27.2663 24.3954C27.2711 24.5722 27.1277 24.7155 26.951 24.7155Z" fill="#6F5138"/>
<path d="M22.4129 20.1765C22.2361 20.1765 22.0928 20.0331 22.0928 19.8563C22.0928 18.0408 23.5691 16.5645 25.3799 16.5645C25.5567 16.5645 25.7 16.7078 25.7 16.8846C25.7 17.0613 25.5567 17.2047 25.3799 17.2047C23.9179 17.2047 22.7282 18.3943 22.7282 19.8563C22.733 20.0331 22.5897 20.1765 22.4129 20.1765Z" fill="#6F5138"/>
<path d="M17.9695 15.7285C17.7927 15.7285 17.6494 15.5851 17.6494 15.4083C17.6494 13.5928 19.1257 12.1165 20.9365 12.1165C21.1133 12.1165 21.2566 12.2598 21.2566 12.4366C21.2566 12.6133 21.1133 12.7567 20.9365 12.7567C19.4745 12.7567 18.2849 13.9463 18.2849 15.4083C18.2849 15.5851 18.1463 15.7285 17.9695 15.7285Z" fill="#6F5138"/>
<path d="M13.4256 20.2722C13.2488 20.2722 13.1055 20.1288 13.1055 19.952C13.1055 18.1365 14.5818 16.6602 16.3926 16.6602C16.5694 16.6602 16.7127 16.8035 16.7127 16.9803C16.7127 17.157 16.5694 17.3004 16.3926 17.3004C14.9306 17.3004 13.7409 18.49 13.7409 19.952C13.7457 20.1288 13.6024 20.2722 13.4256 20.2722Z" fill="#6F5138"/>
</g>
<defs>
<clipPath id="clip0_254_101">
<rect width="43" height="43" fill="white"/>
</clipPath>
</defs>
</svg>
