<svg width="25" height="15" viewBox="0 0 25 15" fill="none" xmlns="http://www.w3.org/2000/svg">
<g clip-path="url(#clip0_249_20)">
<path fill-rule="evenodd" clip-rule="evenodd" d="M19.2331 5.3578C18.6685 5.43927 18.1818 5.93525 18.2807 6.6161C18.3618 7.17402 18.882 7.65737 19.5341 7.55446C20.0833 7.46751 20.5495 6.95271 20.457 6.29831C20.3806 5.75396 19.8663 5.26632 19.2331 5.3578ZM19.2364 4.66052C18.2899 4.7358 17.5064 5.55695 17.5911 6.60538C17.6673 7.55065 18.489 8.33726 19.5254 8.25127C20.4506 8.17432 21.2322 7.34006 21.1468 6.30617C21.0697 5.36923 20.2562 4.57952 19.2364 4.66052ZM2.50401 11.3167C4.80514 11.3167 6.9541 10.6414 9.47958 10.6414C10.4648 10.6414 11.3929 10.8103 12.0371 11.2948C12.1862 11.4068 12.2603 11.4954 12.3516 11.5707C12.399 11.6097 12.4139 11.619 12.466 11.6657C12.8298 11.9923 13.46 12.4138 13.9004 12.6675C15.3404 13.4972 17.1497 14.043 19.1083 14.043C21.1978 14.043 23.6923 13.2166 23.6923 11.1602L23.6916 9.59032C23.6256 9.62558 23.5633 9.72254 23.5053 9.78162C23.438 9.84975 23.3727 9.89811 23.3069 9.96433C22.9818 10.2914 22.3059 10.67 21.8718 10.8498C19.2425 11.9397 16.0645 11.1033 13.8053 9.7778C13.4262 9.55554 13.1025 9.33876 12.7607 9.11006C12.3646 8.84468 12.119 8.61098 11.7772 8.36133C10.9491 7.75695 9.79217 7.69501 8.66426 7.69501C6.89418 7.69501 5.11395 8.0533 3.35709 8.0533C2.66514 8.0533 2.06828 8.0433 1.39993 7.83509C1.23337 7.78316 1.09559 7.69859 0.950742 7.65213C0.950742 8.52165 0.950978 9.39141 0.950742 10.2609C0.950742 10.7567 0.989432 10.9758 1.36761 11.1407C1.68562 11.2791 2.12372 11.3167 2.50401 11.3167ZM3.12943 7.09564C5.11136 7.09564 6.85171 6.73473 8.96741 6.73473C9.96698 6.73473 11.072 6.87838 11.8588 7.28336C12.2702 7.4949 12.5321 7.74742 12.8579 7.99684C13.178 8.24126 13.5159 8.47972 13.8822 8.70461C15.2399 9.53839 17.0827 10.3886 19.0703 10.3886C20.3751 10.3886 21.4566 10.1351 22.3656 9.49241C23.1127 8.96379 23.6921 8.20314 23.6921 6.81525C23.6921 4.34964 21.7203 2.99843 19.9212 2.22349C17.9384 1.36946 15.2272 0.963522 12.8343 0.963522H12.3983C9.64708 0.963522 6.34426 1.51358 4.1106 2.54199C2.91309 3.09348 1.89158 3.76861 1.32349 4.70459C1.05384 5.14911 0.715534 6.15299 1.15882 6.60442C1.38388 6.8336 1.66887 6.93508 2.0001 7.00011C2.36152 7.0711 2.75031 7.09564 3.12943 7.09564ZM0 6.08772V10.5092C0 12.0221 1.4556 12.2787 2.6366 12.2787C4.9599 12.2787 8.9115 11.1919 10.8514 11.7653C11.0588 11.8263 11.2447 11.9082 11.4006 12.0142L12.2865 12.7468C12.4427 12.8661 12.5873 12.9714 12.7624 13.0889C14.5773 14.311 16.7496 14.9999 19.1462 14.9999C21.2671 14.9999 23.125 14.2676 24.0191 13.0748C24.6709 12.2051 24.6407 11.5423 24.6407 10.279L24.6431 6.77666C24.6431 5.56386 24.2652 4.63622 23.6048 3.72954C23.5152 3.60662 23.4298 3.51966 23.3363 3.40746C23.1632 3.1983 22.9641 3.0101 22.7565 2.82572C22.1657 2.29996 21.3483 1.81946 20.6037 1.47689C16.1489 -0.570401 9.07215 -0.363147 4.53667 1.3261C3.2514 1.80493 2.27942 2.36952 1.40535 3.12159C1.2211 3.28001 0.869351 3.67975 0.71978 3.88391C0.252194 4.52163 0 5.19009 0 6.08772Z" fill="#FDF9F3"/>
</g>
<defs>
<clipPath id="clip0_249_20">
<rect width="24.6429" height="15" fill="white"/>
</clipPath>
</defs>
</svg>
