<svg width="24" height="24" viewBox="0 0 24 24" fill="none" xmlns="http://www.w3.org/2000/svg">
<g clip-path="url(#clip0_282_139)">
<path d="M21.605 18.4664C21.6071 18.3545 21.5513 18.2983 21.439 18.2983H21.0278C20.9205 18.2983 20.8689 18.352 20.8714 18.4594C20.8924 19.5221 20.8994 20.4705 20.8924 21.3045C20.8879 21.8115 20.7475 22.1806 20.4696 22.4069C20.2921 22.5518 19.949 22.624 19.4395 22.6265C16.0176 22.6311 10.7597 22.6219 3.66609 22.5984C3.01209 22.596 2.53318 22.5026 2.23179 22.3156C1.72972 22.0051 1.47991 21.5262 1.47991 20.8768C1.475 16.0115 1.47289 10.4641 1.47043 4.23463C1.47043 4.20657 1.50096 4.18797 1.52657 4.202C1.93076 4.44971 2.36512 4.59672 2.82754 4.64584C2.84158 4.64829 3.28997 4.64829 4.17518 4.6504C13.3406 4.66198 18.4491 4.65285 19.5002 4.62689C20.4416 4.60338 20.9065 5.05914 20.8994 5.99312C20.897 6.27591 20.8924 7.21936 20.8829 8.82418C20.8829 8.91751 20.9296 8.96417 21.0233 8.96417H21.4461C21.5443 8.96417 21.5934 8.91505 21.5934 8.81716C21.598 7.29199 21.6029 6.43696 21.6054 6.25486C21.6169 5.5542 21.505 5.03774 21.2713 4.70864C20.9093 4.20165 20.3767 3.94483 19.676 3.94272C17.9358 3.9357 12.3301 3.93325 2.86333 3.93816C2.10899 3.93816 1.42693 3.22803 1.48061 2.44106C1.5178 1.93197 1.74936 1.54638 2.17215 1.28253C2.41248 1.13307 2.80965 1.05834 3.36085 1.05588C8.2402 1.0443 13.1196 1.04185 17.9989 1.05132C18.4382 1.05132 18.7487 1.105 18.9287 1.21236C19.5546 1.58146 19.4683 2.42001 19.4378 3.0319C19.4332 3.15821 19.4939 3.22101 19.6199 3.22101H19.9679C20.0802 3.22101 20.1384 3.16487 20.1454 3.05506C20.1826 2.28668 20.1546 1.79619 20.0588 1.57901C19.6967 0.761512 19.1641 0.352765 18.4564 0.352765C13.4999 0.345748 8.54579 0.343292 3.59171 0.343292C2.92614 0.343292 2.44476 0.396973 2.14829 0.506791C1.61814 0.700814 1.23711 1.03693 1.0038 1.52041C0.83328 1.87337 0.746618 2.52947 0.749074 3.48942C0.75153 6.74781 0.756091 12.3489 0.763108 20.2951C0.763108 20.9912 0.837841 21.5122 0.989761 21.8578C1.23255 22.4114 1.61814 22.8132 2.14373 23.063C2.543 23.2521 3.26962 23.3457 4.31833 23.3433C9.49416 23.3293 14.6728 23.3222 19.8511 23.3222C20.503 23.3222 21.0005 23.0279 21.3436 22.437C21.5327 22.1076 21.6215 21.596 21.6075 20.9024C21.5955 20.3021 21.5934 19.4916 21.605 18.4664Z" fill="#6F5138"/>
<path d="M22.5999 10.3963L14.1983 10.3823C12.3436 10.3777 10.8371 11.8141 10.835 13.5891V13.6639C10.8325 15.4392 12.3321 16.8802 14.1891 16.8847L22.5907 16.8988C23.2286 16.8988 23.7468 16.3826 23.7468 15.7448L23.7563 11.5545C23.7559 10.9149 23.2398 10.3963 22.5999 10.3963ZM23.0388 15.8244C23.0388 16.0206 22.8798 16.177 22.6862 16.177L14.1376 16.163C12.6963 16.1606 11.5307 15.035 11.5332 13.6498V13.6032C11.5356 12.218 12.7057 11.097 14.1467 11.0991L22.6956 11.1131C22.8897 11.1131 23.0483 11.2721 23.0483 11.4657L23.0388 15.8244Z" fill="#6F5138"/>
<path d="M14.051 12.2019C13.2595 12.2019 12.6167 12.8443 12.6167 13.6358C12.6167 14.4277 13.2591 15.0701 14.051 15.0701C14.8429 15.0701 15.4853 14.4277 15.4853 13.6358C15.4853 12.8443 14.8429 12.2019 14.051 12.2019ZM14.0419 14.3624C13.6426 14.3624 13.3202 14.04 13.3202 13.6407C13.3202 13.2414 13.6426 12.919 14.0419 12.919C14.4411 12.919 14.7636 13.2414 14.7636 13.6407C14.7636 14.04 14.4411 14.3624 14.0419 14.3624Z" fill="#6F5138"/>
</g>
<defs>
<clipPath id="clip0_282_139">
<rect width="23.007" height="23" fill="white" transform="translate(0.749023 0.343292)"/>
</clipPath>
</defs>
</svg>
