<svg width="30" height="30" viewBox="0 0 30 30" fill="none" xmlns="http://www.w3.org/2000/svg">
<g clip-path="url(#clip0_263_2)">
<path d="M27.2034 23.6388C27.2062 23.4928 27.1334 23.4196 26.987 23.4196H26.4506C26.3106 23.4196 26.2433 23.4896 26.2465 23.6297C26.274 25.0159 26.2831 26.2529 26.274 27.3407C26.268 28.0019 26.085 28.4834 25.7225 28.7786C25.4909 28.9676 25.0434 29.0618 24.3789 29.065C19.9155 29.071 13.0574 29.0591 3.80487 29.0284C2.95183 29.0252 2.32715 28.9035 1.93404 28.6596C1.27916 28.2546 0.953325 27.6299 0.953325 26.7828C0.946918 20.4367 0.944173 13.201 0.940969 5.07566C0.940969 5.03905 0.980784 5.0148 1.01419 5.0331C1.54139 5.35619 2.10794 5.54794 2.71111 5.61201C2.72942 5.61522 3.31428 5.61522 4.4689 5.61796C16.4238 5.63307 23.087 5.62117 24.4581 5.5873C25.6859 5.55664 26.2923 6.15111 26.2831 7.36934C26.2799 7.7382 26.274 8.96879 26.2616 11.062C26.2616 11.1838 26.3225 11.2446 26.4447 11.2446H26.9961C27.1242 11.2446 27.1883 11.1806 27.1883 11.0529C27.1943 9.06352 27.2007 7.94826 27.2039 7.71074C27.219 6.79684 27.073 6.1232 26.7682 5.69393C26.2959 5.03264 25.6012 4.69765 24.6873 4.69491C22.4174 4.68575 15.1058 4.68255 2.75779 4.68896C1.77387 4.68896 0.884222 3.7627 0.954241 2.73622C1.00275 2.07218 1.30479 1.56924 1.85624 1.2251C2.16973 1.03014 2.68777 0.932666 3.40672 0.929463C9.77109 0.914361 16.1355 0.911157 22.4998 0.923513C23.0728 0.923513 23.4778 0.993532 23.7126 1.13357C24.529 1.615 24.4164 2.70876 24.3766 3.50688C24.3706 3.67163 24.4498 3.75355 24.6141 3.75355H25.0681C25.2145 3.75355 25.2905 3.68032 25.2996 3.53708C25.3482 2.53486 25.3115 1.89508 25.1866 1.6118C24.7143 0.545505 24.0196 0.0123562 23.0966 0.0123562C16.6315 0.00320347 10.1697 0 3.70785 0C2.83971 0 2.21183 0.0700186 1.82512 0.213259C1.13363 0.466333 0.63664 0.90475 0.332311 1.53538C0.109899 1.99576 -0.00313723 2.85154 6.62313e-05 4.10364C0.00326969 8.35372 0.00921898 15.6595 0.0183717 26.024C0.0183717 26.932 0.115849 27.6116 0.314006 28.0624C0.630691 28.7845 1.13363 29.3085 1.81918 29.6343C2.33997 29.881 3.28773 30.0032 4.65561 30C11.4067 29.9817 18.1614 29.9725 24.9157 29.9725C25.766 29.9725 26.4149 29.5886 26.8625 28.8179C27.1091 28.3882 27.2249 27.721 27.2066 26.8162C27.1911 26.0332 27.1883 24.976 27.2034 23.6388Z" fill="#6F5138"/>
<path d="M28.5008 13.1127L17.5422 13.0944C15.1231 13.0884 13.158 14.962 13.1553 17.2772V17.3747C13.1521 19.6903 15.108 21.5698 17.5303 21.5758L28.4889 21.5941C29.3209 21.5941 29.9968 20.9209 29.9968 20.0889L30.0092 14.6233C30.0087 13.7891 29.3355 13.1127 28.5008 13.1127ZM29.0733 20.1928C29.0733 20.4486 28.866 20.6527 28.6134 20.6527L17.463 20.6344C15.583 20.6312 14.0628 19.1631 14.066 17.3564V17.2955C14.0692 15.4887 15.5954 14.0266 17.4749 14.0293L28.6257 14.0476C28.8788 14.0476 29.0857 14.2549 29.0857 14.5076L29.0733 20.1928Z" fill="#6F5138"/>
<path d="M17.3503 15.4677C16.3179 15.4677 15.4795 16.3056 15.4795 17.3381C15.4795 18.371 16.3174 19.2089 17.3503 19.2089C18.3832 19.2089 19.2211 18.371 19.2211 17.3381C19.2211 16.3056 18.3832 15.4677 17.3503 15.4677ZM17.3384 18.2858C16.8176 18.2858 16.3971 17.8653 16.3971 17.3445C16.3971 16.8237 16.8176 16.4031 17.3384 16.4031C17.8592 16.4031 18.2798 16.8237 18.2798 17.3445C18.2798 17.8653 17.8592 18.2858 17.3384 18.2858Z" fill="#6F5138"/>
</g>
<defs>
<clipPath id="clip0_263_2">
<rect width="30.0092" height="30" fill="white"/>
</clipPath>
</defs>
</svg>
