<svg width="61" height="44" viewBox="0 0 61 44" fill="none" xmlns="http://www.w3.org/2000/svg">
<g clip-path="url(#clip0_87_901)">
<path d="M60.1739 0.8125H0.826111V38.6566H60.1739V0.8125Z" fill="white"/>
<path d="M60.1739 39.4686H0.826097C0.369678 39.4686 0 39.1051 0 38.6564V0.812258C0 0.363485 0.369678 0 0.826097 0H60.1739C60.6303 0 61 0.363485 61 0.812258V38.6564C61 39.1051 60.6303 39.4686 60.1739 39.4686ZM1.65219 37.8441H59.3478V1.62452H1.65219V37.8441Z" fill="#6F5138"/>
<path d="M37.7568 19.734L23.2422 11.4946V27.9743L37.7568 19.734L23.2422 11.4946V27.9743L37.7568 19.734Z" fill="white"/>
<path d="M23.2422 28.7866C23.0997 28.7866 22.9572 28.75 22.8292 28.678C22.5731 28.5328 22.4161 28.2647 22.4161 27.9743V11.4946C22.4161 11.2043 22.5731 10.9362 22.8292 10.791C23.0853 10.6458 23.3992 10.6458 23.6553 10.791L38.1698 19.0304C38.4259 19.1756 38.5828 19.4436 38.5828 19.734C38.5828 20.0244 38.4259 20.2924 38.1698 20.4376L23.6553 28.6769C23.5283 28.75 23.3847 28.7866 23.2422 28.7866ZM24.0683 12.9019V26.5671L36.1046 19.734L24.0683 12.9019Z" fill="#6F5138"/>
<path d="M46.4442 44H14.5548C14.0984 44 13.7287 43.6365 13.7287 43.1877C13.7287 42.739 14.0984 42.3755 14.5548 42.3755H46.4442C46.9006 42.3755 47.2703 42.739 47.2703 43.1877C47.2703 43.6365 46.9006 44 46.4442 44Z" fill="#6F5138"/>
</g>
<defs>
<clipPath id="clip0_87_901">
<rect width="61" height="44" fill="white"/>
</clipPath>
</defs>
</svg>
