<svg width="358" height="138" viewBox="0 0 358 138" fill="none" xmlns="http://www.w3.org/2000/svg">
<g opacity="0.55" clip-path="url(#clip0_104_7767)">
<path d="M236.03 67.47C236.96 63.44 237.98 59.42 239.31 55.49C240.62 51.55 242.21 47.69 244.17 44C246.15 40.33 248.49 36.82 251.32 33.73C254.13 30.63 257.44 27.99 261.09 26.02C257.76 28.49 254.81 31.36 252.22 34.51C249.64 37.67 247.42 41.11 245.51 44.71C243.57 48.31 241.94 52.07 240.42 55.89C238.92 59.72 237.53 63.61 236.03 67.47Z" fill="#6F5138"/>
<path d="M232.42 66.8802C233.04 62.8402 233.74 58.8102 234.76 54.8402C235.76 50.8602 237.05 46.9502 238.73 43.1702C240.42 39.4102 242.5 35.8002 245.11 32.5802C247.69 29.3502 250.8 26.5502 254.29 24.4102C251.15 27.0302 248.41 30.0402 246.06 33.3002C243.72 36.5702 241.76 40.1102 240.13 43.7902C238.47 47.4602 237.13 51.2902 235.91 55.1602C234.7 59.0302 233.61 62.9602 232.42 66.8802Z" fill="#6F5138"/>
<path d="M227.65 68.2002C227.4 66.2402 227.68 64.2202 228.26 62.3102C228.88 60.4002 229.83 58.6102 230.98 56.9702C233.32 53.7002 236.32 51.0002 239.52 48.6702C242.74 46.3402 246.18 44.3702 249.73 42.6602C253.28 40.9502 256.96 39.5102 260.74 38.4302C257.17 40.0702 253.69 41.8502 250.27 43.7202C248.57 44.6802 246.88 45.6302 245.24 46.6702C243.59 47.6902 241.97 48.7602 240.41 49.9102C237.27 52.1602 234.34 54.7202 231.92 57.6902C229.58 60.6802 227.77 64.2402 227.65 68.2002Z" fill="#6F5138"/>
<path d="M223.99 66.8801C222.83 64.3901 222.7 61.5301 222.86 58.8101C223.02 56.0701 223.56 53.3701 224.28 50.7501C225.02 48.1301 225.9 45.5501 226.98 43.0601C228.05 40.5701 229.25 38.1301 230.69 35.8301L228.09 43.4801C227.24 46.0301 226.44 48.5801 225.74 51.1501C225 53.7101 224.42 56.3101 224.03 58.9301C223.68 61.5501 223.44 64.2101 223.99 66.8801Z" fill="#6F5138"/>
<path d="M219.99 67.9703C218.72 64.4003 217.66 60.6703 217.42 56.8203C217.15 54.9103 217.28 52.9803 217.26 51.0603C217.43 49.1503 217.54 47.2103 217.92 45.3303C218.59 41.5403 219.68 37.8203 221.25 34.3203C222.79 30.8103 224.76 27.4803 227.2 24.5503C226.23 26.1903 225.33 27.8503 224.55 29.5703C224.14 30.4203 223.78 31.2903 223.39 32.1503L222.35 34.7703C221.03 38.2903 220.04 41.9103 219.42 45.6003C219.02 47.4303 218.91 49.3003 218.7 51.1603C218.64 53.0303 218.48 54.9003 218.61 56.7703C218.64 60.5203 219.29 64.2303 219.99 67.9703Z" fill="#6F5138"/>
<path d="M240.85 66.13C240.83 64.18 241.71 62.31 242.72 60.68C243.75 59.03 245.01 57.55 246.37 56.19C247.74 54.85 249.19 53.59 250.74 52.48C252.29 51.36 253.9 50.33 255.64 49.52C252.89 52.18 250.07 54.64 247.44 57.28C246.1 58.57 244.85 59.94 243.69 61.37C242.55 62.81 241.46 64.31 240.85 66.13Z" fill="#6F5138"/>
<path d="M73.27 83.1097C74.2 79.0797 75.22 75.0597 76.55 71.1297C77.86 67.1897 79.45 63.3297 81.41 59.6397C83.39 55.9697 85.73 52.4597 88.56 49.3697C91.37 46.2697 94.68 43.6297 98.33 41.6597C95 44.1297 92.05 46.9997 89.46 50.1497C86.88 53.3097 84.66 56.7497 82.75 60.3497C80.81 63.9497 79.18 67.7097 77.66 71.5297C76.16 75.3597 74.76 79.2497 73.27 83.1097Z" fill="#6F5138"/>
<path d="M69.66 82.5198C70.28 78.4798 70.98 74.4498 72 70.4798C73 66.4998 74.29 62.5898 75.97 58.8098C77.66 55.0498 79.74 51.4398 82.35 48.2198C84.93 44.9898 88.04 42.1898 91.53 40.0498C88.39 42.6698 85.65 45.6798 83.3 48.9398C80.96 52.2098 79 55.7498 77.37 59.4298C75.71 63.0998 74.37 66.9298 73.15 70.7998C71.94 74.6798 70.85 78.6098 69.66 82.5198Z" fill="#6F5138"/>
<path d="M64.88 83.8496C64.63 81.8896 64.91 79.8696 65.49 77.9596C66.11 76.0496 67.06 74.2596 68.21 72.6196C70.55 69.3496 73.55 66.6496 76.75 64.3196C79.97 61.9896 83.41 60.0196 86.96 58.3096C90.51 56.5996 94.19 55.1596 97.97 54.0796C94.4 55.7196 90.92 57.4996 87.5 59.3696C85.8 60.3296 84.11 61.2796 82.47 62.3196C80.82 63.3396 79.2 64.4096 77.64 65.5596C74.5 67.8096 71.57 70.3696 69.15 73.3396C66.81 76.3196 65.01 79.8796 64.88 83.8496Z" fill="#6F5138"/>
<path d="M61.23 82.5197C60.07 80.0297 59.94 77.1697 60.1 74.4497C60.26 71.7097 60.8 69.0097 61.52 66.3897C62.26 63.7697 63.14 61.1897 64.22 58.6997C65.29 56.2097 66.49 53.7697 67.93 51.4697L65.33 59.1197C64.48 61.6697 63.68 64.2197 62.98 66.7897C62.24 69.3497 61.66 71.9497 61.27 74.5697C60.91 77.1897 60.68 79.8597 61.23 82.5197Z" fill="#6F5138"/>
<path d="M57.23 83.6197C55.96 80.0497 54.9 76.3197 54.66 72.4697C54.39 70.5597 54.52 68.6297 54.5 66.7097C54.67 64.7997 54.78 62.8597 55.16 60.9797C55.83 57.1897 56.92 53.4697 58.49 49.9697C60.03 46.4597 62 43.1297 64.44 40.1997C63.47 41.8397 62.57 43.4997 61.79 45.2197C61.38 46.0697 61.02 46.9397 60.63 47.7997L59.59 50.4197C58.27 53.9397 57.28 57.5597 56.66 61.2497C56.26 63.0797 56.15 64.9497 55.94 66.8097C55.88 68.6797 55.72 70.5497 55.85 72.4197C55.87 76.1597 56.53 79.8697 57.23 83.6197Z" fill="#6F5138"/>
<path d="M50.47 83.1098C50.18 81.6198 49.99 80.1298 49.74 78.6598C49.49 77.1798 49.16 75.7198 48.91 74.2598C48.57 72.8098 48.23 71.3698 47.86 69.9298L47.21 67.8098L46.89 66.7498L46.49 65.7198C45.52 62.9398 44.18 60.2998 42.5 57.8998C42.11 57.2798 41.59 56.7598 41.15 56.1598C40.66 55.6198 40.17 55.0598 39.62 54.5798C38.57 53.5398 37.35 52.6798 35.98 52.0498C37.47 52.3498 38.84 53.1198 40.09 53.9998C40.72 54.4398 41.29 54.9698 41.87 55.4698C42.39 56.0298 42.97 56.5598 43.44 57.1698C45.41 59.5498 46.88 62.3098 47.91 65.1898L48.31 66.2698L48.63 67.3698L49.25 69.5698C49.55 71.0598 49.87 72.5498 50.07 74.0598C50.22 75.5698 50.4 77.0798 50.47 78.5898C50.48 80.0998 50.52 81.6098 50.47 83.1098Z" fill="#6F5138"/>
<path d="M78.09 81.7697C78.07 79.8197 78.95 77.9497 79.96 76.3197C80.99 74.6697 82.25 73.1897 83.61 71.8297C84.98 70.4897 86.43 69.2297 87.98 68.1197C89.53 66.9997 91.14 65.9697 92.88 65.1597C90.13 67.8197 87.31 70.2797 84.68 72.9197C83.34 74.2097 82.09 75.5797 80.93 77.0097C79.79 78.4497 78.69 79.9497 78.09 81.7697Z" fill="#6F5138"/>
<path d="M0 9.16996C23.59 4.71996 47.5 1.99996 71.48 0.679959L80.48 0.299959C83.48 0.129959 86.49 0.169959 89.49 0.0999586L94 0.0299586C95.5 -4.14047e-05 97 -0.0200414 98.5 0.0199586L107.51 0.159959C110.52 0.159959 113.52 0.359959 116.52 0.519959C119.52 0.699959 122.52 0.829959 125.52 1.05996L134.5 1.93996L138.99 2.38996L143.45 3.04996L152.37 4.40996C155.32 4.98996 158.26 5.64996 161.2 6.26996L165.61 7.20996C167.08 7.53996 168.53 7.95996 169.99 8.36996C172.88 9.24996 175.74 10.21 178.53 11.37C181.32 12.51 184.07 13.78 186.71 15.23C189.37 16.65 191.93 18.26 194.38 20.03C196.83 21.79 199.16 23.74 201.22 25.97C203.27 28.19 205.1 30.68 206.23 33.53C206.82 34.94 207.11 36.47 207.23 38.01C207.22 38.4 207.19 38.78 207.18 39.17C207.15 39.55 207.17 39.95 207.05 40.32C206.86 41.07 206.76 41.84 206.4 42.53C205.23 45.41 202.97 47.64 200.51 49.38C199.29 50.3 197.94 50.97 196.62 51.72L194.56 52.65L193.53 53.11L192.47 53.5L190.35 54.28C189.64 54.53 188.91 54.72 188.19 54.94L186.02 55.58L183.83 56.11L181.63 56.63L179.41 57.06C177.93 57.35 176.46 57.63 174.98 57.88C172.03 58.4 169.09 58.97 166.16 59.58C160.29 60.78 154.46 62.16 148.71 63.8C142.98 65.47 137.27 67.34 131.98 70.02C129.37 71.38 126.79 72.93 124.91 75.05C123.99 76.11 123.35 77.35 123.32 78.61C123.33 79.87 124 81.08 124.95 82.07C125.91 83.08 127.11 83.9 128.36 84.62C129.61 85.35 130.95 85.96 132.31 86.52C135.04 87.63 137.88 88.5 140.76 89.25C146.52 90.73 152.4 91.78 158.32 92.58C170.16 94.19 182.12 94.9 194.08 95.23C200.06 95.38 206.05 95.44 212.03 95.41C218.01 95.39 224 95.22 230.01 95.12C254.01 94.74 278.05 94.72 302.02 96.74C308.01 97.27 313.99 97.99 319.92 99.12C322.88 99.7 325.83 100.36 328.72 101.31C330.17 101.77 331.59 102.32 332.97 102.98C334.35 103.64 335.7 104.43 336.86 105.51C337.45 106.03 337.94 106.69 338.35 107.39C338.71 108.13 338.94 108.94 338.96 109.77C338.95 111.44 338.21 112.93 337.32 114.18C335.48 116.67 333.07 118.57 330.63 120.32C325.68 123.77 320.35 126.57 314.96 129.21L314.87 129.03C320.18 126.27 325.45 123.35 330.26 119.81C332.63 118.03 334.95 116.08 336.63 113.69C337.44 112.5 338.04 111.14 338.03 109.78C338 109.1 337.81 108.45 337.5 107.85C337.14 107.27 336.73 106.7 336.18 106.25C335.13 105.3 333.85 104.57 332.52 103.96C331.19 103.35 329.8 102.84 328.38 102.42C325.55 101.54 322.63 100.94 319.69 100.41C313.81 99.39 307.86 98.78 301.9 98.3C289.97 97.37 277.99 97.07 266.01 96.96C254.03 96.88 242.04 96.94 230.06 97.18C206.09 97.88 181.94 97.74 158.07 94.43C152.11 93.57 146.16 92.51 140.32 90.93C137.4 90.13 134.51 89.21 131.69 88.03C130.29 87.43 128.9 86.78 127.57 85.98C126.24 85.19 124.95 84.29 123.84 83.11C122.76 81.95 121.83 80.36 121.85 78.58C121.9 76.81 122.8 75.27 123.84 74.09C126 71.73 128.7 70.2 131.4 68.82C136.86 66.14 142.64 64.34 148.43 62.72C154.24 61.14 160.11 59.84 166.01 58.71C171.9 57.54 177.87 56.75 183.68 55.4L185.86 54.89L188.01 54.27C188.72 54.05 189.45 53.87 190.15 53.62L192.25 52.86L193.3 52.48L194.32 52.03L196.36 51.12C197.65 50.4 199 49.74 200.18 48.85C202.6 47.18 204.76 44.99 205.84 42.27C206.18 41.62 206.27 40.88 206.44 40.18C206.55 39.83 206.53 39.46 206.55 39.1C206.56 38.74 206.59 38.37 206.6 38.01C206.47 36.56 206.2 35.11 205.62 33.76C204.52 31.03 202.73 28.61 200.7 26.46C198.67 24.3 196.37 22.38 193.93 20.68C191.49 18.97 188.94 17.42 186.29 16.06C183.65 14.67 180.92 13.46 178.15 12.38C175.38 11.28 172.54 10.38 169.68 9.55996C168.24 9.17996 166.81 8.78996 165.34 8.48996L160.94 7.61996C158 7.04996 155.08 6.43996 152.14 5.90996L143.26 4.67996L138.82 4.04996L134.35 3.62996L125.42 2.79996C122.44 2.58996 119.45 2.46996 116.46 2.30996C113.47 2.16996 110.49 1.92996 107.49 1.91996L98.51 1.72996C97 1.66996 95.5 1.67996 94 1.69996L89.51 1.73996C86.52 1.78996 83.52 1.73996 80.53 1.87996L71.55 2.19996C59.59 2.79996 47.63 3.52996 35.71 4.78996C23.79 6.02996 11.87 7.38996 0.04 9.35996L0 9.16996Z" fill="#6F5138"/>
<path d="M340.2 127.9C341.95 127.89 343.86 128.12 345.13 129.33C345.94 130.11 346.4 131.25 346.34 132.37C346.28 133.49 345.71 134.58 344.82 135.27C344.18 135.76 343.41 136.05 342.62 136.24C340.83 136.69 338.97 136.69 337.14 136.51C335.72 136.37 334.07 136.29 332.96 135.27C330.72 133.22 332.4 130.27 334.59 129.06C336.29 128.13 338.29 127.91 340.2 127.9Z" stroke="#6F5138" stroke-miterlimit="10"/>
<path d="M353.45 123.65C354.33 123.62 355.25 123.72 355.98 124.22C356.7 124.72 357.15 125.71 356.78 126.51C356.46 127.22 355.65 127.55 354.9 127.75C353.71 128.06 352.48 128.19 351.25 128.13C350.59 128.09 349.86 127.96 349.46 127.44C347.69 125.06 351.96 123.69 353.45 123.65Z" stroke="#6F5138" stroke-miterlimit="10"/>
<path d="M178.79 120.36C180.37 120.27 182.14 120.3 183.26 121.41C184.34 122.48 184.39 124.32 183.63 125.64C182.87 126.96 181.46 127.79 179.98 128.18C178.51 128.56 176.97 128.54 175.45 128.5C172.96 128.43 167.43 127.3 168.51 123.51C169.4 120.41 176.3 120.5 178.79 120.36Z" stroke="#6F5138" stroke-miterlimit="10"/>
<path d="M189.86 116.49C190.51 116.42 191.15 116.36 191.8 116.31C192.33 116.27 192.88 116.24 193.39 116.41C193.9 116.58 194.36 117 194.42 117.53C194.48 118.03 194.18 118.52 193.76 118.81C193.35 119.1 192.84 119.22 192.34 119.31C191.56 119.45 190.78 119.52 189.99 119.52C189.46 119.52 188.86 119.46 188.51 119.06C187.54 117.9 188.75 116.62 189.86 116.49Z" stroke="#6F5138" stroke-miterlimit="10"/>
<path d="M183.9 107.14C185.15 107.2 186.65 107.62 186.98 108.83C187.2 109.68 186.7 110.59 185.98 111.1C185.27 111.61 184.38 111.81 183.52 112C182.15 112.3 180.71 112.59 179.36 112.18C173.54 110.42 181.35 107.03 183.9 107.14Z" stroke="#6F5138" stroke-miterlimit="10"/>
<path d="M160.94 107.14C162.19 107.2 163.69 107.62 164.02 108.83C164.24 109.68 163.74 110.59 163.02 111.1C162.31 111.61 161.42 111.81 160.56 112C159.19 112.3 157.51 113.05 156.4 112.18C151.64 108.47 158.39 107.03 160.94 107.14Z" stroke="#6F5138" stroke-miterlimit="10"/>
</g>
<defs>
<clipPath id="clip0_104_7767">
<rect width="357.42" height="137.13" fill="white"/>
</clipPath>
</defs>
</svg>
