<svg width="190" height="45" viewBox="0 0 190 45" fill="none" xmlns="http://www.w3.org/2000/svg">
<path d="M29.0411 15.944L22.398 25.4347C22.37 25.4758 22.3323 25.5094 22.2883 25.5327C22.2443 25.5559 22.1953 25.5681 22.1456 25.5681C22.0958 25.5681 22.0468 25.5559 22.0028 25.5327C21.9588 25.5094 21.9212 25.4758 21.8931 25.4347L15.2501 15.9462C15.2088 15.8882 15.1888 15.8176 15.1936 15.7466C15.1985 15.6755 15.2278 15.6083 15.2767 15.5565C16.1537 14.6426 17.2043 13.913 18.3669 13.4102C19.5294 12.9074 20.7806 12.6416 22.0472 12.6284C23.3137 12.6152 24.5702 12.8549 25.743 13.3333C26.9157 13.8118 27.9813 14.5194 28.8772 15.4147L29.0101 15.552C29.0601 15.6035 29.0906 15.6708 29.0963 15.7424C29.1019 15.814 29.0824 15.8853 29.0411 15.944Z" fill="#F9ECD8"/>
<path d="M17.3392 7.85644L18.1253 10.786C18.1445 10.86 18.1356 10.9384 18.1005 11.0063C18.0653 11.0741 18.0064 11.1266 17.9349 11.1536C16.4883 11.7081 15.1655 12.5426 14.0421 13.6093C14.01 13.6395 13.9719 13.6623 13.9302 13.6763C13.8885 13.6903 13.8443 13.6952 13.8006 13.6906C13.7569 13.686 13.7147 13.672 13.6769 13.6495C13.639 13.6271 13.6065 13.5968 13.5815 13.5606L11.8344 11.0717C11.7912 11.0098 11.7721 10.9342 11.7806 10.8592C11.7892 10.7842 11.8248 10.7148 11.8809 10.6642C13.3558 9.34127 15.0734 8.31703 16.9384 7.64829C16.9784 7.63431 17.0207 7.62864 17.0629 7.63164C17.1051 7.63464 17.1463 7.64625 17.1838 7.66575C17.2214 7.68525 17.2545 7.71222 17.2813 7.74502C17.308 7.77782 17.3277 7.81574 17.3392 7.85644Z" fill="#F9ECD8"/>
<path d="M22.1442 6.74025C23.1524 6.73897 24.1582 6.83762 25.1469 7.03476C25.2255 7.05032 25.2949 7.09619 25.3401 7.16247C25.3852 7.22876 25.4025 7.31013 25.3882 7.38905L24.8656 10.3651C24.858 10.4059 24.8423 10.4447 24.8194 10.4793C24.7966 10.5138 24.7671 10.5436 24.7327 10.5666C24.6983 10.5897 24.6596 10.6057 24.6189 10.6137C24.5783 10.6217 24.5364 10.6215 24.4958 10.6131C22.9432 10.2972 21.3429 10.2972 19.7904 10.6131C19.7499 10.6215 19.7082 10.6217 19.6677 10.6136C19.6271 10.6056 19.5886 10.5896 19.5544 10.5665C19.5201 10.5434 19.4908 10.5137 19.4682 10.4791C19.4456 10.4445 19.4302 10.4058 19.4228 10.3651L18.898 7.38905C18.8837 7.31013 18.9009 7.22876 18.9461 7.16247C18.9913 7.09619 19.0607 7.05032 19.1393 7.03476C20.1288 6.83762 21.1353 6.73897 22.1442 6.74025Z" fill="#F9ECD8"/>
<path d="M36.5376 17.006L22.4079 37.1853C22.3795 37.226 22.3418 37.2592 22.2978 37.2821C22.2538 37.305 22.205 37.317 22.1554 37.317C22.1059 37.317 22.057 37.305 22.0131 37.2821C21.9691 37.2592 21.9314 37.226 21.903 37.1853L7.76218 17.006C7.73288 16.9647 7.71414 16.9169 7.70757 16.8667C7.70101 16.8165 7.70683 16.7655 7.72453 16.7181C8.24551 15.3382 8.96137 14.04 9.8503 12.8629C9.87879 12.8232 9.91635 12.7907 9.95987 12.7684C10.0034 12.746 10.0516 12.7344 10.1005 12.7344C10.1494 12.7344 10.1977 12.746 10.2412 12.7684C10.2847 12.7907 10.3223 12.8232 10.3507 12.8629L21.8919 29.3421C21.9203 29.3827 21.9581 29.416 22.002 29.4389C22.046 29.4618 22.0948 29.4738 22.1444 29.4738C22.1939 29.4738 22.2428 29.4618 22.2867 29.4389C22.3307 29.416 22.3684 29.3827 22.3968 29.3421L33.938 12.8629C33.9665 12.8232 34.004 12.7907 34.0476 12.7684C34.0911 12.746 34.1393 12.7344 34.1882 12.7344C34.2371 12.7344 34.2854 12.746 34.3289 12.7684C34.3724 12.7907 34.4099 12.8232 34.4384 12.8629C35.3274 14.04 36.0432 15.3382 36.5642 16.7181C36.5835 16.7646 36.5912 16.8152 36.5865 16.8653C36.5819 16.9155 36.5651 16.9638 36.5376 17.006Z" fill="#F9ECD8"/>
<path d="M26.9493 7.85644L26.1632 10.786C26.1441 10.86 26.1529 10.9384 26.1881 11.0063C26.2232 11.0741 26.2822 11.1266 26.3536 11.1536C27.8002 11.7081 29.1231 12.5426 30.2465 13.6093C30.2785 13.6395 30.3166 13.6623 30.3583 13.6763C30.4 13.6903 30.4442 13.6952 30.4879 13.6906C30.5316 13.686 30.5739 13.672 30.6117 13.6495C30.6495 13.6271 30.682 13.5968 30.707 13.5606L32.4542 11.0717C32.4974 11.0098 32.5165 10.9342 32.5079 10.8592C32.4993 10.7842 32.4637 10.7148 32.4077 10.6642C30.9327 9.34127 29.2151 8.31703 27.3501 7.64829C27.3102 7.63431 27.2678 7.62864 27.2256 7.63164C27.1834 7.63464 27.1423 7.64625 27.1047 7.66575C27.0672 7.68525 27.034 7.71222 27.0073 7.74502C26.9805 7.77782 26.9608 7.81574 26.9493 7.85644Z" fill="#F9ECD8"/>
<path d="M22.1438 2.24765C27.4205 2.24765 32.4811 4.34382 36.2124 8.07503C39.9436 11.8062 42.0397 16.8668 42.0397 22.1436C42.0397 27.4203 39.9436 32.4809 36.2124 36.2121C32.4811 39.9433 27.4205 42.0395 22.1438 42.0395C16.8671 42.0395 11.8065 39.9433 8.07528 36.2121C4.34407 32.4809 2.2479 27.4203 2.2479 22.1436C2.2479 16.8668 4.34407 11.8062 8.07528 8.07503C11.8065 4.34382 16.8671 2.24765 22.1438 2.24765ZM22.1438 8.25792e-05C17.0208 1.30988e-05 12.0562 1.77628 8.09606 5.02624C4.13587 8.2762 1.42508 12.7988 0.42557 17.8233C-0.573943 22.8479 0.199664 28.0636 2.61458 32.5817C5.0295 37.0998 8.93631 40.6409 13.6693 42.6014C18.4024 44.562 23.6688 44.8207 28.5712 43.3337C33.4736 41.8466 37.7088 38.7056 40.555 34.446C43.4013 30.1864 44.6825 25.0717 44.1804 19.9734C43.6783 14.875 41.424 10.1085 37.8015 6.48591C35.7501 4.42319 33.31 2.78784 30.6223 1.67455C27.9347 0.561248 25.0529 -0.00788827 22.1438 8.25792e-05Z" fill="#F9ECD8"/>
<path d="M55.9874 31.666C55.4006 31.666 55.1194 31.387 54.9511 30.8267L49.8825 13.4596C49.7142 12.9282 49.909 12.6182 50.498 12.6182H53.8085C54.3953 12.6182 54.6477 12.9282 54.7872 13.4596L56.8887 21.3028C57.3094 22.8706 57.5884 25.8688 57.5884 25.8688C57.5884 25.8688 57.9538 22.8706 58.3745 21.3028L60.5025 13.4596C60.642 12.9282 60.8944 12.6182 61.4834 12.6182H64.5038C65.0906 12.6182 65.2877 12.9282 65.1194 13.4596L60.0507 30.8267C59.8825 31.387 59.6079 31.666 59.0144 31.666H55.9874Z" fill="#F9ECD8"/>
<path d="M70.6118 30.8267C70.6118 31.4135 70.4148 31.666 69.8257 31.666H66.8009C66.2141 31.666 65.9883 31.4135 65.9883 30.8267V13.4596C65.9883 12.8706 66.2097 12.6182 66.8009 12.6182H69.8257C70.4148 12.6182 70.6118 12.8706 70.6118 13.4596V30.8267Z" fill="#F9ECD8"/>
<path d="M84.0277 12.6226C84.6146 12.6226 84.867 12.8197 84.867 13.4087V15.592C84.867 16.1811 84.6146 16.4047 84.0277 16.4047H80.4427V30.8312C80.4427 31.418 80.2456 31.6705 79.6566 31.6705H76.6318C76.045 31.6705 75.8192 31.418 75.8192 30.8312V16.4003H72.2341C71.6473 16.4003 71.3949 16.1788 71.3949 15.5876V13.4043C71.3949 12.8152 71.6473 12.6182 72.2341 12.6182L84.0277 12.6226Z" fill="#F9ECD8"/>
<path d="M92.9079 13.4596L97.9765 30.8267C98.1448 31.3582 97.95 31.666 97.3609 31.666H94.2609C93.6718 31.666 93.4216 31.3582 93.2799 30.8267L92.5514 28.1363H87.9012L87.1727 30.8267C87.031 31.3582 86.7808 31.666 86.1918 31.666H83.3552C82.7684 31.666 82.5713 31.3582 82.7396 30.8267L87.8105 13.4596C87.9787 12.8994 88.2533 12.6182 88.8468 12.6182H91.8716C92.4584 12.6226 92.7396 12.8994 92.9079 13.4596ZM91.1364 22.9813C90.6935 21.2718 90.295 17.379 90.2684 17.1266C90.213 17.5185 89.7635 21.356 89.3162 22.9813L88.8955 24.4937H91.5284L91.1364 22.9813Z" fill="#F9ECD8"/>
<path d="M103.468 27.8839H108.957C109.546 27.8839 109.799 28.0809 109.799 28.67V30.8533C109.799 31.4423 109.546 31.666 108.957 31.666H99.5464C99.0415 31.666 98.8467 31.387 98.8467 30.8267V13.4596C98.8467 12.8706 99.0681 12.6182 99.6593 12.6182H102.684C103.271 12.6182 103.468 12.8706 103.468 13.4596V27.8839Z" fill="#F9ECD8"/>
<path d="M114.56 17.1842C114.56 14.775 116.438 12.3945 121.703 12.3945C126.969 12.3945 128.876 14.775 128.876 17.1842V27.1C128.876 29.5092 126.971 31.8897 121.705 31.8897C116.44 31.8897 114.562 29.5092 114.562 27.1L114.56 17.1842ZM124.252 17.9968C124.252 16.7081 123.076 16.1766 121.703 16.1766C120.33 16.1766 119.181 16.7081 119.181 17.9968V26.2874C119.181 27.5761 120.33 28.1098 121.703 28.1098C123.076 28.1098 124.252 27.5761 124.252 26.2874V17.9968Z" fill="#F9ECD8"/>
<path d="M141.898 23.9357L144.644 30.8267C144.838 31.3294 144.475 31.666 143.86 31.666H140.833C140.299 31.666 140.188 31.2231 140.02 30.8267L137.555 24.6266H135.454V30.8267C135.454 31.4135 135.257 31.666 134.67 31.666H131.648C131.059 31.666 130.835 31.4135 130.835 30.8267V13.4596C130.835 12.8706 131.056 12.6182 131.648 12.6182H137.697C142.963 12.6182 144.812 15.0008 144.812 17.4078V19.8436C144.819 21.4423 143.999 23.03 141.898 23.9357ZM135.456 16.4069V20.86H137.697C139.07 20.86 140.246 20.3285 140.246 19.0398V18.2271C140.246 16.9384 139.07 16.4069 137.697 16.4069H135.456Z" fill="#F9ECD8"/>
<path d="M151.254 30.8267C151.254 31.4135 151.059 31.666 150.47 31.666H147.445C146.856 31.666 146.632 31.4135 146.632 30.8267V13.4596C146.632 12.8706 146.854 12.6182 147.445 12.6182H150.47C151.059 12.6182 151.254 12.8706 151.254 13.4596V30.8267Z" fill="#F9ECD8"/>
<path d="M166.157 21.3029C166.746 21.3029 166.996 21.4977 166.996 22.0867V27.1C166.996 29.5092 165.373 31.8897 160.107 31.8897C154.842 31.8897 153.216 29.5092 153.216 27.1V17.1842C153.216 14.775 154.839 12.3945 160.107 12.3945C165.375 12.3945 166.996 14.775 166.996 17.1842V18.1939C166.996 18.7807 166.801 19.0331 166.212 19.0331H163.334C162.747 19.0331 162.521 18.7807 162.521 18.1939V17.9968C162.521 16.7081 161.542 16.1766 160.169 16.1766C158.796 16.1766 157.844 16.7081 157.844 17.9968V26.2874C157.844 27.5761 158.796 28.1098 160.169 28.1098C161.542 28.1098 162.521 27.5761 162.521 26.2874V25.0828H160.218C159.631 25.0828 159.379 24.8613 159.379 24.2723V22.0867C159.379 21.4977 159.631 21.3029 160.218 21.3029H166.157Z" fill="#F9ECD8"/>
<path d="M173.439 30.8267C173.439 31.4135 173.242 31.666 172.655 31.666H169.631C169.042 31.666 168.818 31.4135 168.818 30.8267V13.4596C168.818 12.8706 169.039 12.6182 169.631 12.6182H172.655C173.242 12.6182 173.439 12.8706 173.439 13.4596V30.8267Z" fill="#F9ECD8"/>
<path d="M189.991 30.8267C189.991 31.4135 189.794 31.666 189.207 31.666H186.461C186.041 31.666 185.872 31.553 185.704 31.274L181.222 23.8228C180.75 23.0196 180.35 22.1763 180.027 21.3028V30.8245C180.027 31.4113 179.83 31.6638 179.241 31.6638H176.484C175.895 31.6638 175.671 31.4113 175.671 30.8245V13.4596C175.671 12.8706 175.892 12.6182 176.484 12.6182H179.227C179.593 12.6182 179.816 12.7311 179.929 12.9547L184.677 20.8821C185.043 21.5634 185.371 22.265 185.658 22.9835V13.4618C185.658 12.8728 185.879 12.6204 186.47 12.6204H189.216C189.803 12.6204 190 12.8728 190 13.4618L189.991 30.8267Z" fill="#F9ECD8"/>
</svg>
