<svg width="166" height="39" viewBox="0 0 166 39" fill="none" xmlns="http://www.w3.org/2000/svg">
<path d="M25.3315 13.9068L19.537 22.1852C19.5125 22.221 19.4797 22.2504 19.4413 22.2707C19.4029 22.2909 19.3602 22.3015 19.3168 22.3015C19.2734 22.3015 19.2307 22.2909 19.1923 22.2707C19.1539 22.2504 19.1211 22.221 19.0966 22.1852L13.3021 13.9087C13.2661 13.8581 13.2487 13.7966 13.2529 13.7346C13.2571 13.6726 13.2827 13.614 13.3253 13.5688C14.0903 12.7717 15.0067 12.1352 16.0208 11.6966C17.0348 11.2581 18.1262 11.0263 19.231 11.0148C20.3357 11.0033 21.4317 11.2123 22.4547 11.6296C23.4776 12.0469 24.4071 12.6642 25.1885 13.4452L25.3044 13.5649C25.3481 13.6098 25.3747 13.6685 25.3796 13.731C25.3846 13.7934 25.3675 13.8556 25.3315 13.9068Z" fill="#6F5138"/>
<path d="M15.1244 6.85339L15.8101 9.40876C15.8267 9.47328 15.819 9.54169 15.7884 9.60086C15.7577 9.66004 15.7063 9.7058 15.6439 9.72939C14.3822 10.213 13.2283 10.9409 12.2484 11.8714C12.2204 11.8977 12.1872 11.9176 12.1508 11.9299C12.1145 11.9421 12.0759 11.9463 12.0378 11.9423C11.9996 11.9383 11.9628 11.926 11.9298 11.9065C11.8968 11.8869 11.8684 11.8605 11.8466 11.8289L10.3227 9.65792C10.285 9.6039 10.2683 9.53799 10.2758 9.47256C10.2833 9.40712 10.3144 9.34667 10.3632 9.30253C11.6498 8.14855 13.1479 7.25514 14.7748 6.67182C14.8096 6.65962 14.8466 6.65468 14.8834 6.6573C14.9202 6.65992 14.9561 6.67004 14.9888 6.68705C15.0216 6.70406 15.0505 6.72759 15.0738 6.75619C15.0971 6.7848 15.1143 6.81788 15.1244 6.85339Z" fill="#6F5138"/>
<path d="M19.3156 5.87974C20.195 5.87863 21.0723 5.96468 21.9347 6.13663C22.0033 6.15021 22.0639 6.19022 22.1032 6.24804C22.1426 6.30585 22.1577 6.37683 22.1452 6.44567L21.6894 9.0416C21.6827 9.07712 21.669 9.11096 21.6491 9.14114C21.6292 9.17132 21.6035 9.19723 21.5734 9.21736C21.5434 9.2375 21.5097 9.25146 21.4742 9.25842C21.4387 9.26538 21.4022 9.26521 21.3668 9.25792C20.0126 8.98238 18.6167 8.98238 17.2624 9.25792C17.2271 9.2652 17.1907 9.26535 17.1554 9.25836C17.12 9.25138 17.0864 9.2374 17.0566 9.21724C17.0267 9.19709 17.0011 9.17117 16.9814 9.14101C16.9617 9.11085 16.9482 9.07704 16.9418 9.0416L16.484 6.44567C16.4715 6.37683 16.4866 6.30585 16.526 6.24804C16.5654 6.19022 16.6259 6.15021 16.6945 6.13663C17.5576 5.96468 18.4356 5.87863 19.3156 5.87974Z" fill="#6F5138"/>
<path d="M31.8705 14.8341L19.5456 32.4358C19.5208 32.4713 19.4879 32.5002 19.4496 32.5202C19.4112 32.5402 19.3686 32.5507 19.3254 32.5507C19.2822 32.5507 19.2396 32.5402 19.2012 32.5202C19.1629 32.5002 19.1299 32.4713 19.1052 32.4358L6.77067 14.8341C6.74512 14.7981 6.72877 14.7564 6.72305 14.7126C6.71732 14.6689 6.7224 14.6244 6.73784 14.583C7.19227 13.3794 7.81668 12.247 8.59207 11.2203C8.61692 11.1856 8.64969 11.1573 8.68764 11.1378C8.7256 11.1183 8.76766 11.1082 8.81033 11.1082C8.85301 11.1082 8.89507 11.1183 8.93302 11.1378C8.97098 11.1573 9.00374 11.1856 9.02859 11.2203L19.0955 25.5945C19.1203 25.6299 19.1532 25.6589 19.1916 25.6789C19.2299 25.6989 19.2725 25.7093 19.3157 25.7093C19.359 25.7093 19.4016 25.6989 19.4399 25.6789C19.4782 25.6589 19.5112 25.6299 19.5359 25.5945L29.6029 11.2203C29.6277 11.1856 29.6605 11.1573 29.6984 11.1378C29.7364 11.1183 29.7785 11.1082 29.8211 11.1082C29.8638 11.1082 29.9059 11.1183 29.9438 11.1378C29.9818 11.1573 30.0145 11.1856 30.0394 11.2203C30.8148 12.247 31.4392 13.3794 31.8936 14.583C31.9105 14.6236 31.9171 14.6677 31.9131 14.7114C31.9091 14.7552 31.8944 14.7973 31.8705 14.8341Z" fill="#6F5138"/>
<path d="M23.5069 6.85339L22.8212 9.40876C22.8045 9.47328 22.8123 9.54169 22.8429 9.60086C22.8736 9.66004 22.925 9.7058 22.9873 9.72939C24.2491 10.213 25.403 10.9409 26.3829 11.8714C26.4109 11.8977 26.4441 11.9176 26.4805 11.9299C26.5168 11.9421 26.5554 11.9463 26.5935 11.9423C26.6317 11.9383 26.6685 11.926 26.7015 11.9065C26.7345 11.8869 26.7628 11.8605 26.7847 11.8289L28.3086 9.65792C28.3463 9.6039 28.363 9.53799 28.3555 9.47256C28.348 9.40712 28.3169 9.34667 28.2681 9.30253C26.9815 8.14855 25.4833 7.25514 23.8565 6.67182C23.8217 6.65962 23.7847 6.65468 23.7479 6.6573C23.7111 6.65992 23.6752 6.67004 23.6425 6.68705C23.6097 6.70406 23.5808 6.72759 23.5575 6.75619C23.5342 6.7848 23.517 6.81788 23.5069 6.85339Z" fill="#6F5138"/>
<path d="M19.3152 1.96054C23.9179 1.96054 28.3321 3.78896 31.5867 7.04355C34.8413 10.2982 36.6697 14.7123 36.6697 19.315C36.6697 23.9177 34.8413 28.3319 31.5867 31.5865C28.3321 34.8411 23.9179 36.6695 19.3152 36.6695C14.7125 36.6695 10.2984 34.8411 7.04377 31.5865C3.78917 28.3319 1.96076 23.9177 1.96076 19.315C1.96076 14.7123 3.78917 10.2982 7.04377 7.04355C10.2984 3.78896 14.7125 1.96054 19.3152 1.96054ZM19.3152 7.20308e-05C14.8466 1.14256e-05 10.5162 1.54939 7.0619 4.38421C3.60757 7.21903 1.24305 11.1639 0.371209 15.5466C-0.50063 19.9294 0.17416 24.4788 2.2806 28.4198C4.38705 32.3608 7.79482 35.4495 11.9233 37.1596C16.0517 38.8698 20.6454 39.0955 24.9216 37.7984C29.1978 36.5012 32.892 33.7615 35.3747 30.046C37.8573 26.3305 38.9749 21.8691 38.5369 17.422C38.099 12.9749 36.1326 8.81725 32.9728 5.65742C31.1835 3.85818 29.0551 2.43173 26.7107 1.46065C24.3664 0.489556 21.8527 -0.00688065 19.3152 7.20308e-05Z" fill="#6F5138"/>
<path d="M48.8358 27.6203C48.3239 27.6203 48.0786 27.3769 47.9318 26.8882L43.5106 11.7395C43.3639 11.276 43.5338 11.0056 44.0476 11.0056H46.9352C47.447 11.0056 47.6672 11.276 47.7889 11.7395L49.6219 18.5809C49.9889 19.9484 50.2323 22.5636 50.2323 22.5636C50.2323 22.5636 50.5509 19.9484 50.9179 18.5809L52.7741 11.7395C52.8958 11.276 53.116 11.0056 53.6298 11.0056H56.2643C56.7762 11.0056 56.9481 11.276 56.8013 11.7395L52.3801 26.8882C52.2333 27.3769 51.9938 27.6203 51.4761 27.6203H48.8358Z" fill="#6F5138"/>
<path d="M61.5921 26.8882C61.5921 27.4001 61.4202 27.6203 60.9064 27.6203H58.268C57.7562 27.6203 57.5591 27.4001 57.5591 26.8882V11.7395C57.5591 11.2257 57.7523 11.0056 58.268 11.0056H60.9064C61.4202 11.0056 61.5921 11.2257 61.5921 11.7395V26.8882Z" fill="#6F5138"/>
<path d="M73.2943 11.0094C73.8062 11.0094 74.0264 11.1813 74.0264 11.6951V13.5996C74.0264 14.1133 73.8062 14.3084 73.2943 14.3084H70.1672V26.8921C70.1672 27.404 69.9953 27.6242 69.4816 27.6242H66.8431C66.3313 27.6242 66.1343 27.404 66.1343 26.8921V14.3046H63.0072C62.4953 14.3046 62.2751 14.1114 62.2751 13.5957V11.6912C62.2751 11.1775 62.4953 11.0056 63.0072 11.0056L73.2943 11.0094Z" fill="#6F5138"/>
<path d="M81.0402 11.7395L85.4614 26.8882C85.6082 27.3518 85.4382 27.6203 84.9244 27.6203H82.2203C81.7065 27.6203 81.4883 27.3518 81.3647 26.8882L80.7292 24.5415H76.6731L76.0376 26.8882C75.914 27.3518 75.6957 27.6203 75.182 27.6203H72.7077C72.1959 27.6203 72.024 27.3518 72.1708 26.8882L76.5939 11.7395C76.7407 11.2509 76.9802 11.0056 77.4978 11.0056H80.1362C80.6481 11.0094 80.8934 11.2509 81.0402 11.7395ZM79.495 20.0449C79.1087 18.5538 78.761 15.1583 78.7378 14.9381C78.6895 15.2799 78.2975 18.6272 77.9073 20.0449L77.5403 21.3642H79.8369L79.495 20.0449Z" fill="#6F5138"/>
<path d="M90.2514 24.3213H95.0396C95.5534 24.3213 95.7736 24.4932 95.7736 25.007V26.9114C95.7736 27.4252 95.5534 27.6203 95.0396 27.6203H86.8307C86.3904 27.6203 86.2204 27.3769 86.2204 26.8882V11.7395C86.2204 11.2257 86.4135 11.0056 86.9293 11.0056H89.5677C90.0795 11.0056 90.2514 11.2257 90.2514 11.7395V24.3213Z" fill="#6F5138"/>
<path d="M99.9263 14.9889C99.9263 12.8874 101.564 10.8111 106.157 10.8111C110.75 10.8111 112.413 12.8874 112.413 14.9889V23.6381C112.413 25.7396 110.752 27.816 106.159 27.816C101.566 27.816 99.9282 25.7396 99.9282 23.6381L99.9263 14.9889ZM108.38 15.6978C108.38 14.5736 107.355 14.1101 106.157 14.1101C104.96 14.1101 103.957 14.5736 103.957 15.6978V22.9293C103.957 24.0534 104.96 24.5189 106.157 24.5189C107.355 24.5189 108.38 24.0534 108.38 22.9293V15.6978Z" fill="#6F5138"/>
<path d="M123.772 20.8774L126.167 26.8882C126.337 27.3267 126.021 27.6203 125.484 27.6203H122.843C122.378 27.6203 122.281 27.234 122.134 26.8882L119.985 21.48H118.152V26.8882C118.152 27.4001 117.98 27.6203 117.468 27.6203H114.831C114.318 27.6203 114.122 27.4001 114.122 26.8882V11.7395C114.122 11.2257 114.316 11.0056 114.831 11.0056H120.108C124.701 11.0056 126.314 13.0838 126.314 15.1834V17.308C126.32 18.7026 125.605 20.0874 123.772 20.8774ZM118.154 14.3103V18.1946H120.108C121.306 18.1946 122.331 17.731 122.331 16.6069V15.898C122.331 14.7739 121.306 14.3103 120.108 14.3103H118.154Z" fill="#6F5138"/>
<path d="M131.933 26.8882C131.933 27.4001 131.763 27.6203 131.249 27.6203H128.611C128.097 27.6203 127.902 27.4001 127.902 26.8882V11.7395C127.902 11.2257 128.095 11.0056 128.611 11.0056H131.249C131.763 11.0056 131.933 11.2257 131.933 11.7395V26.8882Z" fill="#6F5138"/>
<path d="M144.933 18.5815C145.446 18.5815 145.665 18.7514 145.665 19.2652V23.6381C145.665 25.7396 144.249 27.816 139.656 27.816C135.063 27.816 133.645 25.7396 133.645 23.6381V14.9889C133.645 12.8874 135.061 10.8111 139.656 10.8111C144.251 10.8111 145.665 12.8874 145.665 14.9889V15.8697C145.665 16.3815 145.495 16.6017 144.981 16.6017H142.47C141.958 16.6017 141.761 16.3815 141.761 15.8697V15.6978C141.761 14.5736 140.907 14.1101 139.71 14.1101C138.512 14.1101 137.682 14.5736 137.682 15.6978V22.9293C137.682 24.0534 138.512 24.5189 139.71 24.5189C140.907 24.5189 141.761 24.0534 141.761 22.9293V21.8785H139.752C139.24 21.8785 139.02 21.6854 139.02 21.1716V19.2652C139.02 18.7514 139.24 18.5815 139.752 18.5815H144.933Z" fill="#6F5138"/>
<path d="M151.285 26.8882C151.285 27.4001 151.113 27.6203 150.601 27.6203H147.963C147.449 27.6203 147.254 27.4001 147.254 26.8882V11.7395C147.254 11.2257 147.447 11.0056 147.963 11.0056H150.601C151.113 11.0056 151.285 11.2257 151.285 11.7395V26.8882Z" fill="#6F5138"/>
<path d="M165.722 26.8882C165.722 27.4001 165.55 27.6203 165.039 27.6203H162.644C162.277 27.6203 162.13 27.5218 161.983 27.2784L158.074 20.7789C157.662 20.0783 157.313 19.3428 157.031 18.5809V26.8863C157.031 27.3981 156.859 27.6183 156.345 27.6183H153.94C153.426 27.6183 153.231 27.3981 153.231 26.8863V11.7395C153.231 11.2257 153.425 11.0056 153.94 11.0056H156.333C156.652 11.0056 156.847 11.1041 156.946 11.2991L161.087 18.2139C161.406 18.8082 161.692 19.4202 161.942 20.0469V11.7415C161.942 11.2277 162.136 11.0075 162.651 11.0075H165.046C165.558 11.0075 165.73 11.2277 165.73 11.7415L165.722 26.8882Z" fill="#6F5138"/>
</svg>
